<svg width="18" height="15" viewBox="0 0 18 15" fill="none" xmlns="http://www.w3.org/2000/svg">
<path d="M0.75 14.5C0.5375 14.5 0.359375 14.4281 0.215625 14.2844C0.071875 14.1406 0 13.9625 0 13.75V13.3188C0 12.9313 0.14375 12.5938 0.43125 12.3063C0.71875 12.0188 1.1125 11.8063 1.6125 11.6688C1.9375 11.5688 2.23125 11.5125 2.49375 11.5C2.75625 11.4875 3.0375 11.4938 3.3375 11.5188C3.4625 11.5312 3.55312 11.5906 3.60938 11.6969C3.66563 11.8031 3.66875 11.9125 3.61875 12.025C3.53125 12.225 3.46875 12.4281 3.43125 12.6344C3.39375 12.8406 3.375 13.0562 3.375 13.2812V13.75C3.375 13.9625 3.30313 14.1406 3.15938 14.2844C3.01562 14.4281 2.8375 14.5 2.625 14.5H0.75ZM5.25 14.5C5.0375 14.5 4.85938 14.4281 4.71562 14.2844C4.57188 14.1406 4.5 13.9625 4.5 13.75V13.2812C4.5 12.4688 4.91563 11.8125 5.74687 11.3125C6.57812 10.8125 7.6625 10.5625 9 10.5625C10.35 10.5625 11.4375 10.8125 12.2625 11.3125C13.0875 11.8125 13.5 12.4688 13.5 13.2812V13.75C13.5 13.9625 13.4281 14.1406 13.2844 14.2844C13.1406 14.4281 12.9625 14.5 12.75 14.5H5.25ZM15.375 14.5C15.1625 14.5 14.9844 14.4281 14.8406 14.2844C14.6969 14.1406 14.625 13.9625 14.625 13.75V13.2812C14.625 13.0562 14.6063 12.8406 14.5688 12.6344C14.5313 12.4281 14.4688 12.225 14.3813 12.025C14.3313 11.9125 14.3344 11.8031 14.3906 11.6969C14.4469 11.5906 14.5375 11.5312 14.6625 11.5188C14.9625 11.4938 15.2438 11.4875 15.5063 11.5C15.7688 11.5125 16.0625 11.5688 16.3875 11.6688C16.8875 11.8063 17.2812 12.0188 17.5688 12.3063C17.8563 12.5938 18 12.9313 18 13.3188V13.75C18 13.9625 17.9281 14.1406 17.7844 14.2844C17.6406 14.4281 17.4625 14.5 17.25 14.5H15.375ZM3 10.75C2.5875 10.75 2.23438 10.6031 1.94063 10.3094C1.64688 10.0156 1.5 9.6625 1.5 9.25C1.5 8.825 1.64688 8.46875 1.94063 8.18125C2.23438 7.89375 2.5875 7.75 3 7.75C3.425 7.75 3.78125 7.89375 4.06875 8.18125C4.35625 8.46875 4.5 8.825 4.5 9.25C4.5 9.6625 4.35625 10.0156 4.06875 10.3094C3.78125 10.6031 3.425 10.75 3 10.75ZM15 10.75C14.5875 10.75 14.2344 10.6031 13.9406 10.3094C13.6469 10.0156 13.5 9.6625 13.5 9.25C13.5 8.825 13.6469 8.46875 13.9406 8.18125C14.2344 7.89375 14.5875 7.75 15 7.75C15.425 7.75 15.7813 7.89375 16.0688 8.18125C16.3563 8.46875 16.5 8.825 16.5 9.25C16.5 9.6625 16.3563 10.0156 16.0688 10.3094C15.7813 10.6031 15.425 10.75 15 10.75ZM9 10C8.375 10 7.84375 9.78125 7.40625 9.34375C6.96875 8.90625 6.75 8.375 6.75 7.75C6.75 7.1125 6.96875 6.57812 7.40625 6.14688C7.84375 5.71563 8.375 5.5 9 5.5C9.6375 5.5 10.1719 5.71563 10.6031 6.14688C11.0344 6.57812 11.25 7.1125 11.25 7.75C11.25 8.375 11.0344 8.90625 10.6031 9.34375C10.1719 9.78125 9.6375 10 9 10ZM9 2.125C9.4875 1.5375 10.0875 1.07812 10.8 0.746875C11.5125 0.415625 12.2625 0.25 13.05 0.25C14.425 0.25 15.5938 0.73125 16.5563 1.69375C17.5188 2.65625 18 3.825 18 5.2C18 5.4375 17.9844 5.67188 17.9531 5.90312C17.9219 6.13438 17.875 6.3625 17.8125 6.5875C17.75 6.8 17.6313 6.96875 17.4562 7.09375C17.2812 7.21875 17.0875 7.25 16.875 7.1875C16.675 7.1375 16.5219 7.025 16.4156 6.85C16.3094 6.675 16.2875 6.4875 16.35 6.2875C16.4 6.1125 16.4375 5.93438 16.4625 5.75313C16.4875 5.57188 16.5 5.3875 16.5 5.2C16.5 4.2375 16.1656 3.42188 15.4969 2.75313C14.8281 2.08438 14.0125 1.75 13.05 1.75C12.3625 1.75 11.7375 1.94062 11.175 2.32188C10.6125 2.70312 10.1062 3.15625 9.65625 3.68125C9.48125 3.89375 9.2625 4 9 4C8.7375 4 8.51875 3.89375 8.34375 3.68125C7.90625 3.15625 7.40313 2.70312 6.83438 2.32188C6.26562 1.94062 5.6375 1.75 4.95 1.75C3.9875 1.75 3.17188 2.08438 2.50313 2.75313C1.83438 3.42188 1.5 4.2375 1.5 5.2C1.5 5.3875 1.5125 5.57188 1.5375 5.75313C1.5625 5.93438 1.6 6.1125 1.65 6.2875C1.7 6.475 1.67188 6.65312 1.56563 6.82187C1.45938 6.99062 1.3125 7.1 1.125 7.15C0.9125 7.2125 0.71875 7.1875 0.54375 7.075C0.36875 6.9625 0.25 6.8 0.1875 6.5875C0.125 6.3625 0.078125 6.13438 0.046875 5.90312C0.015625 5.67188 0 5.4375 0 5.2C0 3.825 0.48125 2.65625 1.44375 1.69375C2.40625 0.73125 3.575 0.25 4.95 0.25C5.7375 0.25 6.4875 0.415625 7.2 0.746875C7.9125 1.07812 8.5125 1.5375 9 2.125Z" fill="#B09287"/>
</svg>
