<svg width="18" height="18" viewBox="0 0 16 16" fill="none" xmlns="http://www.w3.org/2000/svg">
<path d="M3.38701 11.8289C4.02451 11.3414 4.73701 10.957 5.52451 10.6758C6.31201 10.3945 7.13701 10.2539 7.99951 10.2539C8.86201 10.2539 9.68701 10.3945 10.4745 10.6758C11.262 10.957 11.9745 11.3414 12.612 11.8289C13.0495 11.3164 13.3901 10.7352 13.6339 10.0852C13.8776 9.43516 13.9995 8.74141 13.9995 8.00391C13.9995 6.34141 13.4151 4.92578 12.2464 3.75703C11.0776 2.58828 9.66201 2.00391 7.99951 2.00391C6.33701 2.00391 4.92139 2.58828 3.75264 3.75703C2.58389 4.92578 1.99951 6.34141 1.99951 8.00391C1.99951 8.74141 2.12139 9.43516 2.36514 10.0852C2.60889 10.7352 2.94951 11.3164 3.38701 11.8289ZM7.99951 8.75391C7.26201 8.75391 6.64014 8.50078 6.13389 7.99453C5.62764 7.48828 5.37451 6.86641 5.37451 6.12891C5.37451 5.39141 5.62764 4.76953 6.13389 4.26328C6.64014 3.75703 7.26201 3.50391 7.99951 3.50391C8.73701 3.50391 9.35889 3.75703 9.86514 4.26328C10.3714 4.76953 10.6245 5.39141 10.6245 6.12891C10.6245 6.86641 10.3714 7.48828 9.86514 7.99453C9.35889 8.50078 8.73701 8.75391 7.99951 8.75391ZM7.99951 15.5039C6.96201 15.5039 5.98701 15.307 5.07451 14.9133C4.16201 14.5195 3.36826 13.9852 2.69326 13.3102C2.01826 12.6352 1.48389 11.8414 1.09014 10.9289C0.696387 10.0164 0.499512 9.04141 0.499512 8.00391C0.499512 6.96641 0.696387 5.99141 1.09014 5.07891C1.48389 4.16641 2.01826 3.37266 2.69326 2.69766C3.36826 2.02266 4.16201 1.48828 5.07451 1.09453C5.98701 0.700781 6.96201 0.503906 7.99951 0.503906C9.03701 0.503906 10.012 0.700781 10.9245 1.09453C11.837 1.48828 12.6308 2.02266 13.3058 2.69766C13.9808 3.37266 14.5151 4.16641 14.9089 5.07891C15.3026 5.99141 15.4995 6.96641 15.4995 8.00391C15.4995 9.04141 15.3026 10.0164 14.9089 10.9289C14.5151 11.8414 13.9808 12.6352 13.3058 13.3102C12.6308 13.9852 11.837 14.5195 10.9245 14.9133C10.012 15.307 9.03701 15.5039 7.99951 15.5039Z" fill="#B09287"/>
</svg>
