<?xml version="1.0" encoding="UTF-8"?>
<svg id="Layer_1" xmlns="http://www.w3.org/2000/svg" version="1.1" viewBox="0 0 1322.5 439.5">
  <!-- Generator: Adobe Illustrator 29.5.1, SVG Export Plug-In . SVG Version: 2.1.0 Build 141)  -->
  <g>
    <path d="M834.5,32.3v21.4h-66.1c-2.5,0-8.6,2.2-10.6,3.9-6.6,5.8-5.9,20.3,2.3,24.2,10.5,5,35.4,1.5,48,2.4,26.1,1.9,37.7,17.6,35.5,43.2s-16.1,30.9-33.2,30.9h-76.7v-22.1h75.2c3.6,0,8.9-3.5,10.8-6.8,6.7-11.6,0-23.2-13.1-24.5-23.3-2.3-60.8,7.7-72.3-20.1-6.7-16.2-3.1-39.3,13.4-48,2.4-1.3,11.6-4.4,13.9-4.4h72.9Z"/>
    <path d="M1300.1,32.3v21.4h-66.1c-2.5,0-8.6,2.2-10.6,3.9-6.6,5.8-5.9,20.3,2.3,24.2s35.4,1.5,48,2.4c26.1,1.9,37.7,17.6,35.5,43.2-1.4,16.7-16.1,30.9-33.2,30.9h-76.7v-22.1h75.2c3.6,0,8.9-3.5,10.8-6.8,6.7-11.6,0-23.2-13.1-24.5-23.3-2.3-60.8,7.7-72.3-20.1-6.7-16.2-3.1-39.3,13.4-48,2.4-1.3,11.6-4.4,13.9-4.4h72.9Z"/>
    <path d="M1085,159.7h-24.4l-38-101.3c-2.5-6.9-10.4-6.2-13,.2l-40.2,101.1h-24.1l45.7-115.1c8.4-17.9,40.8-18.4,49.9-.8l44.2,115.8Z"/>
    <polygon points="1096.7 32.3 1131.2 84.8 1132.6 85.8 1167.4 32.3 1193.3 32.3 1142.9 104.5 1142.9 158.3 1120.8 158.3 1120.6 103.1 1071.1 32.3 1096.7 32.3"/>
    <polygon points="950.3 32.3 950.3 53.7 913.6 53.7 913.6 158.3 891.5 158.3 891.5 53.7 854.8 53.7 854.8 32.3 950.3 32.3"/>
    <path d="M152.6,159.7h-24.1l-38.4-100.6c-3.1-7.9-11.6-7.2-14,.8l-38.8,99.8H12.9L58.4,44.5c8.2-17.5,40.2-18.2,49.3-1.4l44.9,116.6Z"/>
    <path d="M648.7,159.7h-24.1l-40.3-104.4c-3.6-2.7-8.1-2.2-10.6,1.5l-40.3,102.9h-24.4l46.7-117.1c9.4-15.5,39.1-15.7,48.3.3l44.8,116.8Z"/>
    <path d="M414.5,159.7h-24.4l-38.8-102.9c-2.1-4-7.2-4-10.6-1.5l-41.5,104.4h-24.4l46.7-117.1c9.1-15.7,39.2-15.5,48.3.3l44.8,116.8Z"/>
    <polygon points="426.2 32.3 461.3 85.8 468.4 76.1 496.8 32.3 522.8 32.3 472.4 103.7 472.4 158.3 450.2 158.3 450.2 103.7 399.8 32.3 426.2 32.3"/>
    <path d="M184.7,32.3v86.7c0,3.6,4.3,10.4,7.3,12.6,2.3,1.7,9.6,4.6,12.2,4.6h55.4v22.1h-56.9c-20.7,0-40.1-17.5-40.1-38.6V32.3h22.1Z"/>
  </g>
  <g>
    <path d="M94.1,333.8c14.7,2.1,22.2,21.3,11.1,31.6-1.8,1.7-4.2,2.5-5.6,4.2,17.3,5,17.2,29.5.3,35.8-1.1.4-5.2,1.8-5.9,1.8h-33.7v-73.4c10.4,1.1,23.6-1.4,33.7,0ZM93.2,339.8c-7.7-1.3-18.8,1-26.9,0v26l1.3,1.3h20.5c.4,0,5.7-1,6.4-1.3,13.8-4.2,11.5-23.9-1.3-26.1ZM66.4,401.3h26.9c.7,0,5.2-1.8,6.2-2.4,7.9-4.5,8.9-18,1.4-23.1s-9.3-3.6-11.8-3.6h-21.3l-1.3,1.3v27.7Z"/>
    <path d="M1260.9,354.3l-6-.4c-1-.7-.8-3.8-1.5-5.4-6.8-16.1-42.3-13.4-37.6,6.9,3.1,13.6,39.8,9.7,45.1,26.6,10.7,33.7-53.7,36-53,3h5.9c2,15.1,15.2,18.8,28.6,17,11.4-1.6,18.9-15.2,8.5-22.9-10.9-8-35.2-5.9-40.7-20.8-11.6-31.6,51.3-36.7,50.6-4.1Z"/>
    <path d="M958.5,333.9l30,73.3h-6.7c0-.1-8.4-18.6-8.4-18.6l-38,.4-6.8,18.2h-6.7c0,0,29.8-72.8,29.8-72.8l6.8-.4ZM971.4,382.5l-17.1-39.3-15.4,39.3h32.4Z"/>
    <path d="M1099.4,333.9l30,73.3-7.3-.8-7.2-17.4-37.9-.6-7.8,18-7.3.8,30-72.1c1.6-2.3,5.1-1.3,7.5-1.3ZM1112.3,382.5l-16.6-39.3-15.8,39.3h32.4Z"/>
    <path d="M476.2,333.8c0,2.1.6,4.6-1.3,6h-35l-1.3,1.3v24.8l1.3,1.3h33.7v5.1h-33.7l-1.3,1.3v26.5l1.3,1.3h37.1v6h-44.4v-73.4h43.5Z"/>
    <path d="M790.3,333.9l25.3,63.9,25.3-63.9h6.7c0,0-29.6,73.2-29.6,73.2-2.1.2-4.9.8-6.2-1.2l-28.2-72.1h6.7Z"/>
    <polygon points="218.3 379.5 191 333.8 198.6 334 220.9 373.1 245 334 252.5 333.8 225.4 378.9 225 405.8 223.8 407.1 218.3 407.2 218.3 379.5"/>
    <polygon points="571.8 333.8 571.8 401.3 609.4 401.3 609.4 407.2 565 407.2 565 333.8 571.8 333.8"/>
    <rect x="693.1" y="333.8" width="6.8" height="73.4"/>
  </g>
  <rect x="17.8" y="259.3" width="1286.9" height="2.4"/>
</svg>