<?xml version="1.0" encoding="UTF-8"?>
<svg id="Layer_1" xmlns="http://www.w3.org/2000/svg" version="1.1" viewBox="0 0 1440 506.4">
  <!-- Generator: Adobe Illustrator 29.5.1, SVG Export Plug-In . SVG Version: 2.1.0 Build 141)  -->
  <defs>
    <style>
      .st0 {
        fill: #fff;
      }
    </style>
  </defs>
  <g>
    <path class="st0" d="M902.8,67.3v22.6h-69.7c-2.6,0-9,2.3-11.2,4.2-7,6.1-6.3,21.4,2.4,25.5,11.1,5.3,37.3,1.5,50.7,2.5,27.5,2,39.8,18.5,37.5,45.6-1.5,17.6-17,32.6-35.1,32.6h-81v-23.4h79.4c3.8,0,9.4-3.7,11.4-7.1,7.1-12.2,0-24.5-13.8-25.9-24.6-2.4-64.1,8.2-76.3-21.2-7.1-17.1-3.3-41.5,14.1-50.7,2.5-1.3,12.2-4.7,14.7-4.7h77Z"/>
    <path class="st0" d="M1394.2,67.3v22.6h-69.7c-2.6,0-9,2.3-11.2,4.2-7,6.1-6.3,21.4,2.4,25.5,11.1,5.3,37.3,1.5,50.7,2.5,27.5,2,39.8,18.5,37.5,45.6-1.5,17.6-17,32.6-35.1,32.6h-81v-23.4h79.4c3.8,0,9.4-3.7,11.4-7.1,7.1-12.2,0-24.5-13.8-25.9-24.6-2.4-64.1,8.2-76.3-21.2s-3.3-41.5,14.1-50.7c2.5-1.3,12.2-4.7,14.7-4.7h77Z"/>
    <path class="st0" d="M1167.1,201.7h-25.8l-40.1-106.9c-2.6-7.3-11-6.5-13.7.2l-42.4,106.7h-25.4l48.2-121.4c8.9-18.9,43-19.4,52.7-.8l46.6,122.2Z"/>
    <polygon class="st0" points="1179.5 67.3 1216 122.7 1217.4 123.7 1254.1 67.3 1281.5 67.3 1228.3 143.5 1228.3 200.3 1204.9 200.3 1204.7 142 1152.5 67.3 1179.5 67.3"/>
    <polygon class="st0" points="1025 67.3 1025 89.9 986.3 89.9 986.3 200.3 962.9 200.3 962.9 89.9 924.2 89.9 924.2 67.3 1025 67.3"/>
    <path class="st0" d="M183.3,201.7h-25.4l-40.5-106.1c-3.3-8.4-12.3-7.6-14.8.8l-41,105.3h-25.8l48-121.6c8.7-18.5,42.4-19.2,52-1.4l47.4,123Z"/>
    <path class="st0" d="M706.8,201.7h-25.4l-42.6-110.1c-3.8-2.8-8.5-2.3-11.2,1.6l-42.5,108.6h-25.8l49.3-123.5c9.9-16.4,41.2-16.6,50.9.3l47.2,123.2Z"/>
    <path class="st0" d="M459.6,201.7h-25.8l-40.9-108.5c-2.2-4.2-7.6-4.3-11.2-1.6l-43.8,110.1h-25.8l49.3-123.5c9.6-16.5,41.4-16.4,50.9.3l47.2,123.2Z"/>
    <polygon class="st0" points="472 67.3 509.1 123.7 516.6 113.5 546.5 67.3 573.9 67.3 520.7 142.7 520.7 200.3 497.4 200.3 497.4 142.7 444.2 67.3 472 67.3"/>
    <path class="st0" d="M217.2,67.3v91.5c0,3.8,4.5,10.9,7.7,13.3,2.4,1.8,10.2,4.8,12.9,4.8h58.4v23.4h-60c-21.8,0-42.3-18.5-42.3-40.7v-92.3h23.4Z"/>
  </g>
  <g>
    <path class="st0" d="M121.6,385.5c15.5,2.2,23.4,22.5,11.7,33.4-1.9,1.8-4.4,2.6-5.9,4.5,18.2,5.3,18.1,31.1.3,37.7-1.1.4-5.5,1.9-6.2,1.9h-35.6v-77.5c11,1.1,24.9-1.5,35.6,0ZM120.7,391.8c-8.2-1.4-19.8,1-28.4,0v27.5l1.4,1.4h21.6c.4,0,6.1-1.1,6.8-1.3,14.6-4.4,12.1-25.2-1.4-27.5ZM92.3,456.7h28.4c.7,0,5.5-2,6.5-2.5,8.4-4.8,9.4-19,1.5-24.4-2.4-1.6-9.8-3.7-12.5-3.7h-22.5l-1.4,1.4v29.3Z"/>
    <path class="st0" d="M1352.7,407.1l-6.4-.4c-1.1-.8-.8-4-1.5-5.7-7.1-17-44.6-14.2-39.7,7.2,3.3,14.3,42,10.3,47.6,28.1,11.2,35.5-56.7,38-55.9,3.2h6.2c2.1,15.9,16.1,19.9,30.2,17.9,12.1-1.6,19.9-16.1,9-24.1-11.5-8.4-37.2-6.3-42.9-21.9-12.3-33.3,54.1-38.7,53.4-4.3Z"/>
    <path class="st0" d="M1033.7,385.6l31.7,77.4h-7.1c0-.1-8.9-19.7-8.9-19.7l-40,.4-7.2,19.2h-7.1c0,0,31.4-76.8,31.4-76.8l7.2-.4ZM1047.3,436.8l-18-41.4-16.2,41.4h34.2Z"/>
    <path class="st0" d="M1182.3,385.6l31.6,77.4-7.7-.9-7.6-18.4-40-.6-8.2,19-7.7.9,31.6-76c1.6-2.4,5.4-1.4,7.9-1.3ZM1196,436.8l-17.6-41.4-16.7,41.4h34.2Z"/>
    <path class="st0" d="M524.7,385.5c0,2.2.7,4.8-1.4,6.3h-36.9l-1.4,1.4v26.1l1.4,1.4h35.6v5.4h-35.6l-1.4,1.4v27.9l1.4,1.4h39.2v6.3h-46.8v-77.5h45.9Z"/>
    <path class="st0" d="M856.2,385.6l26.7,67.5,26.7-67.5h7.1c0,0-31.2,77.3-31.2,77.3-2.2.2-5.2.9-6.6-1.3l-29.8-76.1h7.1Z"/>
    <polygon class="st0" points="252.6 433.7 223.8 385.5 231.8 385.6 255.4 426.9 280.8 385.7 288.7 385.5 260.1 433.1 259.7 461.5 258.4 462.8 252.6 463 252.6 433.7"/>
    <polygon class="st0" points="625.6 385.5 625.6 456.7 665.3 456.7 665.3 463 618.4 463 618.4 385.5 625.6 385.5"/>
    <rect class="st0" x="753.6" y="385.5" width="7.2" height="77.5"/>
  </g>
  <rect class="st0" x="41" y="306.8" width="1357.9" height="2.5"/>
</svg>