<svg width="29" height="29" viewBox="0 0 29 29" fill="none" xmlns="http://www.w3.org/2000/svg">
<path d="M1.80748 28.5892C1.39998 28.5892 1.05234 28.4454 0.764563 28.1579C0.477063 27.8704 0.333313 27.5228 0.333313 27.115V8.45044C0.333313 8.04266 0.477063 7.69502 0.764563 7.40752C1.05234 7.12002 1.39998 6.97628 1.80748 6.97628H7.07456V1.73044C7.07456 1.32266 7.21567 0.975025 7.4979 0.687525C7.77984 0.399748 8.13026 0.255859 8.54915 0.255859H20.4721C20.8798 0.255859 21.2276 0.399748 21.5154 0.687525C21.8029 0.975025 21.9466 1.32266 21.9466 1.73044V13.7175H27.1925C27.6 13.7175 27.9476 13.8613 28.2354 14.1488C28.5229 14.4366 28.6666 14.7843 28.6666 15.1921V27.115C28.6666 27.5228 28.5229 27.8704 28.2354 28.1579C27.9476 28.4454 27.6 28.5892 27.1925 28.5892H17.1687V21.8479H11.8312V28.5892H1.80748ZM1.74373 27.1792H7.07456V21.8479H1.74373V27.1792ZM1.74373 20.4375H7.07456V15.1279H1.74373V20.4375ZM1.74373 13.7175H7.07456V8.38628H1.74373V13.7175ZM8.48498 20.4375H13.795V15.1279H8.48498V20.4375ZM8.48498 13.7175H13.795V8.38628H8.48498V13.7175ZM8.48498 6.97628H13.795V1.66628H8.48498V6.97628ZM15.205 20.4375H20.5362V15.1279H15.205V20.4375ZM15.205 13.7175H20.5362V8.38628H15.205V13.7175ZM15.205 6.97628H20.5362V1.66628H15.205V6.97628ZM21.9466 27.1792H27.2562V21.8479H21.9466V27.1792ZM21.9466 20.4375H27.2562V15.1279H21.9466V20.4375Z" fill="#654A47"/>
</svg>
