<svg width="16" height="16" viewBox="0 0 16 16" fill="none" xmlns="http://www.w3.org/2000/svg">
<path d="M3.825 6.99989L15 6.99989C15.2833 6.99989 15.5208 7.09572 15.7125 7.28739C15.9042 7.47906 16 7.71656 16 7.99989C16 8.28322 15.9042 8.52072 15.7125 8.71239C15.5208 8.90406 15.2833 8.99989 15 8.99989L3.825 8.99989L8.725 13.8999C8.925 14.0999 9.02083 14.3332 9.0125 14.5999C9.00417 14.8666 8.9 15.0999 8.7 15.2999C8.5 15.4832 8.26667 15.5791 8 15.5874C7.73333 15.5957 7.5 15.4999 7.3 15.2999L0.7 8.69989C0.599999 8.59989 0.529167 8.49156 0.4875 8.37489C0.445833 8.25822 0.425 8.13322 0.425 7.99989C0.425 7.86656 0.445833 7.74156 0.4875 7.62489C0.529167 7.50822 0.599999 7.39989 0.7 7.29989L7.3 0.69989C7.48333 0.516557 7.7125 0.42489 7.9875 0.42489C8.2625 0.42489 8.5 0.516557 8.7 0.69989C8.9 0.89989 9 1.13739 9 1.41239C9 1.68739 8.9 1.92489 8.7 2.12489L3.825 6.99989Z" fill="#2C1F1E"/>
</svg>
