<svg width="48" height="48" viewBox="0 0 48 48" fill="none" xmlns="http://www.w3.org/2000/svg">
<path d="M16.2745 42.6534L7.02943 40.9705L5.34663 31.7255L0 24L5.34663 16.2745L7.02948 7.02943L16.2745 5.34663L24 0L31.7255 5.34663L40.9706 7.02948L42.6534 16.2745L48 24L42.6534 31.7255L40.9705 40.9706L31.7255 42.6534L24 48L16.2745 42.6534Z" fill="#0ABF89"/>
<path d="M31.083 6.62305L31.1709 6.68457L31.2773 6.7041L39.7529 8.24609L41.2959 16.7227L41.3154 16.8291L41.377 16.917L46.2783 24L41.377 31.083L41.3154 31.1709L41.2959 31.2773L39.7529 39.7529L31.2773 41.2959L31.1709 41.3154L31.083 41.377L24 46.2783L16.917 41.377L16.8291 41.3154L16.7227 41.2959L8.24609 39.7529L6.7041 31.2773L6.68457 31.1709L6.62305 31.083L1.7207 24L6.62305 16.917L6.68457 16.8291L6.7041 16.7227L8.24609 8.24609L16.7227 6.7041L16.8291 6.68457L16.917 6.62305L24 1.7207L31.083 6.62305Z" fill="#012D25" stroke="#008060"/>
<path d="M24 5.8916C34.0014 5.89172 42.1094 13.9995 42.1094 24.001C42.1093 34.0023 34.0013 42.1102 24 42.1104C13.9986 42.1104 5.89074 34.0024 5.89062 24.001C5.89062 13.9995 13.9985 5.8916 24 5.8916Z" fill="#EBFEF6" stroke="#008060" stroke-width="0.4"/>
<path d="M23.9624 8.2002C32.668 8.2002 39.7258 15.2573 39.7261 23.9629L39.7163 24.5107C39.4897 31.1358 35.176 36.7231 29.2173 38.8291L28.6362 39.0215C27.1589 39.4796 25.5894 39.7266 23.9624 39.7266C15.2568 39.7263 8.19971 32.6685 8.19971 23.9629C8.19995 15.2575 15.257 8.20044 23.9624 8.2002Z" fill="#008060" stroke="#012D25" stroke-width="0.4"/>
<path d="M39.5539 24.5407C39.3232 31.2922 34.7925 36.9526 28.614 38.8677L20.2686 30.5223L15.2876 25.5413C15.1026 25.3563 14.9626 25.1293 14.8967 24.8766C14.7593 24.3411 14.8994 23.7488 15.3187 23.3295C15.9494 22.6987 16.972 22.6987 17.6028 23.3295L20.0919 25.8177C20.0782 26.421 20.5671 26.9236 21.1621 26.93C21.7654 26.9364 22.268 26.4293 22.2543 25.8177L30.3974 17.6747C30.4212 17.6509 30.445 17.628 30.4697 17.606C31.062 17.0824 32.0626 17.0494 32.6219 17.6087L39.5539 24.5407Z" fill="#012D25"/>
<path d="M32.6814 19.9595L22.3147 30.3263C21.9998 30.6412 21.586 30.7996 21.1731 30.7996C20.8563 30.7996 20.5405 30.7071 20.2686 30.5222C20.1844 30.4654 20.1047 30.4004 20.0306 30.3263L15.3187 25.6144C15.2445 25.5402 15.1786 25.4596 15.1219 25.3754C14.6971 24.7465 14.7621 23.886 15.3187 23.3293C15.9494 22.6986 16.972 22.6986 17.6028 23.3293L21.1731 26.8988L30.3973 17.6745C30.8716 17.2003 31.5673 17.0822 32.1514 17.3211C32.3445 17.4008 32.5249 17.518 32.6814 17.6745C32.838 17.8311 32.9561 18.0123 33.0348 18.2046C33.2737 18.7895 33.1556 19.4853 32.6814 19.9595Z" fill="#EBFEF6"/>
</svg>
