<svg width="21" height="25" viewBox="0 0 21 25" fill="none" xmlns="http://www.w3.org/2000/svg">
<path d="M5.05124 24.333C4.70096 24.333 4.4104 24.2176 4.17957 23.9867C3.94874 23.7559 3.83332 23.4653 3.83332 23.1151V12.5276L1.9754 15.4688C1.87651 15.6241 1.73721 15.726 1.55749 15.7746C1.37804 15.8235 1.20457 15.7928 1.03707 15.6826C0.855403 15.5864 0.745819 15.4462 0.708319 15.2617C0.670542 15.077 0.70832 14.8928 0.821653 14.7092L9.46165 0.805054C9.58832 0.618387 9.73999 0.476026 9.91665 0.37797C10.0933 0.279637 10.2878 0.230469 10.5 0.230469C10.7122 0.230469 10.9014 0.279637 11.0675 0.37797C11.2333 0.476026 11.3796 0.618387 11.5062 0.805054L20.2 14.7092C20.2989 14.8928 20.3243 15.0763 20.2762 15.2596C20.2282 15.4432 20.114 15.5827 19.9337 15.678C19.7785 15.7871 19.6075 15.8213 19.4208 15.7805C19.2344 15.7399 19.0917 15.6349 18.9925 15.4655L17.1667 12.5596V23.1151C17.1667 23.4653 17.0512 23.7559 16.8204 23.9867C16.5896 24.2176 16.299 24.333 15.9487 24.333H5.05124ZM5.24374 22.9226H9.34624V19.4613C9.34624 19.1535 9.45679 18.8842 9.6779 18.6534C9.89901 18.4226 10.1748 18.3071 10.5054 18.3071C10.8146 18.3071 11.0832 18.4226 11.3112 18.6534C11.5396 18.8842 11.6537 19.1535 11.6537 19.4613V22.9226H15.7562V10.2838L10.5 1.85422L5.24374 10.2517V22.9226ZM10.4946 14.2046C10.1854 14.2046 9.91679 14.0888 9.68874 13.8571C9.4604 13.6255 9.34624 13.3549 9.34624 13.0455C9.34624 12.7363 9.46207 12.4677 9.69374 12.2396C9.92568 12.0113 10.1962 11.8971 10.5054 11.8971C10.8146 11.8971 11.0832 12.013 11.3112 12.2446C11.5396 12.4766 11.6537 12.7471 11.6537 13.0563C11.6537 13.3655 11.5379 13.6342 11.3062 13.8626C11.0743 14.0906 10.8037 14.2046 10.4946 14.2046Z" fill="#654A47"/>
</svg>
