<svg width="17" height="18" viewBox="0 0 17 18" fill="none" xmlns="http://www.w3.org/2000/svg">
<path d="M12.1667 14.8327H10.5C10.2639 14.8327 10.066 14.7528 9.90625 14.5931C9.74653 14.4334 9.66667 14.2355 9.66667 13.9993C9.66667 13.7632 9.74653 13.5653 9.90625 13.4056C10.066 13.2459 10.2639 13.166 10.5 13.166H12.1667V11.4993C12.1667 11.2632 12.2465 11.0653 12.4062 10.9056C12.566 10.7459 12.7639 10.666 13 10.666C13.2361 10.666 13.434 10.7459 13.5938 10.9056C13.7535 11.0653 13.8333 11.2632 13.8333 11.4993V13.166H15.5C15.7361 13.166 15.934 13.2459 16.0937 13.4056C16.2535 13.5653 16.3333 13.7632 16.3333 13.9993C16.3333 14.2355 16.2535 14.4334 16.0937 14.5931C15.934 14.7528 15.7361 14.8327 15.5 14.8327H13.8333V16.4993C13.8333 16.7355 13.7535 16.9334 13.5938 17.0931C13.434 17.2528 13.2361 17.3327 13 17.3327C12.7639 17.3327 12.566 17.2528 12.4062 17.0931C12.2465 16.9334 12.1667 16.7355 12.1667 16.4993V14.8327ZM2.16667 15.666C1.70833 15.666 1.31597 15.5028 0.989583 15.1764C0.663194 14.85 0.5 14.4577 0.5 13.9993V3.99935C0.5 3.54102 0.663194 3.14865 0.989583 2.82227C1.31597 2.49588 1.70833 2.33268 2.16667 2.33268H3V1.49935C3 1.26324 3.07986 1.06532 3.23958 0.905599C3.39931 0.745877 3.59722 0.666016 3.83333 0.666016C4.06944 0.666016 4.26736 0.745877 4.42708 0.905599C4.58681 1.06532 4.66667 1.26324 4.66667 1.49935V2.33268H9.66667V1.49935C9.66667 1.26324 9.74653 1.06532 9.90625 0.905599C10.066 0.745877 10.2639 0.666016 10.5 0.666016C10.7361 0.666016 10.934 0.745877 11.0938 0.905599C11.2535 1.06532 11.3333 1.26324 11.3333 1.49935V2.33268H12.1667C12.625 2.33268 13.0174 2.49588 13.3438 2.82227C13.6701 3.14865 13.8333 3.54102 13.8333 3.99935V8.16602C13.8333 8.40213 13.7535 8.60004 13.5938 8.75977C13.434 8.91949 13.2361 8.99935 13 8.99935C12.7639 8.99935 12.566 8.91949 12.4062 8.75977C12.2465 8.60004 12.1667 8.40213 12.1667 8.16602V7.33268H2.16667V13.9993H7.16667C7.40278 13.9993 7.60069 14.0792 7.76042 14.2389C7.92014 14.3987 8 14.5966 8 14.8327C8 15.0688 7.92014 15.2667 7.76042 15.4264C7.60069 15.5862 7.40278 15.666 7.16667 15.666H2.16667ZM2.16667 5.66602H12.1667V3.99935H2.16667V5.66602Z" fill="#008060"/>
</svg>
