<svg width="15" height="17" viewBox="0 0 15 17" fill="none" xmlns="http://www.w3.org/2000/svg">
<path d="M3.41667 3.49996C2.95833 3.49996 2.56597 3.33676 2.23958 3.01038C1.91319 2.68399 1.75 2.29163 1.75 1.83329C1.75 1.37496 1.91319 0.982598 2.23958 0.656209C2.56597 0.32982 2.95833 0.166626 3.41667 0.166626C3.875 0.166626 4.26736 0.32982 4.59375 0.656209C4.92014 0.982598 5.08333 1.37496 5.08333 1.83329C5.08333 2.29163 4.92014 2.68399 4.59375 3.01038C4.26736 3.33676 3.875 3.49996 3.41667 3.49996ZM12.1667 7.66663C11.8194 7.66663 11.5243 7.5451 11.2813 7.30204C11.0382 7.05899 10.9167 6.76385 10.9167 6.41663C10.9167 6.0694 11.0382 5.77426 11.2813 5.53121C11.5243 5.28815 11.8194 5.16663 12.1667 5.16663C12.5139 5.16663 12.809 5.28815 13.0521 5.53121C13.2951 5.77426 13.4167 6.0694 13.4167 6.41663C13.4167 6.76385 13.2951 7.05899 13.0521 7.30204C12.809 7.5451 12.5139 7.66663 12.1667 7.66663ZM1.75 16V11H1.33333C1.09722 11 0.899306 10.9201 0.739583 10.7604C0.579861 10.6007 0.5 10.4027 0.5 10.1666V5.99996C0.5 5.54163 0.663194 5.14926 0.989583 4.82288C1.31597 4.49649 1.70833 4.33329 2.16667 4.33329H4.66667C4.97222 4.33329 5.25 4.40621 5.5 4.55204C5.75 4.69788 5.95139 4.90274 6.10417 5.16663L9.08333 10.3125L9.9375 9.04163C10.0486 8.87496 10.1979 8.74302 10.3854 8.64579C10.5729 8.54857 10.7708 8.49996 10.9792 8.49996H13.4167C13.7639 8.49996 14.059 8.62149 14.3021 8.86454C14.5451 9.1076 14.6667 9.40274 14.6667 9.74996V11.8333C14.6667 12.0555 14.566 12.2118 14.3646 12.302C14.1632 12.3923 13.9861 12.5138 13.8333 12.6666V16C13.8333 16.2361 13.7535 16.434 13.5938 16.5937C13.434 16.7534 13.2361 16.8333 13 16.8333H11.3333C11.0972 16.8333 10.8993 16.7534 10.7396 16.5937C10.5799 16.434 10.5 16.2361 10.5 16V10.9166L10.0833 11.5C10.0139 11.6111 9.92014 11.6944 9.80208 11.75C9.68403 11.8055 9.5625 11.8333 9.4375 11.8333H8.47917C8.32639 11.8333 8.19097 11.7986 8.07292 11.7291C7.95486 11.6597 7.86111 11.5625 7.79167 11.4375L5.91667 8.16663V16C5.91667 16.2361 5.83681 16.434 5.67708 16.5937C5.51736 16.7534 5.31944 16.8333 5.08333 16.8333H2.58333C2.34722 16.8333 2.14931 16.7534 1.98958 16.5937C1.82986 16.434 1.75 16.2361 1.75 16Z" fill="currentColor"/>
</svg>
