<svg width="18" height="18" viewBox="0 0 18 18" fill="none" xmlns="http://www.w3.org/2000/svg">
<path d="M4.5 16.5V3C4.5 2.7975 4.5 2.5875 4.5525 2.385C4.59841 2.18297 4.70005 1.99786 4.84588 1.8507C4.99171 1.70355 5.17589 1.60023 5.3775 1.5525C5.595 1.5 6.5475 1.5 6.75 1.5H12C12.2025 1.5 12.4125 1.5 12.615 1.5525C12.817 1.59841 13.0021 1.70005 13.1493 1.84588C13.2965 1.99171 13.3998 2.17589 13.4475 2.3775C13.5 2.5875 13.5 2.7975 13.5 3V16.5H4.5Z" stroke="white" stroke-opacity="0.85" stroke-linecap="round" stroke-linejoin="round"/>
<path d="M1.50167 10.5V15C1.50167 15.825 2.17667 16.5 3.00167 16.5H4.50167V9H3.00167C2.79917 9 2.58917 9 2.38667 9.0525C2.18417 9.105 1.99667 9.2025 1.84667 9.3525C1.70417 9.495 1.60667 9.6825 1.55417 9.885C1.51183 10.0871 1.4942 10.2936 1.50167 10.5Z" stroke="white" stroke-opacity="0.85" stroke-linecap="round" stroke-linejoin="round"/>
<path d="M15.615 6.80417C15.4129 6.76183 15.2064 6.7442 15 6.75167H13.5V16.5017H15C15.3978 16.5017 15.7794 16.3436 16.0607 16.0623C16.342 15.781 16.5 15.3995 16.5 15.0017V8.25167C16.5 8.04167 16.5 7.83917 16.4475 7.63667C16.395 7.43417 16.2975 7.24667 16.1475 7.09667C16.005 6.95417 15.8175 6.85667 15.615 6.80417Z" stroke="white" stroke-opacity="0.85" stroke-linecap="round" stroke-linejoin="round"/>
<path d="M7.5 4.5H10.5" stroke="white" stroke-opacity="0.85" stroke-linecap="round" stroke-linejoin="round"/>
<path d="M7.5 7.5H10.5" stroke="white" stroke-opacity="0.85" stroke-linecap="round" stroke-linejoin="round"/>
<path d="M7.5 10.5H10.5" stroke="white" stroke-linecap="round" stroke-linejoin="round"/>
<path d="M7.5 13.5H10.5" stroke="white" stroke-opacity="0.85" stroke-linecap="round" stroke-linejoin="round"/>
</svg>