<svg width="33" height="31" viewBox="0 0 33 31" fill="none" xmlns="http://www.w3.org/2000/svg">
<path d="M4.83332 27.8979V14.7559L2.0129 16.9554C1.8554 17.0824 1.68568 17.1288 1.50373 17.0946C1.32179 17.0604 1.16735 16.9642 1.0404 16.8059C0.913734 16.6478 0.863873 16.4795 0.890817 16.3009C0.917484 16.122 1.00901 15.9627 1.1654 15.8229L4.83332 13.0004V9.43628C4.83332 9.23544 4.9011 9.06767 5.03665 8.93294C5.17221 8.7985 5.34123 8.73128 5.54373 8.73128C5.74596 8.73128 5.91318 8.7985 6.0454 8.93294C6.17762 9.06767 6.24373 9.23544 6.24373 9.43628V11.8904L15.0437 5.21503C15.4985 4.89947 15.9904 4.74169 16.5196 4.74169C17.0485 4.74169 17.5273 4.89947 17.9562 5.21503L31.8408 15.8509C32.0028 15.9706 32.0947 16.1213 32.1167 16.3029C32.1386 16.4843 32.0862 16.6611 31.9596 16.8334C31.8326 16.9753 31.6812 17.0624 31.5054 17.0946C31.3296 17.1266 31.16 17.0792 30.9967 16.9525L28.1667 14.7559V27.8979C28.1667 28.5621 27.9267 29.1341 27.4467 29.6138C26.9669 30.0938 26.395 30.3338 25.7308 30.3338H7.26915C6.60498 30.3338 6.03304 30.0938 5.55332 29.6138C5.07332 29.1341 4.83332 28.5621 4.83332 27.8979ZM7.26915 28.9234H14.3204V23.1542C14.3204 22.5475 14.5325 22.0327 14.9567 21.6096C15.3808 21.1866 15.8971 20.975 16.5054 20.975C17.1137 20.975 17.6282 21.1866 18.0487 21.6096C18.4693 22.0327 18.6796 22.5475 18.6796 23.1542V28.9234H25.7308C26.03 28.9234 26.2757 28.8272 26.4679 28.635C26.6601 28.4428 26.7562 28.1971 26.7562 27.8979V13.6992L17.1092 6.35211C16.938 6.20239 16.735 6.12753 16.5 6.12753C16.265 6.12753 16.0619 6.20239 15.8908 6.35211L6.24373 13.6992V27.8979C6.24373 28.1971 6.33985 28.4428 6.53207 28.635C6.72429 28.8272 6.96998 28.9234 7.26915 28.9234ZM7.26915 28.9234H26.7562H6.24373H7.26915ZM5.53415 6.61586C5.34248 6.61586 5.18096 6.54711 5.04957 6.40961C4.91818 6.27211 4.86429 6.11503 4.8879 5.93836C5.02818 5.09725 5.43998 4.41225 6.12332 3.88336C6.80665 3.35447 7.57318 3.09003 8.4229 3.09003C8.90762 3.09003 9.34887 2.95322 9.74665 2.67961C10.1447 2.40572 10.3951 2.04225 10.4979 1.58919C10.5512 1.42447 10.6458 1.28086 10.7817 1.15836C10.9172 1.03586 11.0737 0.974609 11.2512 0.974609C11.4498 0.974609 11.6232 1.04877 11.7712 1.19711C11.9196 1.34516 11.9819 1.51822 11.9583 1.71628C11.7925 2.55016 11.3694 3.22266 10.6892 3.73377C10.0089 4.24489 9.25346 4.50044 8.4229 4.50044C7.94068 4.50044 7.50054 4.62502 7.10248 4.87419C6.70443 5.12364 6.45304 5.46739 6.34832 5.90544C6.2736 6.09127 6.16846 6.25614 6.0329 6.40003C5.89735 6.54392 5.7311 6.61586 5.53415 6.61586Z" fill="#654A47"/>
</svg>
