<svg width="170" height="80" viewBox="0 0 170 80" fill="none" xmlns="http://www.w3.org/2000/svg">
<path d="M147.151 31.5888C147.384 35.8202 150.107 39.321 153.82 40.7551L154.786 58.3346C154.913 60.6367 153.151 62.6038 150.849 62.7305L32.3054 69.2503C30.0033 69.3769 28.0361 67.6149 27.9095 65.3127L26.9427 47.7333C30.4758 45.9007 32.7986 42.1223 32.5659 37.891C32.3333 33.6618 29.61 30.1588 25.8973 28.7268L24.9303 11.1452C24.8038 8.84523 26.5658 6.87596 28.8679 6.74935L147.411 0.229508C149.714 0.102891 151.681 1.86705 151.807 4.16707L152.774 21.7486C149.241 23.5791 146.918 27.3596 147.151 31.5888Z" fill="#012D25"/>
<path d="M144.383 34.7389C144.383 38.7658 146.784 42.2296 150.232 43.784V60.5142C150.232 62.7052 148.458 64.4797 146.267 64.4797H33.4498C31.2589 64.4797 29.4844 62.7052 29.4844 60.5142V43.784C32.9323 42.2296 35.3334 38.7658 35.3334 34.7389C35.3334 30.714 32.9323 27.2482 29.4844 25.6957V8.96349C29.4844 6.77458 31.2589 4.99805 33.4498 4.99805H146.267C148.458 4.99805 150.232 6.77458 150.232 8.96349V25.6957C146.784 27.2482 144.383 30.714 144.383 34.7389Z" fill="#008060"/>
<path d="M33.4498 64.4797L70.1332 64.4797V4.99805L33.4498 4.99805C31.2589 4.99805 29.4844 6.77459 29.4844 8.96349V25.6957C32.9323 27.2482 35.3334 30.714 35.3334 34.7389C35.3334 38.7658 32.9323 42.2296 29.4844 43.784V60.5142C29.4844 62.7051 31.2589 64.4797 33.4498 64.4797Z" fill="#03624A"/>
<path d="M150.219 52.9933V60.5098C150.219 62.7007 148.444 64.4752 146.253 64.4752H112.612L97.0957 48.9585L108.681 33.5785L118.087 20.8613L150.219 52.9933Z" fill="#03624A"/>
<path d="M92.6303 26.9544C92.6303 24.9251 93.2177 23.3365 94.3926 22.1883C95.5941 21.0402 97.1294 20.4661 98.9984 20.4661C100.867 20.4661 102.389 21.0402 103.564 22.1883C104.766 23.3365 105.367 24.9251 105.367 26.9544C105.367 29.0103 104.766 30.6124 103.564 31.7605C102.389 32.9086 100.867 33.4827 98.9984 33.4827C97.1294 33.4827 95.5941 32.9086 94.3926 31.7605C93.2177 30.6124 92.6303 29.0103 92.6303 26.9544ZM118.343 20.9467L102.603 48.9824H97.1561L112.856 20.9467H118.343ZM98.9584 23.8304C97.4898 23.8304 96.7556 24.8717 96.7556 26.9544C96.7556 29.0637 97.4898 30.1184 98.9584 30.1184C99.6793 30.1184 100.24 29.8648 100.641 29.3574C101.041 28.8234 101.241 28.0224 101.241 26.9544C101.241 24.8717 100.48 23.8304 98.9584 23.8304ZM110.213 42.9347C110.213 40.8788 110.8 39.2901 111.975 38.1687C113.176 37.0205 114.712 36.4465 116.581 36.4465C118.45 36.4465 119.958 37.0205 121.107 38.1687C122.281 39.2901 122.869 40.8788 122.869 42.9347C122.869 44.9907 122.281 46.5927 121.107 47.7408C119.958 48.889 118.45 49.463 116.581 49.463C114.685 49.463 113.15 48.889 111.975 47.7408C110.8 46.5927 110.213 44.9907 110.213 42.9347ZM116.541 39.8108C115.019 39.8108 114.258 40.8521 114.258 42.9347C114.258 45.0441 115.019 46.0988 116.541 46.0988C118.036 46.0988 118.784 45.0441 118.784 42.9347C118.784 40.8521 118.036 39.8108 116.541 39.8108Z" fill="#0ABF89"/>
<path d="M150.232 25.6937V8.96349C150.232 6.7726 148.458 4.99805 146.267 4.99805H33.4498C31.2589 4.99805 29.4844 6.7726 29.4844 8.96349V25.6937C32.9323 27.2462 35.3334 30.712 35.3334 34.7389C35.3334 38.7638 32.9323 42.2296 29.4844 43.7821V60.5142C29.4844 62.7032 31.2589 64.4797 33.4498 64.4797H146.267C148.458 64.4797 150.232 62.7032 150.232 60.5142V43.7821C146.784 42.2296 144.383 38.7638 144.383 34.7389C144.383 30.712 146.784 27.2462 150.232 25.6937ZM141.607 34.7389C141.607 39.0969 143.854 43.1159 147.456 45.4258V60.5142C147.456 61.1705 146.923 61.7039 146.267 61.7039H33.4498C32.7935 61.7039 32.2602 61.1705 32.2602 60.5142V45.4258C35.8628 43.1159 38.1092 39.0969 38.1092 34.7389C38.1092 30.3808 35.8628 26.3599 32.2602 24.05V8.96349C32.2602 8.30722 32.7935 7.77386 33.4498 7.77386H146.267C146.923 7.77386 147.456 8.30722 147.456 8.96349V24.05C143.854 26.3599 141.607 30.3808 141.607 34.7389Z" fill="#0ABF89"/>
<path d="M71.1223 7.88032V4.1875H69.541V7.88032C69.541 8.14505 69.8454 8.35965 70.2209 8.35965H70.4424C70.8179 8.35965 71.1223 8.14505 71.1223 7.88032Z" fill="#F6F6F7"/>
<path d="M70.4424 11.6562H70.2209C69.8454 11.6562 69.541 11.8709 69.541 12.1356V16.1233C69.541 16.388 69.8454 16.6026 70.2209 16.6026H70.4424C70.8179 16.6026 71.1223 16.388 71.1223 16.1233V12.1356C71.1223 11.8709 70.8179 11.6562 70.4424 11.6562Z" fill="#F6F6F7"/>
<path d="M70.4424 19.9004H70.2209C69.8454 19.9004 69.541 20.115 69.541 20.3797V24.3674C69.541 24.6322 69.8454 24.8468 70.2209 24.8468H70.4424C70.8179 24.8468 71.1223 24.6322 71.1223 24.3674V20.3797C71.1223 20.115 70.8179 19.9004 70.4424 19.9004Z" fill="#F6F6F7"/>
<path d="M70.4424 28.1445H70.2209C69.8454 28.1445 69.541 28.3591 69.541 28.6239V32.6116C69.541 32.8763 69.8454 33.0909 70.2209 33.0909H70.4424C70.8179 33.0909 71.1223 32.8763 71.1223 32.6116V28.6239C71.1223 28.3591 70.8179 28.1445 70.4424 28.1445Z" fill="#F6F6F7"/>
<path d="M70.4424 36.3887H70.2209C69.8454 36.3887 69.541 36.6033 69.541 36.868V40.8557C69.541 41.1204 69.8454 41.335 70.2209 41.335H70.4424C70.8179 41.335 71.1223 41.1204 71.1223 40.8557V36.868C71.1223 36.6033 70.8179 36.3887 70.4424 36.3887Z" fill="#F6F6F7"/>
<path d="M70.4424 44.6328H70.2209C69.8454 44.6328 69.541 44.8474 69.541 45.1121V49.0998C69.541 49.3646 69.8454 49.5792 70.2209 49.5792H70.4424C70.8179 49.5792 71.1223 49.3646 71.1223 49.0998V45.1121C71.1223 44.8474 70.8179 44.6328 70.4424 44.6328Z" fill="#F6F6F7"/>
<path d="M70.4424 52.877H70.2209C69.8454 52.877 69.541 53.0916 69.541 53.3563V57.344C69.541 57.6087 69.8454 57.8233 70.2209 57.8233H70.4424C70.8179 57.8233 71.1223 57.6087 71.1223 57.344V53.3563C71.1223 53.0916 70.8179 52.877 70.4424 52.877Z" fill="#F6F6F7"/>
<path d="M70.4424 61.1211H70.2209C69.8454 61.1211 69.541 61.3357 69.541 61.6004V64.4849H71.1223V61.6004C71.1223 61.3357 70.8179 61.1211 70.4424 61.1211Z" fill="#F6F6F7"/>
<circle cx="37.7186" cy="56.2811" r="22.928" fill="#E7003A" stroke="#FFDAE3" stroke-width="1.58124"/>
<mask id="mask0_2247_25275" style="mask-type:alpha" maskUnits="userSpaceOnUse" x="21" y="41" width="33" height="32">
<rect x="21.9062" y="41.1133" width="31.6249" height="31.6249" fill="#D9D9D9"/>
</mask>
<g mask="url(#mask0_2247_25275)">
<path d="M45.0967 47.8682C45.5642 47.8682 45.9759 48.0237 46.2988 48.3467L46.4121 48.4717C46.6581 48.7732 46.7764 49.1398 46.7764 49.5488C46.7763 49.9576 46.658 50.3236 46.4121 50.625L46.2988 50.75L40.1211 56.9268L46.2988 63.1045L46.4121 63.2295C46.6583 63.531 46.7764 63.8975 46.7764 64.3066C46.7764 64.7157 46.6582 65.0823 46.4121 65.3838L46.2988 65.5088C45.9759 65.8317 45.5642 65.9863 45.0967 65.9863C44.6876 65.9863 44.3211 65.8682 44.0195 65.6221L43.8945 65.5088L37.7168 59.3311L31.54 65.5088C31.2172 65.8315 30.8061 65.9862 30.3389 65.9863C29.9299 65.9863 29.5632 65.8681 29.2617 65.6221L29.1367 65.5088C28.8138 65.1858 28.6582 64.7741 28.6582 64.3066C28.6582 63.8392 28.8138 63.4274 29.1367 63.1045L35.3135 56.9268L29.1367 50.75C28.8139 50.4271 28.6583 50.0161 28.6582 49.5488C28.6582 49.0813 28.8138 48.6696 29.1367 48.3467L29.2617 48.2334C29.5632 47.9873 29.9298 47.8682 30.3389 47.8682C30.8061 47.8683 31.2172 48.0239 31.54 48.3467L37.7168 54.5234L43.8945 48.3467L44.0195 48.2334C44.3211 47.9871 44.6875 47.8682 45.0967 47.8682Z" fill="white" stroke="white" stroke-width="0.790622"/>
</g>
</svg>
