<svg width="170" height="80" viewBox="0 0 170 80" fill="none" xmlns="http://www.w3.org/2000/svg">
<path d="M144.801 31.5888C145.034 35.8202 147.757 39.321 151.47 40.7551L152.437 58.3346C152.563 60.6367 150.801 62.6038 148.499 62.7305L29.9558 69.2503C27.6537 69.3769 25.6865 67.6149 25.5599 65.3127L24.5931 47.7333C28.1262 45.9007 30.449 42.1223 30.2163 37.891C29.9836 33.6618 27.2604 30.1588 23.5477 28.7268L22.5807 11.1452C22.4542 8.84523 24.2162 6.87596 26.5183 6.74935L145.062 0.229508C147.364 0.102891 149.331 1.86705 149.458 4.16707L150.425 21.7486C146.891 23.5791 144.569 27.3596 144.801 31.5888Z" fill="#012D25"/>
<path d="M142.033 34.7389C142.033 38.7658 144.435 42.2296 147.882 43.784V60.5142C147.882 62.7052 146.108 64.4797 143.917 64.4797H31.1002C28.9093 64.4797 27.1348 62.7052 27.1348 60.5142V43.784C30.5827 42.2296 32.9838 38.7658 32.9838 34.7389C32.9838 30.714 30.5827 27.2482 27.1348 25.6957V8.96349C27.1348 6.77458 28.9093 4.99805 31.1002 4.99805H143.917C146.108 4.99805 147.882 6.77458 147.882 8.96349V25.6957C144.435 27.2482 142.033 30.714 142.033 34.7389Z" fill="#008060"/>
<path d="M31.1002 64.4797L67.7836 64.4797V4.99805L31.1002 4.99805C28.9093 4.99805 27.1348 6.77459 27.1348 8.96349V25.6957C30.5827 27.2482 32.9838 30.714 32.9838 34.7389C32.9838 38.7658 30.5827 42.2296 27.1348 43.784V60.5142C27.1348 62.7051 28.9093 64.4797 31.1002 64.4797Z" fill="#03624A"/>
<path d="M147.869 52.9933V60.5098C147.869 62.7007 146.095 64.4752 143.904 64.4752H110.263L94.7461 48.9585L106.331 33.5785L115.737 20.8613L147.869 52.9933Z" fill="#012D25"/>
<path d="M90.2807 26.9544C90.2807 24.9251 90.8681 23.3365 92.043 22.1883C93.2445 21.0402 94.7798 20.4661 96.6488 20.4661C98.5179 20.4661 100.04 21.0402 101.215 22.1883C102.416 23.3365 103.017 24.9251 103.017 26.9544C103.017 29.0103 102.416 30.6124 101.215 31.7605C100.04 32.9086 98.5179 33.4827 96.6488 33.4827C94.7798 33.4827 93.2445 32.9086 92.043 31.7605C90.8681 30.6124 90.2807 29.0103 90.2807 26.9544ZM115.993 20.9467L100.253 48.9824H94.8065L110.506 20.9467H115.993ZM96.6088 23.8304C95.1402 23.8304 94.406 24.8717 94.406 26.9544C94.406 29.0637 95.1402 30.1184 96.6088 30.1184C97.3297 30.1184 97.8904 29.8648 98.2909 29.3574C98.6914 28.8234 98.8917 28.0224 98.8917 26.9544C98.8917 24.8717 98.1307 23.8304 96.6088 23.8304ZM107.863 42.9347C107.863 40.8788 108.451 39.2901 109.625 38.1687C110.827 37.0205 112.362 36.4465 114.231 36.4465C116.1 36.4465 117.609 37.0205 118.757 38.1687C119.932 39.2901 120.519 40.8788 120.519 42.9347C120.519 44.9907 119.932 46.5927 118.757 47.7408C117.609 48.889 116.1 49.463 114.231 49.463C112.335 49.463 110.8 48.889 109.625 47.7408C108.451 46.5927 107.863 44.9907 107.863 42.9347ZM114.191 39.8108C112.669 39.8108 111.908 40.8521 111.908 42.9347C111.908 45.0441 112.669 46.0988 114.191 46.0988C115.686 46.0988 116.434 45.0441 116.434 42.9347C116.434 40.8521 115.686 39.8108 114.191 39.8108Z" fill="#2FD8A0"/>
<path d="M147.882 25.6937V8.96349C147.882 6.7726 146.108 4.99805 143.917 4.99805H31.1002C28.9093 4.99805 27.1348 6.7726 27.1348 8.96349V25.6937C30.5827 27.2462 32.9838 30.712 32.9838 34.7389C32.9838 38.7638 30.5827 42.2296 27.1348 43.7821V60.5142C27.1348 62.7032 28.9093 64.4797 31.1002 64.4797H143.917C146.108 64.4797 147.882 62.7032 147.882 60.5142V43.7821C144.435 42.2296 142.033 38.7638 142.033 34.7389C142.033 30.712 144.435 27.2462 147.882 25.6937ZM139.258 34.7389C139.258 39.0969 141.504 43.1159 145.107 45.4258V60.5142C145.107 61.1705 144.573 61.7039 143.917 61.7039H31.1002C30.4439 61.7039 29.9106 61.1705 29.9106 60.5142V45.4258C33.5132 43.1159 35.7596 39.0969 35.7596 34.7389C35.7596 30.3808 33.5132 26.3599 29.9106 24.05V8.96349C29.9106 8.30722 30.4439 7.77386 31.1002 7.77386H143.917C144.573 7.77386 145.107 8.30722 145.107 8.96349V24.05C141.504 26.3599 139.258 30.3808 139.258 34.7389Z" fill="#0ABF89"/>
<path d="M68.7726 7.88032V4.1875H67.1914V7.88032C67.1914 8.14505 67.4958 8.35965 67.8713 8.35965H68.0928C68.4683 8.35965 68.7726 8.14505 68.7726 7.88032Z" fill="#F6F6F7"/>
<path d="M68.0928 11.6562H67.8713C67.4958 11.6562 67.1914 11.8709 67.1914 12.1356V16.1233C67.1914 16.388 67.4958 16.6026 67.8713 16.6026H68.0928C68.4683 16.6026 68.7726 16.388 68.7726 16.1233V12.1356C68.7726 11.8709 68.4683 11.6562 68.0928 11.6562Z" fill="#F6F6F7"/>
<path d="M68.0928 19.9004H67.8713C67.4958 19.9004 67.1914 20.115 67.1914 20.3797V24.3674C67.1914 24.6322 67.4958 24.8468 67.8713 24.8468H68.0928C68.4683 24.8468 68.7726 24.6322 68.7726 24.3674V20.3797C68.7726 20.115 68.4683 19.9004 68.0928 19.9004Z" fill="#F6F6F7"/>
<path d="M68.0928 28.1445H67.8713C67.4958 28.1445 67.1914 28.3591 67.1914 28.6239V32.6116C67.1914 32.8763 67.4958 33.0909 67.8713 33.0909H68.0928C68.4683 33.0909 68.7726 32.8763 68.7726 32.6116V28.6239C68.7726 28.3591 68.4683 28.1445 68.0928 28.1445Z" fill="#F6F6F7"/>
<path d="M68.0928 36.3887H67.8713C67.4958 36.3887 67.1914 36.6033 67.1914 36.868V40.8557C67.1914 41.1204 67.4958 41.335 67.8713 41.335H68.0928C68.4683 41.335 68.7726 41.1204 68.7726 40.8557V36.868C68.7726 36.6033 68.4683 36.3887 68.0928 36.3887Z" fill="#F6F6F7"/>
<path d="M68.0928 44.6328H67.8713C67.4958 44.6328 67.1914 44.8474 67.1914 45.1121V49.0998C67.1914 49.3646 67.4958 49.5792 67.8713 49.5792H68.0928C68.4683 49.5792 68.7726 49.3646 68.7726 49.0998V45.1121C68.7726 44.8474 68.4683 44.6328 68.0928 44.6328Z" fill="#F6F6F7"/>
<path d="M68.0928 52.877H67.8713C67.4958 52.877 67.1914 53.0916 67.1914 53.3563V57.344C67.1914 57.6087 67.4958 57.8233 67.8713 57.8233H68.0928C68.4683 57.8233 68.7726 57.6087 68.7726 57.344V53.3563C68.7726 53.0916 68.4683 52.877 68.0928 52.877Z" fill="#F6F6F7"/>
<path d="M68.0928 61.1211H67.8713C67.4958 61.1211 67.1914 61.3357 67.1914 61.6004V64.4849H68.7726V61.6004C68.7726 61.3357 68.4683 61.1211 68.0928 61.1211Z" fill="#F6F6F7"/>
<circle cx="35.369" cy="56.2811" r="22.928" fill="#EBFEF6" stroke="#0ABF89" stroke-width="1.58124"/>
<path d="M48.2227 50.199L32.8744 65.5473C32.4082 66.0135 31.7955 66.248 31.1843 66.248C30.7153 66.248 30.2477 66.1111 29.8452 65.8373C29.7205 65.7533 29.6025 65.657 29.4928 65.5473L22.5166 58.5712C22.4069 58.4614 22.3093 58.3421 22.2253 58.2174C21.5964 57.2863 21.6926 56.0122 22.5166 55.1882C23.4505 54.2543 24.9645 54.2543 25.8983 55.1882L31.1843 60.4727L44.841 46.816C45.5431 46.1139 46.5731 45.9391 47.4379 46.2928C47.7239 46.4108 47.9909 46.5842 48.2227 46.816C48.4544 47.0478 48.6293 47.3161 48.7458 47.6008C49.0996 48.4669 48.9247 49.4969 48.2227 50.199Z" fill="#008060"/>
<rect x="165.473" y="26.7031" width="6.32497" height="6.32497" rx="1.58124" transform="rotate(45 165.473 26.7031)" fill="#F0CE54"/>
<rect x="4.47266" y="16.7031" width="6.32497" height="6.32497" rx="1.58124" transform="rotate(45 4.47266 16.7031)" fill="#F0CE54"/>
<rect x="11.3789" y="22.6113" width="4.74373" height="4.74373" rx="1.26499" transform="rotate(45 11.3789 22.6113)" fill="#F0CE54"/>
<rect x="158.896" y="23.0742" width="4.74373" height="4.74373" rx="1.26499" transform="rotate(45 158.896 23.0742)" fill="#F0CE54"/>
<rect x="157.779" y="34.1445" width="3.16249" height="3.16249" rx="0.84333" transform="rotate(45 157.779 34.1445)" fill="#F0CE54"/>
<rect x="5.98047" y="30.9805" width="3.16249" height="3.16249" rx="0.84333" transform="rotate(45 5.98047 30.9805)" fill="#F0CE54"/>
</svg>
