<svg width="34" height="34" viewBox="0 0 34 34" fill="none" xmlns="http://www.w3.org/2000/svg">
<path d="M23.0826 5.74445C23.0871 5.74482 23.0905 5.74879 23.0901 5.75328C23.0899 5.75496 23.0903 5.75664 23.0911 5.7581L24.2581 7.76643C25.184 9.35976 26.8643 10.3648 28.7061 10.4268C30.1137 10.5385 31.0881 11.882 30.757 13.2548L30.4976 14.3303C30.2537 15.3416 30.5293 16.408 31.2326 17.1746C32.5621 18.6237 32.2376 20.9262 30.5598 21.952C29.6722 22.4947 29.1128 23.4437 29.0679 24.4832L29.0061 25.9147C28.9505 27.2052 27.8363 28.1924 26.5485 28.0924C26.31 28.0739 26.0758 28.018 25.8546 27.9267L25.6725 27.8516C24.406 27.329 22.9515 27.5869 21.9418 28.513L19.5725 30.6863C19.5723 30.6865 19.5723 30.6866 19.5723 30.6868C19.5723 30.6872 19.5719 30.6875 19.5716 30.6874L18.1542 30.5684C17.4342 30.508 16.8994 29.8754 16.9597 29.1553L17.1306 27.112C17.134 27.0717 17.1694 27.0417 17.2097 27.045C17.2695 27.0498 17.3095 26.9847 17.2782 26.9335L16.7869 26.1301C16.7458 26.063 16.691 26.0055 16.6259 25.9613L12.5011 23.1609C11.9113 22.7605 11.7239 21.9766 12.0688 21.3528C12.3556 20.834 12.2788 20.19 11.878 19.7532L11.176 18.988C9.97482 17.6788 10.2676 15.5988 11.7834 14.672L12.2528 14.385C13.0428 13.902 13.5405 13.0575 13.5803 12.1324C13.6437 10.6582 14.8477 9.49039 16.3231 9.47186L18.3421 9.44651C18.8041 9.44071 19.2477 9.26465 19.588 8.95205C19.9357 8.63254 20.1502 8.19364 20.1887 7.72294L20.2576 6.8782C20.3187 6.12994 20.9747 5.57282 21.723 5.63374L23.0826 5.74445Z" fill="#8B3B21"/>
<path d="M15.3346 3.4434C17.2791 1.65951 20.3684 2.09441 21.7448 4.34579C22.4729 5.5368 23.7462 6.28719 25.1409 6.34725C27.7772 6.46079 29.6542 8.95279 29.0354 11.518C28.7081 12.8751 29.0779 14.306 30.0216 15.3346C31.8055 17.2791 31.3706 20.3684 29.1192 21.7448C27.9282 22.4729 27.1778 23.7462 27.1177 25.1409C27.0042 27.7772 24.5122 29.6542 21.9469 29.0354C20.5899 28.7081 19.159 29.0779 18.1303 30.0216C16.1859 31.8055 13.0966 31.3706 11.7202 29.1192C10.992 27.9282 9.71877 27.1778 8.32411 27.1177C5.68777 27.0042 3.81081 24.5122 4.42951 21.9469C4.75682 20.5899 4.3871 19.159 3.4434 18.1303C1.65951 16.1859 2.09441 13.0966 4.34579 11.7202C5.5368 10.992 6.28719 9.71877 6.34725 8.32411C6.46079 5.68777 8.95279 3.81081 11.518 4.42952C12.8751 4.75682 14.306 4.3871 15.3346 3.4434Z" fill="#DF7730"/>
<path fill-rule="evenodd" clip-rule="evenodd" d="M16.2071 12.6195C16.2071 14.2426 14.9822 15.5583 13.4712 15.5583C11.9602 15.5583 10.7354 14.2426 10.7354 12.6195C10.7354 10.9964 11.9602 9.68066 13.4712 9.68066C14.9822 9.68066 16.2071 10.9964 16.2071 12.6195ZM12.158 12.6195C12.158 13.3986 12.746 14.0301 13.4712 14.0301C14.1965 14.0301 14.7845 13.3986 14.7845 12.6195C14.7845 11.8404 14.1965 11.2089 13.4712 11.2089C12.746 11.2089 12.158 11.8404 12.158 12.6195ZM22.5938 21.1288C22.5938 22.7519 21.3689 24.0676 19.858 24.0676C18.347 24.0676 17.1221 22.7519 17.1221 21.1288C17.1221 19.5057 18.347 18.1899 19.858 18.1899C21.3689 18.1899 22.5938 19.5057 22.5938 21.1288ZM18.5447 21.1288C18.5447 21.9079 19.1327 22.5394 19.858 22.5394C20.5832 22.5394 21.1712 21.9079 21.1712 21.1288C21.1712 20.3497 20.5832 19.7181 19.858 19.7181C19.1327 19.7181 18.5447 20.3497 18.5447 21.1288ZM21.9422 11.3411L10.4922 20.7139L11.5265 22.1718L22.9765 12.7991L21.9422 11.3411Z" fill="white"/>
<path d="M10.4922 20.7139L10.3497 20.5398C10.2582 20.6147 10.2403 20.7476 10.3087 20.8441L10.4922 20.7139ZM21.9422 11.3411L22.1257 11.2109C22.0896 11.1601 22.034 11.1265 21.9722 11.1181C21.9104 11.1098 21.8479 11.1275 21.7997 11.167L21.9422 11.3411ZM11.5265 22.1718L11.343 22.302C11.3791 22.3529 11.4346 22.3865 11.4964 22.3948C11.5582 22.4031 11.6207 22.3854 11.669 22.3459L11.5265 22.1718ZM22.9765 12.7991L23.119 12.9732C23.2105 12.8983 23.2284 12.7653 23.16 12.6689L22.9765 12.7991ZM13.4712 15.5583V15.7833C15.1214 15.7833 16.4321 14.3514 16.4321 12.6195H16.2071H15.9821C15.9821 14.1338 14.8431 15.3333 13.4712 15.3333V15.5583ZM10.7354 12.6195H10.5104C10.5104 14.3514 11.8211 15.7833 13.4712 15.7833V15.5583V15.3333C12.0994 15.3333 10.9604 14.1338 10.9604 12.6195H10.7354ZM13.4712 9.68066V9.45566C11.8211 9.45566 10.5104 10.8876 10.5104 12.6195H10.7354H10.9604C10.9604 11.1053 12.0994 9.90566 13.4712 9.90566V9.68066ZM16.2071 12.6195H16.4321C16.4321 10.8876 15.1214 9.45566 13.4712 9.45566V9.68066V9.90566C14.8431 9.90566 15.9821 11.1053 15.9821 12.6195H16.2071ZM13.4712 14.0301V13.8051C12.8851 13.8051 12.383 13.2898 12.383 12.6195H12.158H11.933C11.933 13.5074 12.6068 14.2551 13.4712 14.2551V14.0301ZM14.7845 12.6195H14.5595C14.5595 13.2898 14.0574 13.8051 13.4712 13.8051V14.0301V14.2551C14.3357 14.2551 15.0095 13.5074 15.0095 12.6195H14.7845ZM13.4712 11.2089V11.4339C14.0574 11.4339 14.5595 11.9493 14.5595 12.6195H14.7845H15.0095C15.0095 11.7316 14.3357 10.9839 13.4712 10.9839V11.2089ZM12.158 12.6195H12.383C12.383 11.9493 12.8851 11.4339 13.4712 11.4339V11.2089V10.9839C12.6068 10.9839 11.933 11.7316 11.933 12.6195H12.158ZM19.858 24.0676V24.2926C21.5081 24.2926 22.8188 22.8607 22.8188 21.1288H22.5938H22.3688C22.3688 22.643 21.2298 23.8426 19.858 23.8426V24.0676ZM17.1221 21.1288H16.8971C16.8971 22.8607 18.2078 24.2926 19.858 24.2926V24.0676V23.8426C18.4861 23.8426 17.3471 22.643 17.3471 21.1288H17.1221ZM19.858 18.1899V17.9649C18.2078 17.9649 16.8971 19.3969 16.8971 21.1288H17.1221H17.3471C17.3471 19.6145 18.4861 18.4149 19.858 18.4149V18.1899ZM22.5938 21.1288H22.8188C22.8188 19.3969 21.5081 17.9649 19.858 17.9649V18.1899V18.4149C21.2298 18.4149 22.3688 19.6145 22.3688 21.1288H22.5938ZM19.858 22.5394V22.3144C19.2718 22.3144 18.7697 21.799 18.7697 21.1288H18.5447H18.3197C18.3197 22.0167 18.9935 22.7644 19.858 22.7644V22.5394ZM21.1712 21.1288H20.9462C20.9462 21.799 20.4441 22.3144 19.858 22.3144V22.5394V22.7644C20.7224 22.7644 21.3962 22.0167 21.3962 21.1288H21.1712ZM19.858 19.7181V19.9431C20.4441 19.9431 20.9462 20.4585 20.9462 21.1288H21.1712H21.3962C21.3962 20.2409 20.7224 19.4931 19.858 19.4931V19.7181ZM18.5447 21.1288H18.7697C18.7697 20.4585 19.2718 19.9431 19.858 19.9431V19.7181V19.4931C18.9935 19.4931 18.3197 20.2409 18.3197 21.1288H18.5447ZM10.4922 20.7139L10.6347 20.888L22.0847 11.5152L21.9422 11.3411L21.7997 11.167L10.3497 20.5398L10.4922 20.7139ZM11.5265 22.1718L11.71 22.0416L10.6757 20.5837L10.4922 20.7139L10.3087 20.8441L11.343 22.302L11.5265 22.1718ZM22.9765 12.7991L22.834 12.625L11.384 21.9977L11.5265 22.1718L11.669 22.3459L23.119 12.9732L22.9765 12.7991ZM21.9422 11.3411L21.7587 11.4713L22.793 12.9293L22.9765 12.7991L23.16 12.6689L22.1257 11.2109L21.9422 11.3411Z" fill="#333234"/>
</svg>
