<svg width="48" height="48" viewBox="0 0 48 48" fill="none" xmlns="http://www.w3.org/2000/svg">
<path d="M24.0003 48C37.2552 48 48.0005 37.2548 48.0005 24C48.0005 10.7452 37.2552 0 24.0003 0C10.7453 0 0 10.7452 0 24C0 37.2548 10.7453 48 24.0003 48Z" fill="#F6E492"/>
<path d="M24.0028 46.3937C36.3741 46.3937 46.403 36.3649 46.403 23.9937C46.403 11.6226 36.3741 1.59375 24.0028 1.59375C11.6315 1.59375 1.60254 11.6226 1.60254 23.9937C1.60254 36.3649 11.6315 46.3937 24.0028 46.3937Z" fill="#FFC841"/>
<path d="M23.9994 7.20079C33.2779 7.20079 40.7996 14.7224 40.7996 24.0008C40.7996 33.2792 33.2779 40.8008 23.9994 40.8008C14.7209 40.8008 7.19922 33.2792 7.19922 24.0008C7.19922 14.7224 14.7209 7.20079 23.9994 7.20079Z" fill="url(#paint0_linear_102_28857)"/>
<path d="M24 39.1267C32.3507 39.1267 39.1202 32.3573 39.1202 24.0067C39.1202 15.6562 32.3507 8.88672 24 8.88672C15.6494 8.88672 8.87988 15.6562 8.87988 24.0067C8.87988 32.3573 15.6494 39.1267 24 39.1267Z" fill="#B97912"/>
<path d="M7.19922 24H8.87924C8.87924 32.3504 15.6489 39.12 23.9994 39.12C32.3499 39.12 39.1196 32.3504 39.1196 24H40.7996C40.7996 33.2784 33.2779 40.8 23.9994 40.8C14.7209 40.8 7.19922 33.2784 7.19922 24Z" fill="url(#paint1_linear_102_28857)"/>
<path d="M48.0005 24C48.0005 37.2544 37.2548 48 24.0003 48C10.7441 48 0 37.2544 0 24H1.60002C1.60002 36.3712 11.629 46.4 24.0003 46.4C36.3716 46.4 46.4005 36.3712 46.4005 24H48.0005Z" fill="url(#paint2_linear_102_28857)"/>
<path d="M40.7996 24C40.7996 33.2784 33.2779 40.8 23.9994 40.8C14.7209 40.8 7.19922 33.2784 7.19922 24H8.87924C8.87924 32.3504 15.6489 39.12 23.9994 39.12C32.3499 39.12 39.1196 32.3504 39.1196 24H40.7996Z" fill="#FFC841"/>
<path d="M40.7996 24C40.7996 33.2784 33.2779 40.8 23.9994 40.8C14.7209 40.8 7.19922 33.2784 7.19922 24H8.87924C8.87924 32.3504 15.6489 39.12 23.9994 39.12C32.3499 39.12 39.1196 32.3504 39.1196 24H40.7996Z" fill="#F6E492"/>
<path d="M21.2362 26.7394C20.9224 25.6353 20.6135 24.5481 20.2901 23.4125C23.1354 22.5935 25.9567 21.7817 28.8187 20.9579C28.244 19.9383 27.4489 19.2546 26.3926 18.8995C24.91 18.4042 23.4037 18.3873 21.9188 18.8632C20.1201 19.4382 19.1525 20.7646 18.81 22.5839C18.5753 23.8329 18.6951 25.0651 19.0926 26.278C19.6842 28.085 20.9799 29.0225 22.7762 29.3389C23.2264 29.4188 23.6911 29.4356 24.1485 29.4356C26.2921 29.4452 28.438 29.4405 30.5815 29.4405H31.0724V32.9027C30.9982 32.917 30.9312 32.9389 30.8641 32.9389C28.2608 32.9219 25.655 32.9823 23.0564 32.8664C18.8196 32.678 15.5816 29.3872 15.2702 25.1279C15.1409 23.3522 15.251 21.6102 15.9839 19.9746C17.3132 17.0102 19.6674 15.4615 22.8312 15.116C24.7449 14.9058 26.6177 15.0919 28.3684 15.9616C30.7683 17.1503 32.1791 19.1241 32.7347 21.7334C32.9335 22.6612 32.4425 23.5188 31.5538 23.7798C28.1769 24.7728 24.7975 25.7465 21.4158 26.7249C21.3775 26.737 21.3344 26.732 21.2362 26.7394Z" fill="white"/>
<path fill-rule="evenodd" clip-rule="evenodd" d="M7.19922 24H8.87924C8.87924 15.6496 15.6489 8.88 23.9994 8.88C32.3499 8.88 39.1196 15.6496 39.1196 24H40.7996C40.7996 14.7216 33.2779 7.2 23.9994 7.2C14.7209 7.2 7.19922 14.7216 7.19922 24Z" fill="#DA9F18"/>
<path fill-rule="evenodd" clip-rule="evenodd" d="M48.0005 24C48.0005 37.2544 37.2548 48 24.0003 48C10.7441 48 0 37.2544 0 24H1.60002C1.60002 36.3712 11.629 46.4 24.0003 46.4C36.3716 46.4 46.4005 36.3712 46.4005 24H48.0005Z" fill="#DA9F18"/>
<defs>
<linearGradient id="paint0_linear_102_28857" x1="7.19922" y1="24.0008" x2="40.7996" y2="24.0008" gradientUnits="userSpaceOnUse">
<stop stop-color="#FFDD9A"/>
<stop offset="1" stop-color="#FCDA83"/>
</linearGradient>
<linearGradient id="paint1_linear_102_28857" x1="12.8005" y1="35.0798" x2="37.6728" y2="21.5749" gradientUnits="userSpaceOnUse">
<stop stop-color="#FFDD9A"/>
<stop offset="1" stop-color="#FCDA83"/>
</linearGradient>
<linearGradient id="paint2_linear_102_28857" x1="8.00168" y1="39.8283" x2="43.5336" y2="20.5354" gradientUnits="userSpaceOnUse">
<stop stop-color="#FFDD9A"/>
<stop offset="1" stop-color="#FCDA83"/>
</linearGradient>
</defs>
</svg>
