<svg width="20" height="20" viewBox="0 0 14 15" fill="none" xmlns="http://www.w3.org/2000/svg">
<path d="M6.99886 0.927734C6.13588 0.927734 5.28134 1.09771 4.48406 1.42797C3.68677 1.75822 2.96235 2.24227 2.35215 2.8525C1.74196 3.46272 1.25795 4.18715 0.927756 4.98443C0.597561 5.78171 0.427655 6.63622 0.427734 7.49916C0.427734 9.24191 1.12003 10.9133 2.35234 12.1457C3.58464 13.378 5.25603 14.0704 6.99886 14.0706C8.74181 14.0706 10.4133 13.3783 11.6458 12.1458C12.8782 10.9135 13.5706 9.24203 13.5706 7.49916C13.5707 6.63617 13.4007 5.78161 13.0705 4.98429C12.7403 4.18698 12.2562 3.46251 11.6459 2.85228C11.0357 2.24206 10.3112 1.75801 9.51387 1.42779C8.71647 1.09758 7.86187 0.927655 6.99886 0.927734ZM7.21413 13.2555H7.10045C7.06658 13.2555 7.03212 13.2555 6.99886 13.2519C5.51036 13.1966 4.10125 12.5665 3.06773 11.4939C2.03423 10.4213 1.45682 8.98983 1.45691 7.50037C1.45682 6.01086 2.0342 4.5793 3.06769 3.50661C4.10118 2.43393 5.5103 1.80365 6.99886 1.74826C7.03212 1.74826 7.06658 1.74463 7.10045 1.74463C7.13431 1.74463 7.17603 1.74463 7.21413 1.74463C8.07895 1.74186 8.93313 1.93494 9.71269 2.30938C9.9643 2.43013 10.2068 2.56896 10.4383 2.72478C10.4764 2.75078 10.5151 2.77678 10.5526 2.80399C10.6645 2.8838 10.7751 2.96785 10.8822 3.05613C10.9892 3.14441 11.092 3.23753 11.1918 3.33125C11.225 3.3633 11.2583 3.39595 11.2903 3.4286C11.8257 3.96253 12.2503 4.59703 12.5396 5.29561C12.8289 5.99418 12.9773 6.74305 12.9762 7.49916C12.9762 8.25553 12.8271 9.00452 12.5375 9.70326C12.2478 10.402 11.8233 11.0368 11.2882 11.5714C10.7531 12.1061 10.1178 12.5299 9.41875 12.8189C8.71974 13.1079 7.97053 13.2562 7.21413 13.2555Z" fill="url(#paint0_linear_5902_140951)"/>
<path d="M12.9709 7.49871C12.9709 9.02541 12.3644 10.4895 11.2848 11.5691C10.2052 12.6486 8.74102 13.2551 7.21425 13.2551H7.10057C7.06671 13.2551 7.03345 13.2551 6.99898 13.2514C5.51048 13.1962 4.10137 12.566 3.06786 11.4934C2.03435 10.4208 1.45695 8.98937 1.45703 7.49991C1.45694 6.0104 2.03432 4.57885 3.06781 3.50616C4.10131 2.43347 5.51043 1.80319 6.99898 1.7478L7.10057 1.74417C7.13806 1.74417 7.17616 1.74417 7.21425 1.74417C8.07907 1.74141 8.93325 1.93448 9.71282 2.30892C9.96443 2.42967 10.2069 2.5685 10.4384 2.72432C10.4765 2.75032 10.5152 2.77632 10.5527 2.80353C10.6646 2.88335 10.7752 2.96739 10.8823 3.05567C10.9893 3.14395 11.0921 3.23707 11.1919 3.33079C11.2251 3.36284 11.2584 3.39549 11.2904 3.42814C11.8249 3.96252 12.2484 4.59722 12.5368 5.29578C12.8252 5.99433 12.9727 6.74297 12.9709 7.49871Z" fill="url(#paint1_linear_5902_140951)"/>
<path d="M12.7236 5.83328C13.0127 6.7825 13.0502 7.79056 12.8324 8.75862C11.9127 6.78561 10.0225 4.44256 6.7753 7.32558C4.02458 9.76719 2.47718 8.05782 1.64453 6.04249C1.88448 5.12542 2.34739 4.28188 2.99208 3.58691C3.63677 2.89193 4.44325 2.36706 5.33977 2.059L5.43592 2.02635L5.54415 1.99188C6.37052 1.73938 7.24338 1.67736 8.09714 1.81048C8.37227 1.85296 8.6439 1.91561 8.90984 1.99793L9.04166 2.04025C9.17288 2.0844 9.30288 2.13277 9.43047 2.18658C9.55806 2.2404 9.68384 2.29723 9.80659 2.36012C9.84771 2.38068 9.88883 2.40245 9.92753 2.42421C10.5952 2.78031 11.1858 3.26479 11.6657 3.84982C12.1455 4.43485 12.505 5.1089 12.7236 5.83328Z" fill="url(#paint2_linear_5902_140951)"/>
<path d="M12.8323 8.75661C12.6101 9.75188 12.1273 10.6702 11.4334 11.4174C10.7394 12.1647 9.85926 12.714 8.88312 13.0092C8.84623 13.0207 8.80935 13.0309 8.77367 13.0412L8.67571 13.0672C7.23511 13.4456 5.7039 13.2507 4.40389 12.5238C3.10387 11.7969 2.13623 10.5944 1.70428 9.16899C1.39398 8.15202 1.37305 7.06871 1.64381 6.04048C2.47647 8.05581 4.02386 9.76518 6.77458 7.32357C10.0223 4.44358 11.9126 6.78361 12.8323 8.75661Z" fill="url(#paint3_linear_5902_140951)"/>
<g filter="url(#filter0_d_5902_140951)">
<path d="M6.12318 8.3182C6.02972 7.98928 5.93768 7.6654 5.84136 7.32712C6.68897 7.08313 7.52945 6.8413 8.38206 6.59587C8.21083 6.29214 7.97395 6.08845 7.65931 5.98265C7.21766 5.8351 6.76888 5.83006 6.32653 5.97185C5.7907 6.14315 5.50246 6.53829 5.40043 7.08025C5.33051 7.45236 5.36618 7.81942 5.48462 8.18073C5.66085 8.7191 6.04684 8.99835 6.58195 9.09264C6.71608 9.11639 6.8545 9.12143 6.99078 9.12143C7.62934 9.12431 8.26862 9.12287 8.90718 9.12287C8.95213 9.12287 8.99708 9.12287 9.05345 9.12287C9.05345 9.47122 9.05345 9.81094 9.05345 10.1543C9.03133 10.1586 9.01135 10.1651 8.99137 10.1651C8.21582 10.16 7.43955 10.178 6.66543 10.1435C5.40328 10.0873 4.43866 9.10703 4.3459 7.83814C4.30738 7.30913 4.3402 6.7902 4.55852 6.30293C4.9545 5.41981 5.65585 4.95846 6.59836 4.85554C7.16843 4.79292 7.72637 4.84834 8.24793 5.10745C8.96283 5.46156 9.38307 6.04959 9.5486 6.8269C9.60782 7.10328 9.46156 7.35879 9.19685 7.43652C8.19085 7.73233 7.18413 8.02239 6.17669 8.31388C6.16528 8.31748 6.15244 8.31604 6.12318 8.3182Z" fill="white"/>
</g>
<path d="M3.91784 12.2708L4.05329 12.3561C4.14097 12.4165 4.2746 12.4903 4.44634 12.5834C4.65568 12.6924 4.87156 12.7884 5.09275 12.8706C5.37998 12.9785 5.67568 13.0622 5.9768 13.121C6.33441 13.1907 6.69789 13.2261 7.06221 13.2268C7.47049 13.2279 7.87763 13.1843 8.27642 13.0968L8.43243 13.0617C8.48504 13.049 8.53643 13.0333 8.58844 13.0194C8.64044 13.0055 8.69365 12.9922 8.74505 12.9746L8.90106 12.9233C8.92706 12.9148 8.95306 12.9069 8.97907 12.8973L9.05647 12.8682L9.21127 12.8078C9.26266 12.7866 9.31346 12.763 9.36486 12.7413C9.41625 12.7195 9.46765 12.6977 9.51784 12.6717C9.92879 12.4754 10.3146 12.2301 10.6667 11.9413C11.0205 11.6485 11.3384 11.3147 11.6137 10.9472C11.8798 10.5855 12.1031 10.1941 12.2788 9.78084L12.3115 9.70526L12.3405 9.62847L12.401 9.47609C12.4107 9.4507 12.4197 9.4253 12.4276 9.3993L12.4524 9.32251L12.5014 9.16953C12.5153 9.11814 12.5286 9.06674 12.5425 9.01595C12.5564 8.96516 12.5709 8.91437 12.5812 8.86297L12.6138 8.70999C12.6193 8.6846 12.6253 8.6592 12.6302 8.6338L12.6423 8.55762C12.7094 8.17306 12.7362 7.78257 12.7221 7.39244C12.71 7.05105 12.6669 6.71142 12.5933 6.37782C12.5618 6.22424 12.5201 6.08215 12.482 5.94731L12.4185 5.75442L12.4034 5.70787L12.3859 5.66312C12.375 5.63349 12.3635 5.60265 12.3526 5.57605C12.2381 5.2769 12.0983 4.98803 11.9348 4.71259C11.7473 4.40069 11.5298 4.10785 11.2853 3.83826C10.9711 3.49696 10.6189 3.19266 10.2356 2.93127C9.84987 2.67301 9.43603 2.45941 9.00204 2.29456C8.66064 2.16735 8.30768 2.07379 7.94807 2.01521C7.63146 1.96619 7.31122 1.94414 6.99086 1.94931H6.89773H6.84936L6.80098 1.95293L6.59841 1.96563C6.45934 1.98075 6.31119 1.99465 6.1576 2.02247C5.82074 2.07828 5.48963 2.1645 5.16833 2.28006C4.80126 2.4127 4.44888 2.58291 4.11678 2.78797L4.05087 2.82787C4.0291 2.84178 4.00794 2.8569 3.98617 2.87142L3.85677 2.95849C3.81262 2.9869 3.77151 3.01895 3.72918 3.0516L3.60159 3.14713L3.48065 3.24933L3.42018 3.30132C3.39962 3.31825 3.37906 3.33579 3.35971 3.35453L3.23878 3.46458L3.17831 3.52021L3.11784 3.58067C2.80022 3.89869 2.52041 4.25235 2.28398 4.6346C2.04503 5.0267 1.85361 5.44586 1.71376 5.88322C1.57532 6.31838 1.49005 6.7687 1.45979 7.22435C1.45374 7.27997 1.45435 7.33621 1.45193 7.39184C1.44951 7.44746 1.4477 7.50309 1.4477 7.55872C1.4477 7.61435 1.4477 7.66937 1.4477 7.725V7.80724C1.4477 7.83505 1.4477 7.86226 1.45253 7.88947C1.45616 7.94449 1.45979 7.99891 1.46281 8.05333C1.46584 8.10775 1.4743 8.16157 1.47974 8.21538C1.48519 8.2692 1.49123 8.32241 1.49849 8.37562C1.50575 8.42883 1.51603 8.48143 1.52449 8.53404C1.59128 8.93662 1.70221 9.33061 1.85525 9.70889C1.99142 10.0467 2.15969 10.3707 2.35775 10.6763C2.52443 10.9334 2.71234 11.1762 2.9195 11.4019C3.07812 11.5764 3.24735 11.741 3.42623 11.8947C3.5768 12.0199 3.69713 12.1154 3.7836 12.1747L3.91361 12.269L3.78723 12.1825C3.70076 12.1251 3.58103 12.032 3.42986 11.9104C3.25067 11.7606 3.08064 11.6 2.92071 11.4297C2.87415 11.3802 2.82517 11.33 2.77922 11.2743C2.73326 11.2187 2.68367 11.1637 2.6359 11.1044L2.49259 10.9182C2.44482 10.8541 2.39947 10.7858 2.3511 10.7169C2.1491 10.4163 1.97618 10.0973 1.8347 9.76391C1.67441 9.38945 1.555 8.99884 1.47853 8.59873C1.39653 8.16586 1.36306 7.72512 1.37876 7.28481C1.39762 6.82805 1.47007 6.37508 1.59463 5.93521C1.60854 5.87898 1.6291 5.82517 1.64543 5.76954C1.66175 5.71391 1.6805 5.65949 1.69985 5.60507L1.76032 5.44302L1.79116 5.36139C1.80204 5.33479 1.81353 5.30879 1.82502 5.28218L1.89456 5.12316C1.91693 5.06995 1.94475 5.01916 1.97014 4.96716C1.99554 4.91516 2.02033 4.86315 2.04815 4.81297C2.07596 4.76278 2.10439 4.71259 2.13281 4.66241L2.17453 4.58744C2.18904 4.56204 2.20537 4.53845 2.21988 4.51427L2.31179 4.36854C2.34142 4.31957 2.37589 4.27422 2.40794 4.22705L2.5065 4.08798L2.61051 3.95375L2.66312 3.88724C2.6797 3.86456 2.69746 3.84276 2.71633 3.82194L2.82699 3.69435L2.88201 3.63388L2.94248 3.57342C3.23884 3.25864 3.56944 2.97795 3.92812 2.73657C4.25759 2.51491 4.60943 2.32846 4.97785 2.18028C5.30044 2.04907 5.63443 1.94787 5.97559 1.87796C6.25483 1.82089 6.5377 1.78331 6.82215 1.76549C6.88262 1.76186 6.94309 1.76126 7.00355 1.75944C7.06402 1.75763 7.11603 1.7546 7.16863 1.75642L7.3186 1.75944C7.36576 1.75944 7.4099 1.75945 7.45163 1.76429L7.6669 1.77819C7.72736 1.78363 7.77453 1.79028 7.8096 1.79391C8.20827 1.83754 8.60144 1.92224 8.98269 2.04665L9.07037 2.07447L9.15805 2.10712L9.33946 2.17424L9.51724 2.25163L9.60673 2.29094L9.69501 2.33447L9.87158 2.42275L10.0439 2.52011L10.1298 2.56908L10.2126 2.6223L10.3771 2.7275L10.5361 2.84118L10.616 2.90165L10.6934 2.96211L10.8482 3.08305L10.9963 3.21425L11.0695 3.27956L11.139 3.34848L11.2769 3.48453L11.4057 3.62542L11.4661 3.69435C11.4867 3.71793 11.5054 3.74212 11.5266 3.7657C11.782 4.07378 12.0051 4.40729 12.1924 4.76097C12.2087 4.7918 12.2323 4.83353 12.2595 4.88734L12.3532 5.08144C12.372 5.11892 12.3889 5.16004 12.407 5.20237L12.4675 5.34023C12.4893 5.388 12.5062 5.44061 12.528 5.49442C12.5497 5.54824 12.5691 5.60447 12.5884 5.66372C12.6778 5.9349 12.7486 6.21188 12.8001 6.49271C12.8619 6.83529 12.8925 7.18281 12.8914 7.53091C12.8912 7.92805 12.8491 8.3241 12.7656 8.71241C12.6752 9.13513 12.5379 9.54642 12.3562 9.93866L12.3218 10.0148L12.2837 10.0892L12.2063 10.2386C12.1942 10.264 12.1803 10.2888 12.1658 10.3129L12.1234 10.3861L12.0376 10.533L11.9451 10.6763C11.9136 10.7235 11.8846 10.7725 11.8495 10.8184L11.7485 10.9575C11.7316 10.9805 11.7153 11.0041 11.6977 11.0264L11.6433 11.0936C11.6076 11.1389 11.5714 11.1837 11.5357 11.2284C11.5 11.2731 11.4589 11.3149 11.4214 11.3584C11.3839 11.4019 11.3458 11.4455 11.3047 11.4866L11.1838 11.6075C11.1632 11.6281 11.1432 11.6486 11.1233 11.668L11.0592 11.7284L10.9316 11.8458C10.8881 11.8844 10.8427 11.9201 10.7986 11.9576C10.7544 11.9951 10.7109 12.0326 10.6637 12.0665C10.3018 12.3459 9.90829 12.5817 9.49123 12.7691C9.08997 12.9468 8.67013 13.0793 8.23953 13.1639C7.83899 13.2432 7.43113 13.279 7.0229 13.2709C6.66058 13.2629 6.2998 13.2208 5.94535 13.1452C5.86372 13.1258 5.7833 13.1095 5.70348 13.0889L5.47793 13.0254C5.40476 13.0031 5.33522 12.9777 5.26629 12.9553C5.19736 12.9329 5.13326 12.9069 5.06977 12.8821C4.85216 12.7972 4.63993 12.699 4.43424 12.5883C4.26493 12.4933 4.1319 12.4165 4.04845 12.3585L3.91784 12.2708Z" fill="url(#paint4_linear_5902_140951)"/>
<defs>
<filter id="filter0_d_5902_140951" x="2.33203" y="4.83203" width="9.22949" height="9.33398" filterUnits="userSpaceOnUse" color-interpolation-filters="sRGB">
<feFlood flood-opacity="0" result="BackgroundImageFix"/>
<feColorMatrix in="SourceAlpha" type="matrix" values="0 0 0 0 0 0 0 0 0 0 0 0 0 0 0 0 0 0 127 0" result="hardAlpha"/>
<feOffset dy="2"/>
<feGaussianBlur stdDeviation="1"/>
<feComposite in2="hardAlpha" operator="out"/>
<feColorMatrix type="matrix" values="0 0 0 0 0 0 0 0 0 0 0 0 0 0 0 0 0 0 0.2 0"/>
<feBlend mode="normal" in2="BackgroundImageFix" result="effect1_dropShadow_5902_140951"/>
<feBlend mode="normal" in="SourceGraphic" in2="effect1_dropShadow_5902_140951" result="shape"/>
</filter>
<linearGradient id="paint0_linear_5902_140951" x1="1.2229" y1="10.6349" x2="12.7758" y2="4.36296" gradientUnits="userSpaceOnUse">
<stop stop-color="#F9C61F"/>
<stop offset="0.18" stop-color="#FDD938"/>
<stop offset="0.46" stop-color="#F9C41E"/>
<stop offset="1" stop-color="#FCEB44"/>
</linearGradient>
<linearGradient id="paint1_linear_5902_140951" x1="2.6912" y1="9.95422" x2="11.7667" y2="5.02651" gradientUnits="userSpaceOnUse">
<stop stop-color="#FEDE05"/>
<stop offset="1" stop-color="#FEE400"/>
</linearGradient>
<linearGradient id="paint2_linear_5902_140951" x1="4.92395" y1="5.76302" x2="10.9166" y2="5.06889" gradientUnits="userSpaceOnUse">
<stop stop-color="#F9B016"/>
<stop offset="1" stop-color="#FEE601" stop-opacity="0"/>
</linearGradient>
<linearGradient id="paint3_linear_5902_140951" x1="-5866.13" y1="-1589.03" x2="-7057.83" y2="-1571.6" gradientUnits="userSpaceOnUse">
<stop stop-color="#F9B016"/>
<stop offset="1" stop-color="#FEE601" stop-opacity="0"/>
</linearGradient>
<linearGradient id="paint4_linear_5902_140951" x1="12.2202" y1="3.73365" x2="-0.300646" y2="13.049" gradientUnits="userSpaceOnUse">
<stop stop-color="#E0A502"/>
<stop offset="1" stop-color="#FFE01F"/>
</linearGradient>
</defs>
</svg>
