<svg width="26" height="26" viewBox="0 0 26 26" fill="none" xmlns="http://www.w3.org/2000/svg">
<path d="M12.8788 25.7572C19.9915 25.7572 25.7576 19.9913 25.7576 12.8786C25.7576 5.76595 19.9915 0 12.8788 0C5.76603 0 0 5.76595 0 12.8786C0 19.9913 5.76603 25.7572 12.8788 25.7572Z" fill="#F6E492"/>
<path d="M12.8803 24.8953C19.5189 24.8953 24.9005 19.5138 24.9005 12.8753C24.9005 6.23678 19.5189 0.855225 12.8803 0.855225C6.24173 0.855225 0.860107 6.23678 0.860107 12.8753C0.860107 19.5138 6.24173 24.8953 12.8803 24.8953Z" fill="#FFC841"/>
<path d="M12.8782 3.86349C17.8571 3.86349 21.8933 7.89966 21.8933 12.8785C21.8933 17.8574 17.8571 21.8936 12.8782 21.8936C7.89925 21.8936 3.86304 17.8574 3.86304 12.8785C3.86304 7.89966 7.89925 3.86349 12.8782 3.86349Z" fill="url(#paint0_linear_19_589)"/>
<path d="M12.8789 20.9961C17.3599 20.9961 20.9925 17.3636 20.9925 12.8826C20.9925 8.40159 17.3599 4.76904 12.8789 4.76904C8.39786 4.76904 4.76526 8.40159 4.76526 12.8826C4.76526 17.3636 8.39786 20.9961 12.8789 20.9961Z" fill="#B97912"/>
<path d="M3.86304 12.8787H4.76455C4.76455 17.3596 8.39723 20.9922 12.8782 20.9922C17.3591 20.9922 20.9918 17.3596 20.9918 12.8787H21.8933C21.8933 17.8576 17.8571 21.8937 12.8782 21.8937C7.89925 21.8937 3.86304 17.8576 3.86304 12.8787Z" fill="url(#paint1_linear_19_589)"/>
<path d="M25.7576 12.8787C25.7576 19.9911 19.9913 25.7573 12.8788 25.7573C5.76539 25.7573 0 19.9911 0 12.8787H0.858585C0.858585 19.5172 6.24021 24.8987 12.8788 24.8987C19.5173 24.8987 24.899 19.5172 24.899 12.8787H25.7576Z" fill="url(#paint2_linear_19_589)"/>
<path d="M21.8933 12.8787C21.8933 17.8576 17.8571 21.8937 12.8782 21.8937C7.89925 21.8937 3.86304 17.8576 3.86304 12.8787H4.76455C4.76455 17.3596 8.39723 20.9922 12.8782 20.9922C17.3591 20.9922 20.9918 17.3596 20.9918 12.8787H21.8933Z" fill="#FFC841"/>
<path d="M21.8933 12.8787C21.8933 17.8576 17.8571 21.8937 12.8782 21.8937C7.89925 21.8937 3.86304 17.8576 3.86304 12.8787H4.76455C4.76455 17.3596 8.39723 20.9922 12.8782 20.9922C17.3591 20.9922 20.9918 17.3596 20.9918 12.8787H21.8933Z" fill="#F6E492"/>
<path d="M11.3951 14.3489C11.2267 13.7564 11.0609 13.173 10.8874 12.5637C12.4142 12.1242 13.9282 11.6886 15.4639 11.2465C15.1556 10.6994 14.7289 10.3325 14.1621 10.1419C13.3665 9.87614 12.5582 9.86706 11.7614 10.1225C10.7962 10.431 10.277 11.1428 10.0932 12.119C9.96725 12.7893 10.0315 13.4504 10.2448 14.1013C10.5623 15.071 11.2576 15.574 12.2215 15.7438C12.4631 15.7867 12.7124 15.7957 12.9579 15.7957C14.1082 15.8009 15.2597 15.7983 16.4099 15.7983H16.6733V17.6562C16.6335 17.6638 16.5976 17.6756 16.5615 17.6756C15.1646 17.6665 13.7663 17.6989 12.3718 17.6367C10.0983 17.5356 8.36077 15.7698 8.19369 13.4842C8.12429 12.5313 8.18341 11.5965 8.57668 10.7188C9.28996 9.1281 10.5533 8.29707 12.251 8.11169C13.2779 7.99889 14.2829 8.09872 15.2223 8.56544C16.5101 9.20329 17.2672 10.2625 17.5653 11.6626C17.672 12.1605 17.4085 12.6207 16.9316 12.7607C15.1195 13.2936 13.3061 13.8161 11.4915 14.3411C11.4709 14.3476 11.4478 14.3449 11.3951 14.3489Z" fill="white"/>
<path fill-rule="evenodd" clip-rule="evenodd" d="M3.86304 12.8787H4.76455C4.76455 8.39774 8.39723 4.76513 12.8782 4.76513C17.3591 4.76513 20.9918 8.39774 20.9918 12.8787H21.8933C21.8933 7.89977 17.8571 3.86363 12.8782 3.86363C7.89925 3.86363 3.86304 7.89977 3.86304 12.8787Z" fill="#DA9F18"/>
<path fill-rule="evenodd" clip-rule="evenodd" d="M25.7576 12.8787C25.7576 19.9911 19.9913 25.7573 12.8788 25.7573C5.76539 25.7573 0 19.9911 0 12.8787H0.858585C0.858585 19.5172 6.24021 24.8987 12.8788 24.8987C19.5173 24.8987 24.899 19.5172 24.899 12.8787H25.7576Z" fill="#DA9F18"/>
<defs>
<linearGradient id="paint0_linear_19_589" x1="3.86304" y1="12.8785" x2="21.8933" y2="12.8785" gradientUnits="userSpaceOnUse">
<stop stop-color="#FFDD9A"/>
<stop offset="1" stop-color="#FCDA83"/>
</linearGradient>
<linearGradient id="paint1_linear_19_589" x1="6.86873" y1="18.8242" x2="20.2155" y2="11.5773" gradientUnits="userSpaceOnUse">
<stop stop-color="#FFDD9A"/>
<stop offset="1" stop-color="#FCDA83"/>
</linearGradient>
<linearGradient id="paint2_linear_19_589" x1="4.29378" y1="21.3723" x2="23.3606" y2="11.0195" gradientUnits="userSpaceOnUse">
<stop stop-color="#FFDD9A"/>
<stop offset="1" stop-color="#FCDA83"/>
</linearGradient>
</defs>
</svg>
