<svg viewBox="0 0 32 39" fill="none" xmlns="http://www.w3.org/2000/svg">
<path d="M15.2319 31.3916V38.5177C15.0596 38.5177 14.8873 38.4803 14.727 38.406L11.6171 36.9672L10.4122 36.4097L7.74993 35.1775C7.53666 35.0791 7.3999 34.8647 7.3999 34.6291V27.7676L10.4122 29.1616L11.6171 29.7191L15.2319 31.3916Z" fill="#BE002F"/>
<path d="M23.0639 27.7676V34.6291C23.0639 34.8647 22.9271 35.0791 22.7139 35.1775L20.0516 36.4097L18.8467 36.9672L15.7368 38.406C15.5765 38.4803 15.4042 38.5177 15.2319 38.5177V31.3916L18.8467 29.7191L20.0516 29.1616L23.0639 27.7676Z" fill="#BE002F"/>
<path d="M15.2319 23.3867L7.3999 27.0108V31.0616C7.3999 32.5545 8.9434 33.5446 10.2955 32.919L15.2319 30.6348V23.3867Z" fill="#FFA600"/>
<path d="M15.2319 23.3867L23.0639 27.0108V31.8683C23.0639 32.9846 21.9098 33.7249 20.8989 33.2571L15.2319 30.6348V23.3867Z" fill="#FFA600"/>
<path d="M23.0638 27.0108L15.2319 30.6348L7.3999 27.0108L15.2319 23.3867L23.0638 27.0108Z" fill="#FFC841"/>
<path d="M7.97559 27.0123L15.2325 23.6543L22.4894 27.0123L15.2325 30.3702L7.97559 27.0123Z" fill="#800020"/>
<path d="M15.2319 30.6358V37.7618C15.0596 37.7618 14.8873 37.7244 14.727 37.6501L11.6171 36.2114L10.4122 35.6539L7.74993 34.4217C7.53666 34.3232 7.3999 34.1088 7.3999 33.8733V27.0117L10.4122 28.4058L11.6171 28.9633L15.2319 30.6358Z" fill="#F6E492"/>
<path d="M23.0639 27.0117V33.8733C23.0639 34.1088 22.9271 34.3232 22.7139 34.4217L20.0516 35.6539L18.8467 36.2114L15.7368 37.6501C15.5765 37.7244 15.4042 37.7618 15.2319 37.7618V30.6358L18.8467 28.9633L20.0516 28.4058L23.0639 27.0117Z" fill="#FFC841"/>
<path d="M11.617 28.9637V36.2118L10.4121 35.6543V28.4062L11.617 28.9637Z" fill="#E7003A"/>
<path d="M20.0516 28.4062V35.6543L18.8467 36.2118V28.9637L20.0516 28.4062Z" fill="#E7003A"/>
<path d="M15.1685 3.82422C21.2123 3.82432 26.1118 8.72368 26.1118 14.7676C26.1117 20.8114 21.2123 25.7108 15.1685 25.7109C9.12456 25.7109 4.2252 20.8115 4.2251 14.7676C4.2251 8.72361 9.12449 3.82422 15.1685 3.82422Z" stroke="#FFC841" stroke-width="0.0421717"/>
<path d="M15.1685 2.34766C22.0275 2.34766 27.5883 7.90757 27.5884 14.7666C27.5884 21.6257 22.0276 27.1865 15.1685 27.1865C8.30942 27.1864 2.74951 21.6257 2.74951 14.7666C2.74964 7.90764 8.3095 2.34778 15.1685 2.34766Z" stroke="#FFC841" stroke-width="0.0421717"/>
<g opacity="0.8">
<path d="M11.2119 12.4867C10.8151 13.1648 10.5886 13.9508 10.5871 14.79H0.399414C0.400936 12.0945 1.12461 9.56621 2.38647 7.39062L11.2119 12.4867Z" fill="url(#paint0_linear_5945_70762)"/>
<path d="M15.2085 0V10.1877H15.1979C14.3602 10.1877 13.5757 10.4111 12.9007 10.8003L7.80762 1.97641C9.98319 0.719107 12.5069 0 15.1994 0H15.2085Z" fill="url(#paint1_linear_5945_70762)"/>
<path d="M28.0241 7.4078L19.1972 12.5039C18.7958 11.803 18.2135 11.2177 17.5142 10.8118L22.6087 1.98633C24.8527 3.28621 26.7258 5.16077 28.0241 7.4078Z" fill="url(#paint2_linear_5945_70762)"/>
<path d="M30 14.8105C29.9985 17.5076 29.2748 20.0343 28.0145 22.2099L19.1875 17.1138C19.5843 16.4373 19.8093 15.6498 19.8123 14.8105H30Z" fill="url(#paint3_linear_5945_70762)"/>
<path d="M22.5919 27.6262C20.4163 28.8835 17.8926 29.6026 15.2001 29.6026H15.1895V19.4135H15.1986C16.0347 19.4135 16.8192 19.1915 17.4958 18.8008L22.5919 27.6262Z" fill="url(#paint4_linear_5945_70762)"/>
<path d="M12.8859 18.7898L7.78983 27.6137C5.54432 26.3138 3.67281 24.4393 2.37598 22.1923L11.1999 17.0977C11.6028 17.7985 12.1851 18.3839 12.8859 18.7898Z" fill="url(#paint5_linear_5945_70762)"/>
</g>
<path d="M4.40374 4.14529L5.59505 4.18351L4.40374 4.22173C3.83285 4.24005 3.37432 4.69857 3.35601 5.26946L3.31779 6.46077L3.27957 5.26946C3.26125 4.69857 2.80272 4.24005 2.23184 4.22173L1.04053 4.18351L2.23184 4.14529C2.80272 4.12697 3.26125 3.66845 3.27957 3.09756L3.31779 1.90625L3.35601 3.09756C3.37432 3.66845 3.83285 4.12697 4.40374 4.14529Z" fill="#FFC841"/>
<path d="M30.5502 15.7429L31.7415 15.7812L30.5502 15.8194C29.9793 15.8377 29.5208 16.2962 29.5025 16.8671L29.4643 18.0584L29.4261 16.8671C29.4077 16.2962 28.9492 15.8377 28.3783 15.8194L27.187 15.7812L28.3783 15.7429C28.9492 15.7246 29.4077 15.2661 29.4261 14.6952L29.4643 13.5039L29.5025 14.6952C29.5208 15.2661 29.9793 15.7246 30.5502 15.7429Z" fill="#FFC841"/>
<circle cx="2.93832" cy="18.7752" r="0.421717" fill="#6AEBBC"/>
<circle cx="20.0184" cy="27.2108" r="0.421717" fill="#6AEBBC"/>
<circle cx="25.0788" cy="7.17742" r="0.843435" fill="#6AEBBC"/>
<path d="M15.1998 23.9993C20.2807 23.9993 24.3996 19.8804 24.3996 14.7994C24.3996 9.71851 20.2807 5.59961 15.1998 5.59961C10.1189 5.59961 6 9.71851 6 14.7994C6 19.8804 10.1189 23.9993 15.1998 23.9993Z" fill="#F6E492"/>
<path d="M15.2003 23.3859C19.9425 23.3859 23.7868 19.5416 23.7868 14.7994C23.7868 10.0572 19.9425 6.21289 15.2003 6.21289C10.4581 6.21289 6.61377 10.0572 6.61377 14.7994C6.61377 19.5416 10.4581 23.3859 15.2003 23.3859Z" fill="#FFC841"/>
<path d="M15.2001 8.35853C18.7568 8.35853 21.64 11.2418 21.64 14.7984C21.64 18.3551 18.7568 21.2383 15.2001 21.2383C11.6435 21.2383 8.76025 18.3551 8.76025 14.7984C8.76025 11.2418 11.6435 8.35853 15.2001 8.35853Z" fill="url(#paint6_linear_5945_70762)"/>
<path d="M15.1997 20.5957C18.4007 20.5957 20.9956 18.0008 20.9956 14.7998C20.9956 11.5988 18.4007 9.00391 15.1997 9.00391C11.9987 9.00391 9.40381 11.5988 9.40381 14.7998C9.40381 18.0008 11.9987 20.5957 15.1997 20.5957Z" fill="#B97912"/>
<path d="M8.76025 14.7988H9.40424C9.40424 17.9998 11.9992 20.5947 15.2001 20.5947C18.401 20.5947 20.996 17.9998 20.996 14.7988H21.64C21.64 18.3555 18.7568 21.2387 15.2001 21.2387C11.6435 21.2387 8.76025 18.3555 8.76025 14.7988Z" fill="url(#paint7_linear_5945_70762)"/>
<path d="M24.3996 14.7988C24.3996 19.8796 20.2806 23.9986 15.1998 23.9986C10.1184 23.9986 6 19.8796 6 14.7988H6.61332C6.61332 19.541 10.4576 23.3853 15.1998 23.3853C19.942 23.3853 23.7863 19.541 23.7863 14.7988H24.3996Z" fill="url(#paint8_linear_5945_70762)"/>
<path d="M21.64 14.7988C21.64 18.3555 18.7568 21.2387 15.2001 21.2387C11.6435 21.2387 8.76025 18.3555 8.76025 14.7988H9.40424C9.40424 17.9998 11.9992 20.5947 15.2001 20.5947C18.401 20.5947 20.996 17.9998 20.996 14.7988H21.64Z" fill="#FFC841"/>
<path d="M21.64 14.7988C21.64 18.3555 18.7568 21.2387 15.2001 21.2387C11.6435 21.2387 8.76025 18.3555 8.76025 14.7988H9.40424C9.40424 17.9998 11.9992 20.5947 15.2001 20.5947C18.401 20.5947 20.996 17.9998 20.996 14.7988H21.64Z" fill="#F6E492"/>
<path d="M14.1402 15.853C14.0199 15.4297 13.9015 15.013 13.7776 14.5777C14.8682 14.2638 15.9497 13.9526 17.0467 13.6368C16.8264 13.246 16.5217 12.9839 16.1168 12.8477C15.5485 12.6579 14.971 12.6514 14.4018 12.8338C13.7124 13.0543 13.3415 13.5627 13.2102 14.2601C13.1202 14.7389 13.1661 15.2112 13.3185 15.6761C13.5453 16.3688 14.042 16.7281 14.7305 16.8494C14.9031 16.8801 15.0812 16.8865 15.2566 16.8865C16.0782 16.8902 16.9008 16.8884 17.7224 16.8884H17.9106V18.2155C17.8822 18.221 17.8565 18.2294 17.8308 18.2294C16.8329 18.2229 15.834 18.2461 14.8379 18.2016C13.2139 18.1294 11.9726 16.868 11.8533 15.2353C11.8037 14.5546 11.846 13.8868 12.1269 13.2599C12.6364 12.1235 13.5389 11.5299 14.7516 11.3974C15.4851 11.3169 16.2031 11.3882 16.8741 11.7216C17.7941 12.1772 18.3348 12.9339 18.5478 13.9341C18.624 14.2897 18.4358 14.6185 18.0952 14.7185C16.8007 15.0991 15.5053 15.4724 14.209 15.8474C14.1944 15.852 14.1778 15.8502 14.1402 15.853Z" fill="white"/>
<path fill-rule="evenodd" clip-rule="evenodd" d="M8.76025 14.7988H9.40424C9.40424 11.5979 11.9992 9.00294 15.2001 9.00294C18.401 9.00294 20.996 11.5979 20.996 14.7988H21.64C21.64 11.2422 18.7568 8.35895 15.2001 8.35895C11.6435 8.35895 8.76025 11.2422 8.76025 14.7988Z" fill="#DA9F18"/>
<path fill-rule="evenodd" clip-rule="evenodd" d="M24.3996 14.7988C24.3996 19.8796 20.2806 23.9986 15.1998 23.9986C10.1184 23.9986 6 19.8796 6 14.7988H6.61332C6.61332 19.541 10.4576 23.3853 15.1998 23.3853C19.942 23.3853 23.7863 19.541 23.7863 14.7988H24.3996Z" fill="#DA9F18"/>
<path d="M10.2456 20.7572L10.9675 20.7804L10.2456 20.8035C9.89962 20.8146 9.62176 21.0925 9.61066 21.4384L9.5875 22.1604L9.56434 21.4384C9.55324 21.0925 9.27538 20.8146 8.92944 20.8035L8.20752 20.7804L8.92944 20.7572C9.27538 20.7461 9.55324 20.4683 9.56434 20.1223L9.5875 19.4004L9.61066 20.1223C9.62176 20.4683 9.89962 20.7461 10.2456 20.7572Z" fill="white"/>
<path d="M21.4044 9.05959L22.5595 9.09665L21.4044 9.1337C20.8509 9.15146 20.4063 9.59604 20.3886 10.1496L20.3515 11.3046L20.3145 10.1496C20.2967 9.59604 19.8521 9.15146 19.2986 9.1337L18.1436 9.09665L19.2986 9.05959C19.8521 9.04183 20.2967 8.59725 20.3145 8.04374L20.3515 6.88867L20.3886 8.04374C20.4063 8.59725 20.8509 9.04183 21.4044 9.05959Z" fill="white"/>
<defs>
<linearGradient id="paint0_linear_5945_70762" x1="0.529596" y1="10.8456" x2="10.9324" y2="13.7938" gradientUnits="userSpaceOnUse">
<stop stop-color="white" stop-opacity="0"/>
<stop offset="0.8" stop-color="#FFC841"/>
</linearGradient>
<linearGradient id="paint1_linear_5945_70762" x1="11.3231" y1="0.306858" x2="14.0968" y2="10.5245" gradientUnits="userSpaceOnUse">
<stop stop-color="white" stop-opacity="0"/>
<stop offset="0.8" stop-color="#FFC841"/>
</linearGradient>
<linearGradient id="paint2_linear_5945_70762" x1="25.8813" y1="4.12819" x2="18.5262" y2="11.5354" gradientUnits="userSpaceOnUse">
<stop stop-color="white" stop-opacity="0"/>
<stop offset="0.8" stop-color="#FFC841"/>
</linearGradient>
<linearGradient id="paint3_linear_5945_70762" x1="19.7382" y1="16.0174" x2="30.1419" y2="18.8154" gradientUnits="userSpaceOnUse">
<stop offset="0.2" stop-color="#FFC841"/>
<stop offset="1" stop-color="white" stop-opacity="0"/>
</linearGradient>
<linearGradient id="paint4_linear_5945_70762" x1="19.0393" y1="29.1486" x2="16.2608" y2="19.1637" gradientUnits="userSpaceOnUse">
<stop stop-color="white" stop-opacity="0"/>
<stop offset="0.8" stop-color="#FFC841"/>
</linearGradient>
<linearGradient id="paint5_linear_5945_70762" x1="4.56929" y1="25.4177" x2="11.993" y2="17.9781" gradientUnits="userSpaceOnUse">
<stop stop-color="white" stop-opacity="0"/>
<stop offset="0.8" stop-color="#FFC841"/>
</linearGradient>
<linearGradient id="paint6_linear_5945_70762" x1="8.76025" y1="14.7984" x2="21.64" y2="14.7984" gradientUnits="userSpaceOnUse">
<stop stop-color="#FFDD9A"/>
<stop offset="1" stop-color="#FCDA83"/>
</linearGradient>
<linearGradient id="paint7_linear_5945_70762" x1="10.9073" y1="19.046" x2="20.4415" y2="13.8693" gradientUnits="userSpaceOnUse">
<stop stop-color="#FFDD9A"/>
<stop offset="1" stop-color="#FCDA83"/>
</linearGradient>
<linearGradient id="paint8_linear_5945_70762" x1="9.06722" y1="20.8662" x2="22.6875" y2="13.4709" gradientUnits="userSpaceOnUse">
<stop stop-color="#FFDD9A"/>
<stop offset="1" stop-color="#FCDA83"/>
</linearGradient>
</defs>
</svg>
