<svg width="20" height="21" viewBox="0 0 20 21" fill="none" xmlns="http://www.w3.org/2000/svg">
<path d="M10 20.4999C15.5229 20.4999 20 16.0228 20 10.5C20 4.97713 15.5229 0.5 10 0.5C4.47715 0.5 0 4.97713 0 10.5C0 16.0228 4.47715 20.4999 10 20.4999Z" fill="#F6E492"/>
<path d="M10.0013 19.8306C15.156 19.8306 19.3346 15.652 19.3346 10.4974C19.3346 5.34272 15.156 1.16406 10.0013 1.16406C4.84665 1.16406 0.667969 5.34272 0.667969 10.4974C0.667969 15.652 4.84665 19.8306 10.0013 19.8306Z" fill="#FFC841"/>
<path d="M10 3.49811C13.866 3.49811 17 6.63211 17 10.4981C17 14.3641 13.866 17.498 10 17.498C6.13401 17.498 3 14.3641 3 10.4981C3 6.63211 6.13401 3.49811 10 3.49811Z" fill="url(#paint0_linear_6628_33087)"/>
<path d="M9.99922 16.805C13.4786 16.805 16.2992 13.9844 16.2992 10.505C16.2992 7.02567 13.4786 4.20508 9.99922 4.20508C6.51983 4.20508 3.69922 7.02567 3.69922 10.505C3.69922 13.9844 6.51983 16.805 9.99922 16.805Z" fill="#B97912"/>
<path d="M3 10.5H3.7C3.7 13.9793 6.52067 16.8 10 16.8C13.4793 16.8 16.3 13.9793 16.3 10.5H17C17 14.366 13.866 17.5 10 17.5C6.134 17.5 3 14.366 3 10.5Z" fill="url(#paint1_linear_6628_33087)"/>
<path d="M20 10.5C20 16.0226 15.5227 20.5 10 20.5C4.47666 20.5 0 16.0226 0 10.5H0.666667C0.666667 15.6546 4.84535 19.8333 10 19.8333C15.1547 19.8333 19.3333 15.6546 19.3333 10.5H20Z" fill="url(#paint2_linear_6628_33087)"/>
<path d="M17 10.5C17 14.366 13.866 17.5 10 17.5C6.134 17.5 3 14.366 3 10.5H3.7C3.7 13.9793 6.52067 16.8 10 16.8C13.4793 16.8 16.3 13.9793 16.3 10.5H17Z" fill="#FFC841"/>
<path d="M17 10.5C17 14.366 13.866 17.5 10 17.5C6.134 17.5 3 14.366 3 10.5H3.7C3.7 13.9793 6.52067 16.8 10 16.8C13.4793 16.8 16.3 13.9793 16.3 10.5H17Z" fill="#F6E492"/>
<path d="M8.84895 11.6396C8.71823 11.1796 8.58949 10.7266 8.45478 10.2534C9.64029 9.91216 10.8158 9.57392 12.0083 9.23066C11.7689 8.80584 11.4376 8.52096 10.9974 8.37298C10.3797 8.16661 9.75207 8.15956 9.13336 8.35788C8.38393 8.59746 7.98077 9.15012 7.83806 9.90813C7.74027 10.4286 7.79016 10.942 7.95582 11.4473C8.2023 12.2003 8.74217 12.5909 9.49061 12.7227C9.67822 12.756 9.87181 12.763 10.0624 12.763C10.9556 12.767 11.8497 12.7651 12.7428 12.7651H12.9474V14.2076C12.9164 14.2136 12.8885 14.2227 12.8605 14.2227C11.7758 14.2156 10.6901 14.2408 9.60737 14.1925C7.84206 14.114 6.49288 12.7429 6.36315 10.9682C6.30927 10.2283 6.35517 9.50245 6.66053 8.82095C7.21437 7.58577 8.19532 6.9405 9.51356 6.79656C10.3109 6.70897 11.0912 6.78649 11.8207 7.14888C12.8206 7.64416 13.4084 8.4666 13.64 9.55379C13.7228 9.94035 13.5182 10.2977 13.1479 10.4064C11.7409 10.8202 10.3328 11.2259 8.92379 11.6336C8.90783 11.6386 8.88987 11.6365 8.84895 11.6396Z" fill="white"/>
<path fill-rule="evenodd" clip-rule="evenodd" d="M3 10.5H3.7C3.7 7.02067 6.52067 4.20003 10 4.20003C13.4793 4.20003 16.3 7.02067 16.3 10.5H17C17 6.634 13.866 3.50003 10 3.50003C6.134 3.50003 3 6.634 3 10.5Z" fill="#DA9F18"/>
<path fill-rule="evenodd" clip-rule="evenodd" d="M20 10.5C20 16.0226 15.5227 20.5 10 20.5C4.47666 20.5 0 16.0226 0 10.5H0.666667C0.666667 15.6546 4.84535 19.8333 10 19.8333C15.1547 19.8333 19.3333 15.6546 19.3333 10.5H20Z" fill="#DA9F18"/>
<path d="M4.61375 16.9748L5.39846 17L4.61375 17.0252C4.23772 17.0372 3.93569 17.3393 3.92363 17.7153L3.89845 18.5L3.87327 17.7153C3.86121 17.3393 3.55918 17.0372 3.18314 17.0252L2.39844 17L3.18314 16.9748C3.55918 16.9628 3.86121 16.6607 3.87327 16.2847L3.89845 15.5L3.92363 16.2847C3.93569 16.6607 4.23772 16.9628 4.61375 16.9748Z" fill="white"/>
<path d="M16.7437 4.26012L17.9993 4.3004L16.7437 4.34068C16.1421 4.35998 15.6588 4.84322 15.6395 5.44488L15.5992 6.70041L15.559 5.44488C15.5397 4.84322 15.0564 4.35998 14.4547 4.34068L13.1992 4.3004L14.4547 4.26012C15.0564 4.24081 15.5397 3.75757 15.559 3.15592L15.5992 1.90039L15.6395 3.15592C15.6588 3.75757 16.1421 4.24081 16.7437 4.26012Z" fill="white"/>
<defs>
<linearGradient id="paint0_linear_6628_33087" x1="3" y1="10.4981" x2="17" y2="10.4981" gradientUnits="userSpaceOnUse">
<stop stop-color="#FFDD9A"/>
<stop offset="1" stop-color="#FCDA83"/>
</linearGradient>
<linearGradient id="paint1_linear_6628_33087" x1="5.33384" y1="15.1166" x2="15.6972" y2="9.48957" gradientUnits="userSpaceOnUse">
<stop stop-color="#FFDD9A"/>
<stop offset="1" stop-color="#FCDA83"/>
</linearGradient>
<linearGradient id="paint2_linear_6628_33087" x1="3.334" y1="17.0951" x2="18.1389" y2="9.0565" gradientUnits="userSpaceOnUse">
<stop stop-color="#FFDD9A"/>
<stop offset="1" stop-color="#FCDA83"/>
</linearGradient>
</defs>
</svg>
