<svg width="45" height="9" viewBox="0 0 45 9" fill="none" xmlns="http://www.w3.org/2000/svg">
<path d="M3.41579 5.53881C3.41579 5.27333 3.41579 5.02479 3.41579 4.76284C4.2606 4.76284 5.09988 4.76284 5.95993 4.76284C5.95993 4.61668 5.96131 4.48323 5.95924 4.34978C5.95716 4.17821 6.00217 3.98121 5.93361 3.84282C5.86714 3.70937 5.68363 3.63523 5.54998 3.53709C5.13866 3.23489 4.72595 2.93481 4.316 2.63119C4.25991 2.58953 4.21975 2.58389 4.15812 2.62484C3.61384 2.98211 3.06609 3.33444 2.52181 3.69242C2.48511 3.71643 2.44564 3.77151 2.44564 3.81175C2.44148 4.68164 2.44287 5.55082 2.44287 6.4207C2.44287 6.432 2.44702 6.444 2.45048 6.46377C4.17543 6.46377 5.89968 6.46377 7.63571 6.46377C7.63571 6.41929 7.63571 6.37975 7.63571 6.3395C7.63571 4.64492 7.63571 2.95104 7.63571 1.25646C7.63571 0.930961 7.49029 0.781979 7.17175 0.781979C5.19059 0.781979 3.21012 0.781979 1.22896 0.781979C0.909734 0.781979 0.764315 0.928844 0.764315 1.25505C0.763623 3.41706 0.764315 5.57906 0.764315 7.74106C0.764315 8.07363 0.907656 8.21767 1.23727 8.21767C3.56882 8.21767 5.89968 8.21767 8.23123 8.21767C8.28248 8.21767 8.33441 8.21767 8.39327 8.21767C8.39327 8.48033 8.39327 8.7324 8.39327 9C8.34411 9 8.30118 9 8.25824 9C5.91076 9 3.56328 9 1.2165 9C0.497714 9 0.000519354 8.49445 0.000519354 7.76437C-0.000173118 5.58612 -0.000173118 3.40788 0.000519354 1.22963C0.000519354 0.51367 0.499099 0.00176519 1.19988 0.00105911C3.20112 -0.000353038 5.20167 -0.000353038 7.20292 0.00105911C7.89539 0.00176519 8.4002 0.514376 8.40089 1.22116C8.40297 3.07955 8.40158 4.93794 8.40158 6.79633C8.40158 7.10701 8.25409 7.25599 7.94871 7.25599C6.00771 7.25599 4.0674 7.25599 2.12641 7.25599C1.82103 7.25599 1.67145 7.1056 1.67145 6.79775C1.67076 5.72734 1.67214 4.65622 1.67007 3.58581C1.66937 3.40011 1.7407 3.26878 1.89581 3.16922C2.59382 2.72157 3.28837 2.26827 3.98431 1.81709C4.19828 1.6787 4.31946 1.68223 4.52582 1.83262C5.18713 2.31416 5.84706 2.79783 6.51114 3.27584C6.65932 3.38246 6.72719 3.51379 6.72442 3.7009C6.71749 4.16408 6.72234 4.62798 6.72303 5.09187C6.72303 5.39054 6.57969 5.53952 6.28885 5.53952C5.37064 5.54023 4.45311 5.53952 3.53489 5.53952C3.49958 5.53881 3.46357 5.53881 3.41579 5.53881Z" fill="black"/>
<path d="M13.2697 6.29951C13.1789 5.97683 13.0896 5.6591 12.9961 5.32724C13.8188 5.08789 14.6345 4.85064 15.462 4.60987C15.2958 4.31191 15.0659 4.11209 14.7606 4.00829C14.3319 3.86355 13.8963 3.85861 13.467 3.9977C12.947 4.16575 12.6672 4.55338 12.5682 5.08506C12.5003 5.4501 12.5349 5.8102 12.6499 6.16465C12.8209 6.69279 13.1956 6.96675 13.7149 7.05925C13.8451 7.08255 13.9794 7.08749 14.1117 7.08749C14.7315 7.09032 15.3519 7.0889 15.9717 7.0889C16.0153 7.0889 16.0589 7.0889 16.1136 7.0889C16.1136 7.43064 16.1136 7.76391 16.1136 8.10071C16.0922 8.10495 16.0728 8.1113 16.0534 8.1113C15.3007 8.10636 14.5473 8.12401 13.7959 8.09012C12.571 8.03505 11.6347 7.07337 11.5447 5.82856C11.5073 5.30959 11.5392 4.80051 11.7511 4.3225C12.1354 3.45614 12.8161 3.00355 13.7308 2.90258C14.2841 2.84115 14.8256 2.89552 15.3318 3.14971C16.0257 3.4971 16.4336 4.07396 16.5942 4.83652C16.6517 5.10765 16.5097 5.35831 16.2528 5.43457C15.2764 5.72476 14.2994 6.00931 13.3216 6.29527C13.3105 6.2988 13.2981 6.29739 13.2697 6.29951Z" fill="black"/>
<path d="M40.7937 7.08417C40.8546 7.08417 40.8975 7.08417 40.9412 7.08417C41.5325 7.08417 42.1246 7.08417 42.716 7.08417C42.9549 7.08417 43.1903 7.06158 43.4133 6.96485C43.6404 6.86599 43.7616 6.71701 43.7457 6.54473C43.7249 6.31455 43.5622 6.20722 43.3704 6.16698C43.0407 6.09708 42.7042 6.05895 42.3725 5.99681C42.0768 5.94103 41.777 5.89161 41.4903 5.80194C40.9703 5.63954 40.705 5.24979 40.6614 4.70893C40.5922 3.8567 41.0305 3.26359 41.8933 3.05036C42.1336 2.99105 42.3857 2.95928 42.6329 2.95363C43.2443 2.94021 43.8565 2.94868 44.4686 2.94868C44.4963 2.94868 44.524 2.95221 44.56 2.95504C44.56 3.28901 44.56 3.61946 44.56 3.97249C44.5164 3.97249 44.47 3.97249 44.4243 3.97249C43.8489 3.97249 43.2727 3.96261 42.6973 3.97744C42.4674 3.98309 42.2326 4.02051 42.011 4.08405C41.7548 4.15819 41.6406 4.32412 41.6503 4.51617C41.6593 4.6941 41.7853 4.83532 42.0422 4.89039C42.3843 4.96312 42.7326 5.00125 43.0767 5.06409C43.3337 5.11069 43.5919 5.15729 43.8419 5.23284C44.4139 5.40583 44.7179 5.82029 44.7421 6.42752C44.7698 7.1223 44.4665 7.60667 43.8239 7.89475C43.4825 8.04796 43.1218 8.10233 42.7534 8.10586C42.1378 8.11151 41.5215 8.10798 40.9059 8.10798C40.8574 8.10798 40.7937 8.12634 40.7937 8.03949C40.7937 7.72811 40.7937 7.41673 40.7937 7.08417Z" fill="black"/>
<path d="M33.3929 8.10978C33.0467 8.10978 32.7136 8.1126 32.3805 8.10484C32.3493 8.10413 32.3057 8.042 32.2912 8.00034C31.9699 7.08244 31.652 6.16313 31.3335 5.24452C31.2144 4.90066 31.096 4.5568 30.9741 4.21436C30.9526 4.15364 30.9249 4.0915 30.8868 4.04066C30.7802 3.89945 30.5822 3.8825 30.4644 4.01313C30.4014 4.08303 30.3536 4.17482 30.3218 4.2652C29.8869 5.50718 29.4548 6.74988 29.0262 7.99398C28.9957 8.08224 28.9583 8.11402 28.8655 8.1119C28.5518 8.10554 28.2381 8.10978 27.9141 8.10978C27.9231 8.06883 27.9272 8.03776 27.9376 8.00881C28.4424 6.57901 28.9458 5.1492 29.4534 3.72081C29.6286 3.22656 30.103 2.906 30.6479 2.90176C31.1936 2.89823 31.6804 3.21102 31.8549 3.70175C32.3673 5.14567 32.8722 6.59242 33.3797 8.03847C33.3846 8.054 33.3853 8.07024 33.3929 8.10978Z" fill="black"/>
<path d="M39.6983 8.11045C39.4123 8.11045 39.1402 8.11045 38.8681 8.11045C38.6285 8.11045 38.6278 8.11045 38.5474 7.87886C38.1243 6.65947 37.7012 5.43937 37.2781 4.21998C37.2311 4.0837 37.168 3.96085 37.0108 3.93331C36.8516 3.90577 36.7207 3.99615 36.648 4.19032C36.5635 4.41627 36.4873 4.64503 36.4084 4.87239C36.0462 5.91456 35.6834 6.95602 35.3247 7.99889C35.297 8.08009 35.2624 8.11398 35.173 8.11257C34.8566 8.10622 34.5394 8.11045 34.207 8.11045C34.225 8.05467 34.2382 8.01302 34.2527 7.97206C34.7478 6.5698 35.2423 5.16753 35.7374 3.76526C35.9264 3.23006 36.3918 2.90244 36.9617 2.90173C37.5281 2.90173 37.9907 3.23076 38.1804 3.77091C38.6735 5.17389 39.1665 6.57686 39.6589 7.97983C39.672 8.01725 39.6817 8.05609 39.6983 8.11045Z" fill="black"/>
<path d="M27.8406 2.905C27.7035 3.29758 27.5733 3.6711 27.4424 4.0439C27.0657 5.11573 26.689 6.18684 26.3123 7.25867C26.1288 7.77975 25.6669 8.10737 25.106 8.11231C24.5437 8.11726 24.0659 7.79034 23.881 7.26785C23.3804 5.85428 22.8811 4.44072 22.3811 3.02645C22.3694 2.99256 22.3604 2.95725 22.3438 2.9043C22.5065 2.9043 22.6567 2.9043 22.8077 2.9043C22.9725 2.9043 23.138 2.91065 23.3028 2.90218C23.397 2.89724 23.4337 2.93325 23.4635 3.0208C23.8935 4.26843 24.3284 5.51466 24.7612 6.76159C24.7667 6.77712 24.7709 6.79266 24.7764 6.80819C24.8477 6.99459 24.9599 7.09133 25.1053 7.08638C25.2854 7.08003 25.3608 6.95152 25.4128 6.80184C25.7209 5.9143 26.0284 5.02605 26.3358 4.13781C26.4653 3.76359 26.5976 3.38937 26.7229 3.01374C26.7513 2.92901 26.7908 2.90147 26.8781 2.90359C27.1917 2.90853 27.5054 2.905 27.8406 2.905Z" fill="black"/>
<path d="M17.8223 0.896484C18.1553 0.896484 18.4787 0.896484 18.809 0.896484C18.809 3.30138 18.809 5.69851 18.809 8.1034C18.4787 8.1034 18.1553 8.1034 17.8223 8.1034C17.8223 5.70345 17.8223 3.30632 17.8223 0.896484Z" fill="black"/>
<path d="M21.156 2.95703C21.156 4.67491 21.156 6.38362 21.156 8.1008C20.8271 8.1008 20.503 8.1008 20.1699 8.1008C20.1699 6.38644 20.1699 4.67491 20.1699 2.95703C20.4988 2.95703 20.8195 2.95703 21.156 2.95703Z" fill="black"/>
<path d="M21.1518 1.90406C20.8236 1.90406 20.5023 1.90406 20.1699 1.90406C20.1699 1.57079 20.1699 1.23823 20.1699 0.896484C20.4961 0.896484 20.8195 0.896484 21.1518 0.896484C21.1518 1.22905 21.1518 1.55949 21.1518 1.90406Z" fill="black"/>
</svg>
