<svg width="164" height="43" viewBox="0 0 164 43" fill="none" xmlns="http://www.w3.org/2000/svg">
<g clip-path="url(#clip0_18846_15749)">
<mask id="mask0_18846_15749" style="mask-type:luminance" maskUnits="userSpaceOnUse" x="0" y="1" width="95" height="42">
<path d="M94.5 1H0V43H94.5V1Z" fill="white"/>
</mask>
<g mask="url(#mask0_18846_15749)">
<path d="M13.8301 21.0696C13.8301 20.601 13.8301 20.1624 13.8301 19.7001C15.3196 19.7001 16.7993 19.7001 18.3156 19.7001C18.3156 19.4422 18.318 19.2068 18.3143 18.9712C18.3107 18.6685 18.39 18.3208 18.2692 18.0766C18.1519 17.8411 17.8284 17.7103 17.5929 17.5371C16.8676 17.0038 16.1399 16.4742 15.4172 15.9385C15.3183 15.8649 15.2476 15.855 15.1389 15.9272C14.1792 16.5577 13.2136 17.1795 12.254 17.8112C12.1893 17.8535 12.1196 17.9508 12.1196 18.0218C12.1123 19.5568 12.1148 21.0907 12.1148 22.6258C12.1148 22.6457 12.1221 22.667 12.1282 22.7018C15.1694 22.7018 18.2093 22.7018 21.27 22.7018C21.27 22.6233 21.27 22.5535 21.27 22.4825C21.27 19.492 21.27 16.503 21.27 13.5125C21.27 12.938 21.0137 12.6751 20.452 12.6751C16.9592 12.6751 13.4675 12.6751 9.9746 12.6751C9.41176 12.6751 9.15537 12.9343 9.15537 13.51C9.15418 17.3252 9.15537 21.1405 9.15537 24.9558C9.15537 25.5427 9.40809 25.797 9.98924 25.797C14.0999 25.797 18.2093 25.797 22.32 25.797C22.4103 25.797 22.5019 25.797 22.6057 25.797C22.6057 26.2605 22.6057 26.7053 22.6057 27.1775C22.519 27.1775 22.4434 27.1775 22.3676 27.1775C18.2289 27.1775 14.0902 27.1775 9.95264 27.1775C8.68535 27.1775 7.80879 26.2854 7.80879 24.997C7.80755 21.1531 7.80755 17.3091 7.80879 13.4651C7.80879 12.2016 8.68782 11.2983 9.92333 11.297C13.4517 11.2945 16.9787 11.2945 20.5071 11.297C21.7278 11.2983 22.6179 12.2029 22.6191 13.4501C22.6227 16.7297 22.6203 20.0092 22.6203 23.2887C22.6203 23.8369 22.3602 24.0999 21.822 24.0999C18.3998 24.0999 14.979 24.0999 11.5568 24.0999C11.0184 24.0999 10.7547 23.8345 10.7547 23.2911C10.7535 21.4022 10.756 19.512 10.7523 17.623C10.7511 17.2954 10.8768 17.0636 11.1503 16.8879C12.3809 16.0979 13.6054 15.298 14.8324 14.5018C15.2097 14.2576 15.4233 14.2638 15.7871 14.5292C16.9531 15.379 18.1166 16.2325 19.2874 17.076C19.5487 17.2641 19.6683 17.4959 19.6634 17.8261C19.6512 18.6436 19.6597 19.4622 19.661 20.2808C19.661 20.8078 19.4082 21.0708 18.8955 21.0708C17.2766 21.072 15.659 21.0708 14.0401 21.0708C13.9778 21.0696 13.9143 21.0696 13.8301 21.0696Z" fill="black"/>
<path d="M31.2015 22.4125C31.0415 21.8431 30.884 21.2823 30.7192 20.6967C32.1697 20.2743 33.6078 19.8557 35.0668 19.4308C34.7737 18.9049 34.3684 18.5523 33.83 18.3691C33.0743 18.1137 32.3063 18.105 31.5494 18.3504C30.6325 18.6471 30.1393 19.3311 29.9647 20.2694C29.8451 20.9136 29.9061 21.549 30.1088 22.1746C30.4104 23.1065 31.0709 23.59 31.9865 23.7532C32.216 23.7944 32.4529 23.8031 32.6861 23.8031C33.7787 23.808 34.8726 23.8055 35.9654 23.8055C36.0422 23.8055 36.1191 23.8055 36.2157 23.8055C36.2157 24.4087 36.2157 24.9968 36.2157 25.5911C36.1777 25.5986 36.1434 25.6097 36.1096 25.6097C34.7823 25.6011 33.454 25.6322 32.1293 25.5724C29.9696 25.4752 28.319 23.7782 28.1603 21.5814C28.0944 20.6656 28.1505 19.7672 28.5242 18.9236C29.2017 17.3948 30.4018 16.596 32.0146 16.4179C32.9901 16.3095 33.9448 16.4054 34.8372 16.854C36.0605 17.467 36.7794 18.485 37.0629 19.8308C37.1642 20.3092 36.9138 20.7516 36.4612 20.8861C34.7395 21.3982 33.0169 21.9004 31.293 22.4051C31.2735 22.4113 31.2515 22.4087 31.2015 22.4125Z" fill="black"/>
<path d="M79.7276 23.7967C79.8352 23.7967 79.9111 23.7967 79.9878 23.7967C81.0305 23.7967 82.0743 23.7967 83.117 23.7967C83.538 23.7967 83.9531 23.7568 84.3461 23.5862C84.7468 23.4117 84.9604 23.1488 84.9322 22.8447C84.8955 22.4385 84.6089 22.2491 84.2707 22.1781C83.6897 22.0548 83.0961 21.9875 82.5111 21.8778C81.9901 21.7794 81.4615 21.6922 80.9557 21.534C80.0389 21.2474 79.5715 20.5596 79.4946 19.6051C79.3725 18.1012 80.1451 17.0545 81.6663 16.6783C82.0901 16.5736 82.5344 16.5175 82.9702 16.5075C84.0482 16.4839 85.1275 16.4988 86.2069 16.4988C86.2556 16.4988 86.3045 16.505 86.368 16.51C86.368 17.0993 86.368 17.6825 86.368 18.3055C86.2911 18.3055 86.2094 18.3055 86.1286 18.3055C85.1141 18.3055 84.0983 18.2881 83.0838 18.3143C82.6786 18.3243 82.2647 18.3903 81.8741 18.5024C81.4223 18.6332 81.221 18.9261 81.2379 19.265C81.2538 19.579 81.4759 19.8282 81.929 19.9253C82.532 20.0537 83.1462 20.1209 83.753 20.2319C84.2058 20.3141 84.6614 20.3963 85.1019 20.5296C86.1102 20.8349 86.6462 21.5664 86.6892 22.638C86.738 23.864 86.2033 24.7188 85.0701 25.2272C84.4686 25.4975 83.8324 25.5934 83.1829 25.5998C82.0976 25.6096 81.0108 25.6034 79.9255 25.6034C79.8401 25.6034 79.7276 25.6358 79.7276 25.4826C79.7276 24.9331 79.7276 24.3835 79.7276 23.7967Z" fill="black"/>
<path d="M66.6839 25.6068C66.0735 25.6068 65.4864 25.6117 64.899 25.5981C64.844 25.5968 64.7671 25.4871 64.7417 25.4136C64.175 23.7938 63.6147 22.1715 63.0531 20.5505C62.8433 19.9436 62.6346 19.3368 62.4194 18.7326C62.3817 18.6253 62.3327 18.5157 62.2657 18.4259C62.0777 18.1768 61.7287 18.1469 61.5209 18.3775C61.4099 18.5008 61.3256 18.6627 61.2696 18.8223C60.5026 21.014 59.741 23.207 58.9854 25.4025C58.9314 25.5582 58.8655 25.6143 58.7019 25.6106C58.1489 25.5993 57.5957 25.6068 57.0244 25.6068C57.0404 25.5346 57.0477 25.4797 57.066 25.4287C57.956 22.9055 58.8436 20.3822 59.7385 17.8616C60.0474 16.9893 60.8839 16.4236 61.8443 16.4161C62.8066 16.4099 63.6648 16.9619 63.9724 17.8279C64.876 20.376 65.7661 22.929 66.6606 25.4809C66.6695 25.5084 66.6705 25.537 66.6839 25.6068Z" fill="black"/>
<path d="M77.7992 25.6079C77.2951 25.6079 76.8151 25.6079 76.3355 25.6079C75.9131 25.6079 75.9117 25.6079 75.7699 25.1993C75.0241 23.0475 74.278 20.8943 73.5323 18.7425C73.4494 18.502 73.3379 18.2851 73.0609 18.2366C72.7802 18.188 72.5496 18.3475 72.4212 18.6901C72.2724 19.0888 72.138 19.4925 71.9988 19.8938C71.3602 21.7329 70.7205 23.5708 70.0883 25.4111C70.0393 25.5544 69.9783 25.6143 69.8207 25.6117C69.2628 25.6005 68.7037 25.6079 68.1176 25.6079C68.1493 25.5095 68.1726 25.436 68.1983 25.3638C69.0714 22.8892 69.943 20.4146 70.8158 17.94C71.149 16.9955 71.9695 16.4174 72.9745 16.4161C73.973 16.4161 74.7886 16.9968 75.1229 17.95C75.9924 20.4259 76.8616 22.9016 77.7297 25.3774C77.7528 25.4435 77.77 25.512 77.7992 25.6079Z" fill="black"/>
<path d="M56.8957 16.4219C56.6542 17.1147 56.4246 17.7738 56.1936 18.4318C55.5297 20.3232 54.8654 22.2134 54.2014 24.1049C53.8777 25.0244 53.0635 25.6027 52.0744 25.6113C51.0833 25.62 50.2409 25.0431 49.9147 24.1211C49.0321 21.6266 48.152 19.132 47.2705 16.6363C47.2496 16.5764 47.2338 16.5141 47.2045 16.4207C47.4915 16.4207 47.7564 16.4207 48.0226 16.4207C48.3132 16.4207 48.6048 16.4319 48.8953 16.4169C49.0613 16.4082 49.1262 16.4718 49.1788 16.6263C49.9369 18.828 50.7035 21.0272 51.4666 23.2276C51.4764 23.2551 51.4838 23.2825 51.4934 23.3099C51.6193 23.6389 51.817 23.8096 52.0734 23.8008C52.3907 23.7897 52.5237 23.5629 52.6154 23.2987C53.1587 21.7325 53.7007 20.1649 54.2426 18.5975C54.4711 17.9371 54.7042 17.2767 54.9253 16.6138C54.9753 16.4644 55.0448 16.4157 55.1986 16.4195C55.7518 16.4282 56.3047 16.4219 56.8957 16.4219Z" fill="black"/>
<path d="M39.2299 12.8774C39.8168 12.8774 40.3871 12.8774 40.9696 12.8774C40.9696 17.1213 40.9696 21.3515 40.9696 25.5954C40.3871 25.5954 39.8168 25.5954 39.2299 25.5954C39.2299 21.3603 39.2299 17.13 39.2299 12.8774Z" fill="black"/>
<path d="M45.1089 16.5135C45.1089 19.5451 45.1089 22.5604 45.1089 25.5907C44.5289 25.5907 43.9577 25.5907 43.3706 25.5907C43.3706 22.5655 43.3706 19.5451 43.3706 16.5135C43.9503 16.5135 44.5155 16.5135 45.1089 16.5135Z" fill="black"/>
<path d="M45.1016 14.6554C44.5229 14.6554 43.9563 14.6554 43.3706 14.6554C43.3706 14.0673 43.3706 13.4805 43.3706 12.8774C43.9453 12.8774 44.5155 12.8774 45.1016 12.8774C45.1016 13.4643 45.1016 14.0474 45.1016 14.6554Z" fill="black"/>
<path d="M8.28777 32.278H9.57371V32.668H7.80786V28.9891H8.28777V32.278Z" fill="black"/>
<path d="M11.3919 28.9891V31.3173C11.3919 31.6446 11.4713 31.8872 11.631 32.0455C11.7916 32.204 12.0144 32.283 12.2999 32.283C12.5809 32.283 12.8007 32.204 12.9605 32.0455C13.121 31.8872 13.2012 31.6446 13.2012 31.3173V28.9891H13.6812V31.3122C13.6812 31.6181 13.6193 31.8759 13.4956 32.0856C13.3727 32.2944 13.2067 32.45 12.9972 32.5525C12.7886 32.6542 12.5545 32.7048 12.2949 32.7048C12.034 32.7048 11.7987 32.6542 11.5892 32.5525C11.3806 32.45 11.2155 32.2944 11.0943 32.0856C10.9726 31.8759 10.912 31.6181 10.912 31.3122V28.9891H11.3919Z" fill="black"/>
<path d="M16.8224 30.8319L17.9512 32.668H17.4077L16.5281 31.2319L15.6886 32.668H15.1569L16.2805 30.8319L15.1519 28.9891H15.6886L16.5749 30.4302L17.4193 28.9891H17.9561L16.8224 30.8319Z" fill="black"/>
<path d="M19.9014 28.9891V31.3173C19.9014 31.6446 19.9808 31.8872 20.1404 32.0455C20.301 32.204 20.5239 32.283 20.8094 32.283C21.0903 32.283 21.3102 32.204 21.4699 32.0455C21.6304 31.8872 21.7106 31.6446 21.7106 31.3173V28.9891H22.1906V31.3122C22.1906 31.6181 22.1287 31.8759 22.005 32.0856C21.8821 32.2944 21.7161 32.45 21.5067 32.5525C21.2981 32.6542 21.0639 32.7048 20.8044 32.7048C20.5435 32.7048 20.3082 32.6542 20.0987 32.5525C19.8901 32.45 19.725 32.2944 19.6037 32.0856C19.482 31.8759 19.4214 31.6181 19.4214 31.3122V28.9891H19.9014Z" fill="black"/>
<path d="M25.7649 32.668L24.8903 31.1633H24.31V32.668H23.8301V28.9891H25.0157C25.2932 28.9891 25.5278 29.0371 25.7197 29.133C25.9112 29.228 26.0546 29.3564 26.1494 29.518C26.2439 29.6799 26.2916 29.8645 26.2916 30.072C26.2916 30.3256 26.2184 30.549 26.0725 30.7432C25.9274 30.9365 25.7088 31.0642 25.417 31.1265L26.3401 32.668H25.7649ZM24.31 30.7784H25.0157C25.2765 30.7784 25.4714 30.7144 25.601 30.5858C25.7315 30.4578 25.7966 30.2863 25.7966 30.072C25.7966 29.8536 25.7322 29.6845 25.6043 29.5648C25.4759 29.4456 25.2798 29.3858 25.0157 29.3858H24.31V30.7784Z" fill="black"/>
<path d="M30.4458 28.9891L29.2501 31.2805V32.668H28.7702V31.2805L27.5679 28.9891H28.0997L29.0076 30.852L29.9141 28.9891H30.4458Z" fill="black"/>
<path d="M37.074 28.9891L35.6878 32.668H35.1341L33.7462 28.9891H34.2579L35.4134 32.1608L36.5673 28.9891H37.074Z" fill="black"/>
<path d="M38.9195 28.9891V32.668H38.4396V28.9891H38.9195Z" fill="black"/>
<path d="M41.055 32.278H42.3406V32.668H40.5751V28.9891H41.055V32.278Z" fill="black"/>
<path d="M44.1706 32.278H45.4567V32.668H43.6908V28.9891H44.1706V32.278Z" fill="black"/>
<path d="M48.9788 31.8495H47.3755L47.0811 32.668H46.5743L47.9038 29.0109H48.4574L49.78 32.668H49.2733L48.9788 31.8495ZM48.8421 31.4596L48.1781 29.6016L47.5124 31.4596H48.8421Z" fill="black"/>
<path d="M56.2289 30.0553C56.1259 29.841 55.9779 29.6752 55.784 29.5581C55.5911 29.4402 55.3664 29.3807 55.1101 29.3807C54.8534 29.3807 54.6224 29.4402 54.4162 29.5581C54.2109 29.6752 54.0491 29.8439 53.9313 30.0636C53.8143 30.2837 53.7557 30.5381 53.7557 30.8268C53.7557 31.1148 53.8143 31.3683 53.9313 31.5868C54.0491 31.8043 54.2109 31.9726 54.4162 32.0906C54.6224 32.2078 54.8534 32.2663 55.1101 32.2663C55.4687 32.2663 55.7645 32.1592 55.9965 31.945C56.2279 31.7307 56.3636 31.4408 56.4027 31.0745H54.9363V30.6829H56.9127V31.0528C56.8848 31.3554 56.79 31.6328 56.6284 31.8847C56.4666 32.1358 56.2539 32.3345 55.9898 32.4805C55.7264 32.627 55.4334 32.6999 55.1101 32.6999C54.7691 32.6999 54.4581 32.6203 54.1771 32.4605C53.896 32.2999 53.6739 32.0772 53.5099 31.7926C53.3467 31.5073 53.2656 31.1851 53.2656 30.8268C53.2656 30.4678 53.3467 30.1448 53.5099 29.8578C53.6739 29.5711 53.896 29.3481 54.1771 29.1882C54.4581 29.0275 54.7691 28.9472 55.1101 28.9472C55.5001 28.9472 55.845 29.0442 56.1454 29.2384C56.4461 29.4317 56.6655 29.7037 56.8022 30.0553H56.2289Z" fill="black"/>
<path d="M58.8646 29.3807V30.6092H60.2039V31.006H58.8646V32.273H60.3612V32.668H58.3848V28.984H60.3612V29.3807H58.8646Z" fill="black"/>
<path d="M64.1884 28.9891V29.3807H63.1866V32.668H62.7068V29.3807H61.7001V28.9891H64.1884Z" fill="black"/>
<path d="M67.7904 31.8495H66.1866L65.8921 32.668H65.3859L66.7152 29.0109H67.2684L68.5914 32.668H68.0847L67.7904 31.8495ZM67.6531 31.4596L66.9892 29.6016L66.3238 31.4596H67.6531Z" fill="black"/>
<path d="M74.6286 28.9891L73.5633 32.668H73.0249L72.1723 29.7071L71.2858 32.668L70.7523 32.6731L69.7255 28.9891H70.2358L71.0383 32.109L71.923 28.9891H72.4614L73.3042 32.0973L74.1121 28.9891H74.6286Z" fill="black"/>
<path d="M78.166 31.8495H76.5624L76.2679 32.668H75.7612L77.0909 29.0109H77.6441L78.9668 32.668H78.4605L78.166 31.8495ZM78.0288 31.4596L77.3648 29.6016L76.6995 31.4596H78.0288Z" fill="black"/>
<path d="M82.9572 28.9891L81.7616 31.2805V32.668H81.2817V31.2805L80.0796 28.9891H80.6113L81.5194 30.852L82.4255 28.9891H82.9572Z" fill="black"/>
<path d="M85.4683 32.7048C85.2249 32.7048 85.0078 32.6622 84.8163 32.5759C84.6241 32.4901 84.4738 32.371 84.3645 32.2178C84.2563 32.0638 84.2006 31.8872 84.1974 31.6872H84.7091C84.7259 31.8591 84.7965 32.0043 84.9214 32.1224C85.0461 32.2395 85.2284 32.2981 85.4683 32.2981C85.6964 32.2981 85.8765 32.2412 86.0084 32.1274C86.1396 32.0127 86.2059 31.8658 86.2059 31.6872C86.2059 31.5458 86.1665 31.4311 86.0888 31.3441C86.0116 31.2562 85.9153 31.1893 85.7993 31.1432C85.6833 31.0975 85.5271 31.0478 85.331 30.9942C85.0877 30.9318 84.8934 30.8687 84.7474 30.8051C84.6012 30.7416 84.4767 30.6424 84.373 30.5071C84.2694 30.3711 84.2175 30.1891 84.2175 29.9615C84.2175 29.7606 84.268 29.5828 84.3694 29.4275C84.4722 29.2728 84.6156 29.153 84.7993 29.0694C84.9841 28.9849 85.1964 28.9423 85.4365 28.9423C85.781 28.9423 86.0627 29.0288 86.2827 29.2016C86.5021 29.3736 86.6258 29.6016 86.6538 29.8862H86.1272C86.1093 29.7456 86.0353 29.6217 85.9047 29.5146C85.775 29.4074 85.6029 29.3539 85.3878 29.3539C85.1883 29.3539 85.025 29.4058 84.8981 29.5096C84.7719 29.6134 84.7091 29.7586 84.7091 29.9448C84.7091 30.0787 84.7464 30.1883 84.8212 30.2729C84.8966 30.3566 84.9901 30.421 85.1005 30.4653C85.2116 30.5088 85.3681 30.5586 85.5687 30.6143C85.8102 30.6812 86.0049 30.7478 86.1523 30.8134C86.3 30.8783 86.4269 30.9788 86.5317 31.1147C86.6374 31.2499 86.6907 31.4337 86.6907 31.6654C86.6907 31.8453 86.6431 32.0145 86.5486 32.1726C86.4537 32.3312 86.3131 32.4596 86.1272 32.5576C85.9408 32.6558 85.721 32.7048 85.4683 32.7048Z" fill="black"/>
</g>
</g>
<path d="M111.833 30.3334L113.167 31.6667C113.298 31.798 113.454 31.9022 113.626 31.9733C113.797 32.0443 113.981 32.0809 114.167 32.0809C114.352 32.0809 114.536 32.0443 114.708 31.9733C114.879 31.9022 115.035 31.798 115.167 31.6667C115.298 31.5354 115.402 31.3795 115.473 31.2079C115.544 31.0363 115.581 30.8524 115.581 30.6667C115.581 30.481 115.544 30.2971 115.473 30.1255C115.402 29.9539 115.298 29.798 115.167 29.6667M113.833 28.3334L115.5 30C115.765 30.2652 116.125 30.4142 116.5 30.4142C116.875 30.4142 117.235 30.2652 117.5 30C117.765 29.7348 117.914 29.3751 117.914 29C117.914 28.625 117.765 28.2652 117.5 28L114.913 25.4134C114.538 25.0388 114.03 24.8285 113.5 24.8285C112.97 24.8285 112.462 25.0388 112.087 25.4134L111.5 26C111.235 26.2652 110.875 26.4142 110.5 26.4142C110.125 26.4142 109.765 26.2652 109.5 26C109.235 25.7348 109.086 25.3751 109.086 25C109.086 24.625 109.235 24.2652 109.5 24L111.373 22.1267C111.982 21.5201 112.775 21.1337 113.627 21.0287C114.48 20.9236 115.343 21.1059 116.08 21.5467L116.393 21.7334C116.677 21.9047 117.015 21.9641 117.34 21.9L118.5 21.6667M118.5 21L119.167 28.3334H117.833M106.5 21L105.833 28.3334L110.167 32.6667C110.432 32.9319 110.792 33.0809 111.167 33.0809C111.542 33.0809 111.901 32.9319 112.167 32.6667C112.432 32.4015 112.581 32.0418 112.581 31.6667C112.581 31.2916 112.432 30.9319 112.167 30.6667M106.5 21.6667H111.833" stroke="#1B0107" stroke-opacity="0.3" stroke-width="1.33333" stroke-linecap="round" stroke-linejoin="round"/>
<g clip-path="url(#clip1_18846_15749)">
<path fill-rule="evenodd" clip-rule="evenodd" d="M135.822 29.2371H144.161V33.0002H130.824V16.6289H140.299L142.506 20.3921H135.822V23.0938H141.857V26.5353H135.822V29.2371ZM153.052 16.6289L150.229 21.9681L147.406 16.6289H141.857L147.698 26.5353V33.0002H152.695V26.5353L158.535 16.6289H153.052Z" fill="#161D23"/>
<path fill-rule="evenodd" clip-rule="evenodd" d="M163.5 0L130.5 11.8363L163.5 6.11111V0Z" fill="#FFE600"/>
</g>
<defs>
<clipPath id="clip0_18846_15749">
<rect width="94.5" height="42" fill="white" transform="translate(0 1)"/>
</clipPath>
<clipPath id="clip1_18846_15749">
<rect width="33" height="33" fill="white" transform="translate(130.5)"/>
</clipPath>
</defs>
</svg>
