<?xml version="1.0" encoding="UTF-8"?>
<svg id="Layer_1" xmlns="http://www.w3.org/2000/svg" width="128" version="1.1" viewBox="0 0 391.1 122">
  <!-- Generator: Adobe Illustrator 30.0.0, SVG Export Plug-In . SVG Version: 2.1.1 Build 123)  -->
  <defs>
    <style>
      .st0 {
        fill: #fff;
      }
    </style>
  </defs>
  <path class="st0" d="M388.8,27.3v8.9h-18.8c-1.6,0-3.3.4-4.7,1.2s-1.6,1.2-2,2c-1,2.2,1.4,4.8,3.6,5s14.6,1.4,16,2.5,5.2,1,7.3,7.5c2.1,6.5-2.6,11.5-2.6,11.5,0,0-1.2,1.8-4.4,3.4-2.4,1.2-5,1.8-7.7,1.9l-19.9.5v-9.1h20.3c1.1,0,2.2-.2,3.2-.6,1.4-.6,3-1.9,2.6-4.2-.6-4.2-10.3-4.1-10.3-4.1,0,0-9.6-.9-12-3.2,0,0-5.7-1.7-4.7-12.2s14.5-10.8,14.5-10.8l19.6-.2Z"/>
  <path class="st0" d="M345.5,71.8h-10l-11-32.1c-.5-1.5-1.9-2.4-3.5-2.4h0c-1.4,0-2.7,1-3.2,2.4l-11.3,32.2h-9.6c0-.1,13.7-37.6,13.7-37.6,1.6-4.3,5.7-7.2,10.3-7.2h0c4.5,0,8.6,2.8,10.2,7l14.4,37.7Z"/>
  <path class="st0" d="M291,71.8h-10l-11-32.1c-.5-1.5-1.9-2.4-3.5-2.4h0c-1.4,0-2.7,1-3.2,2.4l-11.3,32.2h-9.6c0-.1,13.7-37.6,13.7-37.6,1.6-4.3,5.7-7.2,10.3-7.2h0c4.5,0,8.6,2.8,10.2,7l14.4,37.7Z"/>
  <path class="st0" d="M194.8,27.1h10l11,32.1c.5,1.5,1.9,2.4,3.5,2.4h0c1.4,0,2.7-1,3.2-2.4l11.3-32.2h9.6c0,.1-13.7,37.6-13.7,37.6-1.6,4.3-5.7,7.2-10.3,7.2h0c-4.5,0-8.6-2.8-10.2-7l-14.4-37.7Z"/>
  <path class="st0" d="M29.9,43h21.4c.4,0,.7-.3.7-.7v-7c0-.4-.2-.7-.5-.9l-14.1-9.7c-.3-.2-.6-.2-.9,0l-14.6,9.4c-.4.2-.6.7-.6,1.1v21.8c0,.3.3.6.6.6h44.4c.3,0,.5-.2.5-.5V13.1c0-2.5-2-4.5-4.5-4.5H10.5c-2.1,0-3.8,1.7-3.8,3.8v56.5c0,2,1.6,3.5,3.5,3.5h62.8v6.4H7.5c-4,0-7.3-3.3-7.3-7.3V11.4C.2,6.3,4.4,2.2,9.5,2.2h53.4c5.8,0,10.5,4.7,10.5,10.5v49.3c0,1.3-1.1,2.4-2.4,2.4H17.6c-1.3,0-2.4-1.1-2.4-2.4v-30c0-.9.5-1.8,1.2-2.3l19.5-12.6c.7-.4,1.6-.4,2.3,0l19,14c.6.4.9,1.1.9,1.8v13.8c0,1.6-1.3,2.9-2.9,2.9h-25.4s.2-6.3,0-6.6Z"/>
  <path class="st0" d="M119.2,71.6c-14.8-1.7-21.8-16.8-17.7-30.3,5.3-17.3,31.6-19.5,40.3-4.5,2,3.4,4.9,9.6-.1,11.8l-26.2,7.3-2.2-7.9,21.2-6.5c-3.4-6-11.4-7-17.5-5-12.7,4.3-9.1,26.4,3.5,26.4h20.1v.6s0,7.4,0,7.4v.6c-6.5,0-15,.7-21.4,0Z"/>
  <polygon class="st0" points="163.5 9.7 163.5 71.6 154.9 71.6 154.9 70.9 154.9 10.4 154.9 9.7 163.5 9.7"/>
  <polygon class="st0" points="184.3 71.6 175.7 71.6 175.7 27.5 184.3 27.5 184.3 28.1 184.3 71.6"/>
  <polygon class="st0" points="175.7 18.8 175.7 9.7 184.3 9.7 184.3 10.4 184.3 18.2 184.3 18.8 175.7 18.8"/>
  <g>
    <path class="st0" d="M3.3,102.8v5.7h6.3v1.7H3.3v5.8h7v1.7H1.2v-16.6h9.2v1.7H3.3Z"/>
    <path class="st0" d="M26.6,117.7l-4.2-6.6-3.8,6.6h-2.5l5.1-8.5-5.2-8.2h2.6l4.1,6.5,3.8-6.5h2.5l-5.1,8.3,5.2,8.3h-2.5Z"/>
    <path class="st0" d="M37.8,111v6.7h-2.1v-16.6h5.3c1.9,0,3.3.4,4.3,1.3s1.4,2.1,1.4,3.6-.5,2.8-1.5,3.6c-1,.9-2.4,1.3-4.2,1.3h-3.1ZM43.5,108.4c.6-.6.9-1.3.9-2.3s-.3-1.8-.9-2.4c-.6-.5-1.5-.8-2.8-.8h-3v6.3h3c1.3,0,2.2-.3,2.8-.8Z"/>
    <path class="st0" d="M55.5,102.8v5.7h6.3v1.7h-6.3v5.8h7v1.7h-9.2v-16.6h9.2v1.7h-7Z"/>
    <path class="st0" d="M78.4,117.7l-4.3-6.8h-2.3v6.8h-2.1v-16.6h5.5c1.9,0,3.3.5,4.2,1.4s1.4,2.1,1.4,3.6-.4,2.4-1.1,3.3-1.8,1.3-3.3,1.5l4.5,6.9h-2.4ZM71.7,109.4h3.1c2.4,0,3.7-1.1,3.7-3.2s-1.2-3.2-3.7-3.2h-3.1v6.4Z"/>
    <path class="st0" d="M89.7,101.1v16.6h-2.1v-16.6h2.1Z"/>
    <path class="st0" d="M99.5,102.8v5.7h6.3v1.7h-6.3v5.8h7v1.7h-9.2v-16.6h9.2v1.7h-7Z"/>
    <path class="st0" d="M126.5,117.7h-2.1l-8.6-13.1v13.1h-2.1v-16.6h2.1l8.6,13.2v-13.2h2.1v16.6Z"/>
    <path class="st0" d="M146.6,102.4c1.3,1,2.2,2.4,2.7,4.1h-2.3c-.4-1.1-1.1-2-2.1-2.6-.9-.7-2.1-1-3.5-1s-2.1.3-2.9.8c-.9.5-1.5,1.3-2,2.3s-.7,2.1-.7,3.5.2,2.4.7,3.4c.5,1,1.2,1.7,2,2.3.9.5,1.8.8,2.9.8s2.5-.3,3.5-1c.9-.7,1.6-1.5,2.1-2.6h2.3c-.5,1.7-1.4,3.1-2.7,4.1-1.3,1-3,1.5-5,1.5s-2.9-.4-4.1-1.1c-1.2-.7-2.1-1.7-2.8-3-.7-1.3-1-2.7-1-4.4s.3-3.1,1-4.4c.7-1.3,1.6-2.3,2.8-3,1.2-.7,2.6-1.1,4.1-1.1s3.7.5,5,1.5Z"/>
    <path class="st0" d="M158.6,102.8v5.7h6.3v1.7h-6.3v5.8h7v1.7h-9.2v-16.6h9.2v1.7h-7Z"/>
    <path class="st0" d="M192.9,101.1v1.7h-4.7v14.9h-2.1v-14.9h-4.7v-1.7h11.5Z"/>
    <path class="st0" d="M212.1,101.1v16.6h-2.2v-7.7h-8.4v7.7h-2.1v-16.6h2.1v7.2h8.4v-7.2h2.2Z"/>
    <path class="st0" d="M229.5,113.9h-7.3l-1.4,3.8h-2.3l6.2-16.3h2.4l6.1,16.3h-2.3l-1.4-3.8ZM228.9,112.2l-3-8.4-3,8.4h6.1Z"/>
    <path class="st0" d="M249.8,101.1v1.7h-4.7v14.9h-2.1v-14.9h-4.7v-1.7h11.5Z"/>
    <path class="st0" d="M282.9,101.4v16.4h-2.1v-13.1l-5.2,13.1h-1.9l-5.2-13v13h-2.1v-16.4h2.6l5.8,13.7,5.7-13.7h2.6Z"/>
    <path class="st0" d="M300.4,113.9h-7.3l-1.4,3.8h-2.3l6.2-16.3h2.4l6.1,16.3h-2.3l-1.4-3.8ZM299.8,112.2l-3-8.4-3,8.4h6.1Z"/>
    <path class="st0" d="M320.7,101.1v1.7h-4.7v14.9h-2.1v-14.9h-4.7v-1.7h11.5Z"/>
    <path class="st0" d="M337.3,101.1v1.7h-4.7v14.9h-2.1v-14.9h-4.7v-1.7h11.5Z"/>
    <path class="st0" d="M345.8,102.8v5.7h6.3v1.7h-6.3v5.8h7v1.7h-9.2v-16.6h9.2v1.7h-7Z"/>
    <path class="st0" d="M368.7,117.7l-4.3-6.8h-2.3v6.8h-2.1v-16.6h5.5c1.9,0,3.3.5,4.2,1.4s1.4,2.1,1.4,3.6-.4,2.4-1.1,3.3c-.8.8-1.8,1.3-3.3,1.5l4.5,6.9h-2.4ZM362,109.4h3.1c2.4,0,3.7-1.1,3.7-3.2s-1.2-3.2-3.7-3.2h-3.1v6.4Z"/>
    <path class="st0" d="M387.8,115.6c-.4.7-1,1.2-1.7,1.7-.8.4-1.7.6-2.9.6s-2.1-.2-2.9-.6-1.5-1-2.1-1.7c-.5-.7-.8-1.5-.9-2.4h2.3c0,.5.2.9.5,1.4.3.4.7.8,1.2,1.1.5.3,1.1.4,1.9.4s1.7-.3,2.2-.8.8-1.1.8-1.9-.2-1.2-.5-1.7-.8-.8-1.3-1-1.2-.5-2.1-.8c-1.1-.3-1.9-.7-2.5-1-.6-.3-1.2-.8-1.6-1.4-.4-.6-.7-1.4-.7-2.4s.2-1.6.6-2.3c.4-.7,1-1.2,1.8-1.5.8-.4,1.7-.5,2.7-.5,1.6,0,2.9.4,3.9,1.2,1,.8,1.5,1.8,1.7,3h-2.3c-.1-.7-.5-1.2-1-1.7s-1.3-.8-2.2-.8-1.6.2-2.1.7c-.5.4-.8,1.1-.8,1.9s.2,1.2.5,1.6c.3.4.8.7,1.3.9s1.2.5,2.1.8c1.1.3,1.9.7,2.6,1s1.2.8,1.7,1.4c.5.6.7,1.5.7,2.5s-.2,1.5-.6,2.2Z"/>
  </g>
</svg>