<svg width="18" height="18" viewBox="0 0 18 18" fill="none" xmlns="http://www.w3.org/2000/svg">
<path d="M8.99996 13.166C9.23607 13.166 9.43399 13.0862 9.59371 12.9264C9.75343 12.7667 9.83329 12.5688 9.83329 12.3327C9.83329 12.0966 9.75343 11.8987 9.59371 11.7389C9.43399 11.5792 9.23607 11.4993 8.99996 11.4993C8.76385 11.4993 8.56593 11.5792 8.40621 11.7389C8.24649 11.8987 8.16663 12.0966 8.16663 12.3327C8.16663 12.5688 8.24649 12.7667 8.40621 12.9264C8.56593 13.0862 8.76385 13.166 8.99996 13.166ZM8.99996 9.83268C9.23607 9.83268 9.43399 9.75282 9.59371 9.5931C9.75343 9.43338 9.83329 9.23546 9.83329 8.99935V5.66602C9.83329 5.4299 9.75343 5.23199 9.59371 5.07227C9.43399 4.91254 9.23607 4.83268 8.99996 4.83268C8.76385 4.83268 8.56593 4.91254 8.40621 5.07227C8.24649 5.23199 8.16663 5.4299 8.16663 5.66602V8.99935C8.16663 9.23546 8.24649 9.43338 8.40621 9.5931C8.56593 9.75282 8.76385 9.83268 8.99996 9.83268ZM8.99996 17.3327C7.84718 17.3327 6.76385 17.1139 5.74996 16.6764C4.73607 16.2389 3.85413 15.6452 3.10413 14.8952C2.35413 14.1452 1.76038 13.2632 1.32288 12.2493C0.885376 11.2355 0.666626 10.1521 0.666626 8.99935C0.666626 7.84657 0.885376 6.76324 1.32288 5.74935C1.76038 4.73546 2.35413 3.85352 3.10413 3.10352C3.85413 2.35352 4.73607 1.75977 5.74996 1.32227C6.76385 0.884766 7.84718 0.666016 8.99996 0.666016C10.1527 0.666016 11.2361 0.884766 12.25 1.32227C13.2638 1.75977 14.1458 2.35352 14.8958 3.10352C15.6458 3.85352 16.2395 4.73546 16.677 5.74935C17.1145 6.76324 17.3333 7.84657 17.3333 8.99935C17.3333 10.1521 17.1145 11.2355 16.677 12.2493C16.2395 13.2632 15.6458 14.1452 14.8958 14.8952C14.1458 15.6452 13.2638 16.2389 12.25 16.6764C11.2361 17.1139 10.1527 17.3327 8.99996 17.3327Z" fill="#DA9F18"/>
</svg>
