<svg width="884" height="161" viewBox="0 0 884 161" fill="none" xmlns="http://www.w3.org/2000/svg" alt="logo footer"><path d="M46.2723 143.845C43.8578 135.256 41.48 126.799 38.9917 117.966C60.8888 111.594 82.6017 105.28 104.628 98.8709C100.204 90.9398 94.0848 85.621 85.9563 82.8583C74.5469 79.0055 62.9532 78.874 51.5255 82.5764C37.6831 87.0494 30.2366 97.3673 27.6008 111.519C25.7945 121.236 26.716 130.821 29.7757 140.255C34.3284 154.313 44.3001 161.605 58.1241 164.067C61.5893 164.688 65.1651 164.819 68.6856 164.819C85.1822 164.894 101.697 164.857 118.194 164.857C119.355 164.857 120.516 164.857 121.972 164.857C121.972 173.953 121.972 182.824 121.972 191.789C121.401 191.901 120.885 192.071 120.369 192.071C100.333 191.939 80.2793 192.409 60.2806 191.507C27.6745 190.041 2.75455 164.443 0.358396 131.309C-0.636928 117.496 0.210961 103.945 5.85113 91.2217C16.0809 68.1614 34.1994 56.1144 58.548 53.4269C73.2751 51.7918 87.6889 53.2389 101.163 60.0048C119.631 69.2515 130.488 84.6062 134.764 104.904C136.294 112.121 132.515 118.793 125.677 120.822C99.688 128.547 73.6806 136.121 47.6547 143.732C47.3598 143.826 47.028 143.789 46.2723 143.845Z" fill="white"></path><path d="M778.854 164.687C780.476 164.687 781.619 164.687 782.78 164.687C798.521 164.687 814.281 164.687 830.021 164.687C836.38 164.687 842.647 164.085 848.582 161.51C854.628 158.879 857.854 154.914 857.43 150.328C856.877 144.201 852.545 141.344 847.44 140.273C838.666 138.412 829.708 137.398 820.879 135.744C813.009 134.259 805.028 132.943 797.397 130.557C783.555 126.234 776.495 115.86 775.334 101.463C773.491 78.7789 785.158 62.9919 808.124 57.3161C814.52 55.7374 821.229 54.8917 827.81 54.7414C844.085 54.3843 860.379 54.6098 876.673 54.6098C877.41 54.6098 878.147 54.7038 879.106 54.7789C879.106 63.6685 879.106 72.4641 879.106 81.8612C877.944 81.8612 876.709 81.8612 875.493 81.8612C860.176 81.8612 844.841 81.5981 829.524 81.9927C823.404 82.1431 817.156 83.1391 811.258 84.8306C804.438 86.804 801.397 91.2206 801.655 96.3326C801.894 101.069 805.249 104.827 812.087 106.293C821.192 108.229 830.464 109.244 839.624 110.917C846.463 112.157 853.338 113.398 859.992 115.409C875.216 120.013 883.308 131.045 883.953 147.208C884.69 165.701 876.617 178.594 859.513 186.262C850.426 190.34 840.823 191.788 831.017 191.882C814.631 192.032 798.226 191.938 781.84 191.938C780.55 191.938 778.854 192.427 778.854 190.115C778.854 181.827 778.854 173.539 778.854 164.687Z" fill="white"></path><path d="M581.935 191.996C572.719 191.996 563.853 192.072 554.988 191.865C554.158 191.846 552.997 190.192 552.61 189.083C544.057 164.651 535.597 140.181 527.118 115.73C523.948 106.577 520.796 97.4246 517.552 88.3095C516.981 86.6932 516.244 85.0394 515.23 83.6862C512.391 79.9274 507.12 79.4763 503.986 82.9532C502.309 84.8138 501.037 87.2571 500.189 89.6627C488.614 122.721 477.113 155.799 465.703 188.914C464.892 191.263 463.897 192.109 461.427 192.053C453.077 191.884 444.728 191.996 436.102 191.996C436.341 190.906 436.452 190.079 436.728 189.309C450.165 151.251 463.565 113.193 477.076 75.1725C481.739 62.0167 494.365 53.4842 508.871 53.3714C523.395 53.2774 536.353 61.6032 540.998 74.665C554.637 113.099 568.074 151.608 581.585 190.098C581.714 190.512 581.732 190.944 581.935 191.996Z" fill="white"></path><path d="M749.743 192.014C742.131 192.014 734.887 192.014 727.643 192.014C721.266 192.014 721.247 192.014 719.109 185.85C707.847 153.393 696.586 120.916 685.324 88.4591C684.07 84.8318 682.393 81.5617 678.209 80.8287C673.97 80.0957 670.486 82.5014 668.551 87.6698C666.302 93.6838 664.274 99.7731 662.173 105.825C652.533 133.565 642.875 161.286 633.327 189.045C632.59 191.206 631.668 192.108 629.291 192.071C620.867 191.902 612.425 192.014 603.578 192.014C604.057 190.53 604.408 189.421 604.795 188.331C617.973 151.006 631.134 113.681 644.313 76.3558C649.345 62.1099 661.731 53.3894 676.9 53.3706C691.978 53.3706 704.29 62.1286 709.34 76.5061C722.464 113.85 735.588 151.194 748.693 188.537C749.043 189.533 749.301 190.567 749.743 192.014Z" fill="white"></path><path d="M434.152 53.4576C430.503 63.9071 427.038 73.8492 423.554 83.7725C413.527 112.302 403.5 140.812 393.473 169.342C388.589 183.212 376.295 191.932 361.365 192.064C346.398 192.195 333.68 183.494 328.759 169.586C315.432 131.96 302.143 94.3347 288.835 56.6902C288.522 55.7881 288.282 54.8484 287.84 53.4388C292.171 53.4388 296.171 53.4388 300.189 53.4388C304.576 53.4388 308.981 53.608 313.368 53.3825C315.875 53.2509 316.852 54.2094 317.644 56.5398C329.09 89.7489 340.666 122.92 352.186 156.111C352.333 156.524 352.444 156.938 352.591 157.351C354.49 162.313 357.476 164.888 361.346 164.756C366.139 164.587 368.148 161.166 369.53 157.182C377.732 133.558 385.916 109.915 394.1 86.272C397.547 76.3112 401.067 66.3504 404.403 56.3519C405.159 54.0967 406.21 53.3637 408.532 53.4201C416.882 53.5516 425.231 53.4576 434.152 53.4576Z" fill="white"></path><path d="M167.473 0C176.338 0 184.946 0 193.738 0C193.738 64.0125 193.738 127.818 193.738 191.831C184.946 191.831 176.338 191.831 167.473 191.831C167.473 127.95 167.473 64.1441 167.473 0Z" fill="white"></path><path d="M256.216 54.8306C256.216 100.556 256.216 146.038 256.216 191.745C247.461 191.745 238.835 191.745 229.969 191.745C229.969 146.113 229.969 100.556 229.969 54.8306C238.724 54.8306 247.258 54.8306 256.216 54.8306Z" fill="white"></path><path d="M256.105 26.8191C247.368 26.8191 238.816 26.8191 229.969 26.8191C229.969 17.9484 229.969 9.09632 229.969 0C238.65 0 247.258 0 256.105 0C256.105 8.852 256.105 17.6476 256.105 26.8191Z" fill="white"></path></svg>