<svg width="14" height="12" viewBox="0 0 14 12" fill="none" xmlns="http://www.w3.org/2000/svg">
<path d="M1.66683 11.3327C1.30016 11.3327 0.986274 11.2021 0.725163 10.941C0.464052 10.6799 0.333496 10.366 0.333496 9.99935V1.99935C0.333496 1.63268 0.464052 1.31879 0.725163 1.05768C0.986274 0.796571 1.30016 0.666016 1.66683 0.666016H12.3335C12.7002 0.666016 13.0141 0.796571 13.2752 1.05768C13.5363 1.31879 13.6668 1.63268 13.6668 1.99935V9.99935C13.6668 10.366 13.5363 10.6799 13.2752 10.941C13.0141 11.2021 12.7002 11.3327 12.3335 11.3327H1.66683ZM7.00016 6.54935C7.05572 6.54935 7.11405 6.54102 7.17516 6.52435C7.23627 6.50768 7.29461 6.48268 7.35016 6.44935L12.0668 3.49935C12.1557 3.44379 12.2224 3.37435 12.2668 3.29102C12.3113 3.20768 12.3335 3.11602 12.3335 3.01602C12.3335 2.79379 12.2391 2.62713 12.0502 2.51602C11.8613 2.4049 11.6668 2.41046 11.4668 2.53268L7.00016 5.33268L2.5335 2.53268C2.3335 2.41046 2.13905 2.40768 1.95016 2.52435C1.76127 2.64102 1.66683 2.8049 1.66683 3.01602C1.66683 3.12713 1.68905 3.22435 1.7335 3.30768C1.77794 3.39102 1.84461 3.4549 1.9335 3.49935L6.65016 6.44935C6.70572 6.48268 6.76405 6.50768 6.82516 6.52435C6.88627 6.54102 6.94461 6.54935 7.00016 6.54935Z" fill="#F8F5F4"/>
</svg>
