<svg width="14" height="19" viewBox="0 0 14 19" fill="none" xmlns="http://www.w3.org/2000/svg">
<path d="M2.00016 18.166C1.54183 18.166 1.14947 18.0028 0.823079 17.6764C0.496691 17.35 0.333496 16.9577 0.333496 16.4993V7.33268C0.333496 6.87435 0.496691 6.48199 0.823079 6.1556C1.14947 5.82921 1.54183 5.66602 2.00016 5.66602H3.66683C3.90294 5.66602 4.10086 5.74588 4.26058 5.9056C4.4203 6.06532 4.50016 6.26324 4.50016 6.49935C4.50016 6.73546 4.4203 6.93338 4.26058 7.0931C4.10086 7.25282 3.90294 7.33268 3.66683 7.33268H2.00016V16.4993H12.0002V7.33268H10.3335C10.0974 7.33268 9.89947 7.25282 9.73975 7.0931C9.58002 6.93338 9.50016 6.73546 9.50016 6.49935C9.50016 6.26324 9.58002 6.06532 9.73975 5.9056C9.89947 5.74588 10.0974 5.66602 10.3335 5.66602H12.0002C12.4585 5.66602 12.8509 5.82921 13.1772 6.1556C13.5036 6.48199 13.6668 6.87435 13.6668 7.33268V16.4993C13.6668 16.9577 13.5036 17.35 13.1772 17.6764C12.8509 18.0028 12.4585 18.166 12.0002 18.166H2.00016ZM6.16683 3.02018L5.41683 3.77018C5.25016 3.93685 5.05572 4.01671 4.8335 4.00977C4.61127 4.00282 4.41683 3.91602 4.25016 3.74935C4.09739 3.58268 4.01752 3.38824 4.01058 3.16602C4.00363 2.94379 4.0835 2.74935 4.25016 2.58268L6.41683 0.416016C6.5835 0.249349 6.77794 0.166016 7.00016 0.166016C7.22238 0.166016 7.41683 0.249349 7.5835 0.416016L9.75016 2.58268C9.90294 2.73546 9.97933 2.92643 9.97933 3.1556C9.97933 3.38477 9.90294 3.58268 9.75016 3.74935C9.5835 3.91602 9.38558 3.99935 9.15641 3.99935C8.92725 3.99935 8.72933 3.91602 8.56266 3.74935L7.8335 3.02018V11.4993C7.8335 11.7355 7.75364 11.9334 7.59391 12.0931C7.43419 12.2528 7.23627 12.3327 7.00016 12.3327C6.76405 12.3327 6.56613 12.2528 6.40641 12.0931C6.24669 11.9334 6.16683 11.7355 6.16683 11.4993V3.02018Z" fill="#008060"/>
</svg>
