<svg width="14" height="14" viewBox="0 0 14 14" fill="none" xmlns="http://www.w3.org/2000/svg">
<path d="M1 13.75C0.7875 13.75 0.609375 13.6781 0.465625 13.5344C0.321875 13.3906 0.25 13.2125 0.25 13C0.25 12.7875 0.321875 12.6094 0.465625 12.4656C0.609375 12.3219 0.7875 12.25 1 12.25H1.75V1.75C1.75 1.3375 1.89688 0.984375 2.19063 0.690625C2.48438 0.396875 2.8375 0.25 3.25 0.25H10.75C11.1625 0.25 11.5156 0.396875 11.8094 0.690625C12.1031 0.984375 12.25 1.3375 12.25 1.75V12.25H13C13.2125 12.25 13.3906 12.3219 13.5344 12.4656C13.6781 12.6094 13.75 12.7875 13.75 13C13.75 13.2125 13.6781 13.3906 13.5344 13.5344C13.3906 13.6781 13.2125 13.75 13 13.75H1ZM5.5 7.75C5.7125 7.75 5.89062 7.67813 6.03438 7.53438C6.17812 7.39063 6.25 7.2125 6.25 7C6.25 6.7875 6.17812 6.60938 6.03438 6.46563C5.89062 6.32188 5.7125 6.25 5.5 6.25C5.2875 6.25 5.10938 6.32188 4.96562 6.46563C4.82188 6.60938 4.75 6.7875 4.75 7C4.75 7.2125 4.82188 7.39063 4.96562 7.53438C5.10938 7.67813 5.2875 7.75 5.5 7.75Z" fill="#F04438"/>
</svg>
