<svg width="16" height="12" viewBox="0 0 16 12" fill="none" xmlns="http://www.w3.org/2000/svg">
<path d="M7.99951 9.74609C8.21201 9.74609 8.39014 9.67422 8.53389 9.53047C8.67764 9.38672 8.74951 9.20859 8.74951 8.99609C8.74951 8.78359 8.67764 8.60547 8.53389 8.46172C8.39014 8.31797 8.21201 8.24609 7.99951 8.24609C7.78701 8.24609 7.60889 8.31797 7.46514 8.46172C7.32139 8.60547 7.24951 8.78359 7.24951 8.99609C7.24951 9.20859 7.32139 9.38672 7.46514 9.53047C7.60889 9.67422 7.78701 9.74609 7.99951 9.74609ZM7.99951 6.74609C8.21201 6.74609 8.39014 6.67422 8.53389 6.53047C8.67764 6.38672 8.74951 6.20859 8.74951 5.99609C8.74951 5.78359 8.67764 5.60547 8.53389 5.46172C8.39014 5.31797 8.21201 5.24609 7.99951 5.24609C7.78701 5.24609 7.60889 5.31797 7.46514 5.46172C7.32139 5.60547 7.24951 5.78359 7.24951 5.99609C7.24951 6.20859 7.32139 6.38672 7.46514 6.53047C7.60889 6.67422 7.78701 6.74609 7.99951 6.74609ZM7.99951 3.74609C8.21201 3.74609 8.39014 3.67422 8.53389 3.53047C8.67764 3.38672 8.74951 3.20859 8.74951 2.99609C8.74951 2.78359 8.67764 2.60547 8.53389 2.46172C8.39014 2.31797 8.21201 2.24609 7.99951 2.24609C7.78701 2.24609 7.60889 2.31797 7.46514 2.46172C7.32139 2.60547 7.24951 2.78359 7.24951 2.99609C7.24951 3.20859 7.32139 3.38672 7.46514 3.53047C7.60889 3.67422 7.78701 3.74609 7.99951 3.74609ZM13.9995 11.9961H1.99951C1.58701 11.9961 1.23389 11.8492 0.940137 11.5555C0.646387 11.2617 0.499512 10.9086 0.499512 10.4961V7.49609C0.912012 7.49609 1.26514 7.34922 1.55889 7.05547C1.85264 6.76172 1.99951 6.40859 1.99951 5.99609C1.99951 5.58359 1.85264 5.23047 1.55889 4.93672C1.26514 4.64297 0.912012 4.49609 0.499512 4.49609V1.49609C0.499512 1.08359 0.646387 0.730469 0.940137 0.436719C1.23389 0.142969 1.58701 -0.00390625 1.99951 -0.00390625H13.9995C14.412 -0.00390625 14.7651 0.142969 15.0589 0.436719C15.3526 0.730469 15.4995 1.08359 15.4995 1.49609V4.49609C15.087 4.49609 14.7339 4.64297 14.4401 4.93672C14.1464 5.23047 13.9995 5.58359 13.9995 5.99609C13.9995 6.40859 14.1464 6.76172 14.4401 7.05547C14.7339 7.34922 15.087 7.49609 15.4995 7.49609V10.4961C15.4995 10.9086 15.3526 11.2617 15.0589 11.5555C14.7651 11.8492 14.412 11.9961 13.9995 11.9961Z" fill="#B09287"/>
</svg>
