<svg width="240" height="240" viewBox="0 0 240 240" fill="none" xmlns="http://www.w3.org/2000/svg">
<path d="M221.7 56.277V183.723C215.223 194.04 207.216 203.304 198 211.191C196.821 212.205 195.621 213.192 194.4 214.155C173.949 230.34 148.104 240 120 240C53.727 240 0 186.273 0 120C0 53.727 53.727 0 120 0C148.104 0 173.949 9.66 194.4 25.845C195.621 26.808 196.821 27.795 198 28.809C207.216 36.696 215.223 45.96 221.7 56.277Z" fill="#F6F6F7"/>
<path d="M133.6 135.9C123.509 135.9 115.3 127.691 115.3 117.6V58.8C115.3 48.7093 123.509 40.5 133.6 40.5C143.691 40.5 151.9 48.7093 151.9 58.8V117.6C151.9 127.691 143.691 135.9 133.6 135.9Z" fill="#A07B6F"/>
<path d="M133.6 43.5H133.6C125.15 43.5 118.3 50.35 118.3 58.8V117.6C118.3 126.05 125.15 132.9 133.6 132.9C142.05 132.9 148.9 126.05 148.9 117.6V58.8C148.9 50.35 142.05 43.5 133.6 43.5Z" fill="#C7B4AA"/>
<path d="M132.7 75.2998H132.7C125.575 75.2998 119.8 81.0753 119.8 88.1998V88.1998C119.8 95.3243 125.575 101.1 132.7 101.1H132.7C139.824 101.1 145.6 95.3243 145.6 88.1998V88.1998C145.6 81.0753 139.824 75.2998 132.7 75.2998Z" fill="#533D3B"/>
<path fill-rule="evenodd" clip-rule="evenodd" d="M114.751 116.349C119.23 120.828 125.416 123.6 132.25 123.6C145.919 123.6 157 112.518 157 98.8496C157 92.0152 154.228 85.8294 149.749 81.3505C145.27 76.8716 139.084 74.0996 132.25 74.0996C125.416 74.0996 119.23 76.8716 114.751 81.3505C110.272 85.8294 107.5 92.0152 107.5 98.8496C107.5 105.684 110.272 111.87 114.751 116.349ZM119.093 111.893C122.387 115.188 126.938 117.227 131.966 117.227C142.021 117.227 150.172 109.075 150.172 99.0203C150.172 93.9926 148.133 89.4422 144.838 86.1473C141.544 82.8525 136.993 80.8134 131.966 80.8134C126.938 80.8134 122.387 82.8525 119.093 86.1473C115.798 89.4422 113.759 93.9926 113.759 99.0203C113.759 104.048 115.798 108.598 119.093 111.893Z" fill="#DA9F18"/>
<path d="M152.932 76.9684C147.64 71.6734 140.326 68.4004 132.25 68.4004C116.095 68.4004 103 81.4954 103 97.6504V195.282C103 199.599 106.501 203.1 110.818 203.1H153.682C157.999 203.1 161.5 199.599 161.5 195.282V97.6504C161.5 89.5744 158.227 82.2604 152.932 76.9684ZM132.25 120.6C126.244 120.6 120.808 118.164 116.872 114.228C112.936 110.292 110.5 104.856 110.5 98.8504C110.5 92.8444 112.936 87.4084 116.872 83.4724C120.808 79.5364 126.244 77.1004 132.25 77.1004C138.256 77.1004 143.692 79.5364 147.628 83.4724C151.564 87.4084 154 92.8444 154 98.8504C154 110.862 144.262 120.6 132.25 120.6Z" fill="#F0CE54"/>
<rect x="112.6" y="130.2" width="39.3" height="63.3" rx="6.9" fill="#F6F6F7"/>
<path d="M128.631 170.23C128.631 169.057 128.741 167.926 128.962 166.838C129.2 165.733 129.583 164.713 130.11 163.778C130.569 162.877 131.079 162.163 131.64 161.636C132.201 161.092 132.83 160.557 133.527 160.03C134.224 159.486 134.997 158.763 135.847 157.862C136.544 157.097 137.003 156.341 137.224 155.593C137.445 154.828 137.556 154.012 137.556 153.145C137.556 152.584 137.496 152.057 137.377 151.564C137.258 151.071 137.046 150.646 136.74 150.289C136.264 149.66 135.652 149.218 134.904 148.963C134.156 148.691 133.357 148.555 132.507 148.555C131.81 148.555 131.138 148.648 130.492 148.835C129.863 149.005 129.328 149.277 128.886 149.651C128.376 150.059 128.002 150.561 127.764 151.156C127.526 151.751 127.415 152.405 127.432 153.119H120.955C121.125 151.419 121.584 149.847 122.332 148.402C123.097 146.94 124.1 145.775 125.341 144.908C126.31 144.194 127.398 143.659 128.605 143.302C129.829 142.945 131.053 142.766 132.277 142.766C134.147 142.766 135.907 143.055 137.556 143.633C139.222 144.211 140.607 145.163 141.712 146.489C142.477 147.356 143.055 148.359 143.446 149.498C143.854 150.637 144.058 151.793 144.058 152.966C144.058 154.717 143.676 156.315 142.911 157.76C142.163 159.205 141.211 160.54 140.055 161.764C139.511 162.342 138.992 162.852 138.499 163.294C138.006 163.736 137.547 164.169 137.122 164.594C136.714 165.002 136.374 165.436 136.102 165.895C135.626 166.694 135.346 167.374 135.261 167.935C135.176 168.479 135.133 169.244 135.133 170.23H128.631ZM128.682 180.2V173.443H135.133V180.2H128.682Z" fill="#EAB625"/>
<path d="M137.5 86.4425V90.2585C137.5 93.9275 134.527 96.9005 130.858 96.9005H69.1423C68.2123 96.9005 67.3303 96.7115 66.5293 96.3665C89.9023 91.9715 113.275 87.5825 136.648 83.1875C137.191 84.1475 137.5 85.2575 137.5 86.4425Z" fill="#936B63"/>
<path d="M136.648 83.1868C113.275 87.5818 89.902 91.9708 66.529 96.3658H66.526C64.159 95.3488 62.5 92.9968 62.5 90.2578V86.4418C62.5 82.7728 65.473 79.7998 69.142 79.7998H130.858C133.345 79.7998 135.511 81.1648 136.648 83.1868Z" fill="#B09287"/>
<path d="M197.999 28.7638V211.146C196.82 212.16 195.62 213.147 194.399 214.11V25.7998C195.62 26.7628 196.82 27.7498 197.999 28.7638Z" fill="#57555A"/>
<path d="M240 120C240 143.412 233.295 165.261 221.7 183.723C215.223 194.04 207.216 203.304 198 211.191V28.8086C207.216 36.6956 215.223 45.9596 221.7 56.2766C233.295 74.7386 240 96.5876 240 120Z" fill="#CFCED3"/>
</svg>
