<svg width="12" height="12" viewBox="0 0 12 12" fill="none" xmlns="http://www.w3.org/2000/svg">
<path d="M5.99984 5.99935C5.2665 5.99935 4.63873 5.73824 4.1165 5.21602C3.59428 4.69379 3.33317 4.06602 3.33317 3.33268C3.33317 2.59935 3.59428 1.97157 4.1165 1.44935C4.63873 0.927127 5.2665 0.666016 5.99984 0.666016C6.73317 0.666016 7.36095 0.927127 7.88317 1.44935C8.40539 1.97157 8.6665 2.59935 8.6665 3.33268C8.6665 4.06602 8.40539 4.69379 7.88317 5.21602C7.36095 5.73824 6.73317 5.99935 5.99984 5.99935ZM0.666504 9.99935V9.46602C0.666504 9.08824 0.763726 8.74102 0.958171 8.42435C1.15262 8.10768 1.41095 7.86602 1.73317 7.69935C2.42206 7.3549 3.12206 7.09657 3.83317 6.92435C4.54428 6.75213 5.2665 6.66602 5.99984 6.66602C6.73317 6.66602 7.45539 6.75213 8.1665 6.92435C8.87761 7.09657 9.57762 7.3549 10.2665 7.69935C10.5887 7.86602 10.8471 8.10768 11.0415 8.42435C11.2359 8.74102 11.3332 9.08824 11.3332 9.46602V9.99935C11.3332 10.366 11.2026 10.6799 10.9415 10.941C10.6804 11.2021 10.3665 11.3327 9.99984 11.3327H1.99984C1.63317 11.3327 1.31928 11.2021 1.05817 10.941C0.797059 10.6799 0.666504 10.366 0.666504 9.99935Z" fill="#F8F5F4"/>
</svg>
