<svg width="39" height="20" viewBox="0 0 39 20" fill="none" xmlns="http://www.w3.org/2000/svg">
<g clip-path="url(#clip0_14179_4407)">
<path d="M0.388672 4.29964V1.08605H2.32813V1.43126H0.77782V2.5171H2.2277V2.86231H0.77782V3.95443H2.35323V4.29964H0.388672ZM3.02953 4.29964V1.08605H3.41867V3.95443H4.91249V4.29964H3.02953ZM5.90418 1.08605V4.29964H5.51504V1.08605H5.90418ZM6.81627 1.08605L7.77028 3.79124H7.80793L8.76194 1.08605H9.16995L7.98995 4.29964H7.58826L6.40826 1.08605H6.81627ZM9.52611 4.29964H9.11816L10.2982 1.08605H10.6999L11.8799 4.29964H11.4718L10.5116 1.59445H10.4864L9.52611 4.29964ZM9.67679 3.04433H11.3212V3.38954H9.67679V3.04433ZM12.5122 4.29964H12.1042L13.2842 1.08605H13.6859L14.8659 4.29964H14.4579L13.4976 1.59445H13.4725L12.5122 4.29964ZM12.6629 3.04433H14.3073V3.38954H12.6629V3.04433ZM17.1239 1.88945C17.1051 1.73044 17.0287 1.607 16.8948 1.51913C16.7609 1.43126 16.5967 1.38733 16.4021 1.38733C16.2598 1.38733 16.1354 1.41034 16.0286 1.45637C15.923 1.50239 15.8403 1.56568 15.7807 1.64623C15.7221 1.72678 15.6928 1.81832 15.6928 1.92083C15.6928 2.00661 15.7132 2.08036 15.7541 2.14208C15.7959 2.20275 15.8492 2.25349 15.9141 2.29428C15.9789 2.33404 16.047 2.36699 16.1181 2.39314C16.1892 2.41824 16.2546 2.43864 16.3142 2.45434L16.6406 2.54221C16.7243 2.56417 16.8174 2.59451 16.9199 2.63322C17.0234 2.67193 17.1223 2.72475 17.2165 2.7917C17.3116 2.85761 17.3901 2.94234 17.4518 3.0459C17.5135 3.14946 17.5444 3.27656 17.5444 3.4272C17.5444 3.60085 17.4989 3.75776 17.4079 3.89794C17.318 4.03811 17.1861 4.14953 17.0125 4.23217C16.8399 4.3148 16.6301 4.35613 16.3832 4.35613C16.1531 4.35613 15.9539 4.31899 15.7854 4.24472C15.618 4.17045 15.4862 4.06688 15.39 3.93403C15.2948 3.80118 15.2409 3.64688 15.2284 3.47114H15.6301C15.6405 3.59248 15.6814 3.69291 15.7525 3.77241C15.8247 3.85086 15.9157 3.90945 16.0255 3.94815C16.1364 3.98581 16.2556 4.00464 16.3832 4.00464C16.5318 4.00464 16.6652 3.98058 16.7834 3.93246C16.9016 3.88329 16.9952 3.8153 17.0643 3.72847C17.1333 3.6406 17.1678 3.53809 17.1678 3.42092C17.1678 3.31423 17.138 3.2274 17.0784 3.16045C17.0187 3.0935 16.9403 3.0391 16.843 2.99725C16.7457 2.95541 16.6406 2.9188 16.5276 2.88742L16.1322 2.77444C15.8812 2.70226 15.6824 2.59922 15.5359 2.46532C15.3895 2.33142 15.3163 2.1562 15.3163 1.93966C15.3163 1.75973 15.3649 1.60282 15.4622 1.46892C15.5605 1.33397 15.6923 1.22937 15.8576 1.15509C16.024 1.07978 16.2096 1.04211 16.4146 1.04211C16.6217 1.04211 16.8058 1.07925 16.967 1.15352C17.1281 1.22675 17.2557 1.32718 17.3498 1.4548C17.4451 1.58242 17.4952 1.72731 17.5005 1.88945H17.1239Z" fill="white"/>
<path d="M0.195312 19.9597V7.25916H0.820641V9.40847C1.17233 8.69225 1.72275 8.11929 2.47157 7.68919C3.22041 7.25948 3.99869 7.04443 4.80645 7.04443C6.09598 7.04443 7.19368 7.4974 8.0989 8.40261C9.00417 9.30782 9.45707 10.3921 9.45707 11.6556C9.45707 12.9191 9.00417 14.0037 8.0989 14.9089C7.19368 15.8144 6.0963 16.267 4.80645 16.267C4.02503 16.267 3.26272 16.0551 2.52047 15.632C1.77791 15.2085 1.21151 14.6387 0.820954 13.9222V19.9597H0.195625H0.195312ZM0.781462 11.6753C0.781462 12.7696 1.18174 13.7171 1.98291 14.5183C2.78377 15.3195 3.73477 15.7197 4.83561 15.7197C5.93643 15.7197 6.8774 15.3195 7.65883 14.5183C8.44026 13.7171 8.83114 12.7665 8.83114 11.6656C8.83114 10.5648 8.43714 9.61062 7.64912 8.80287C6.86078 7.99512 5.91982 7.5914 4.82557 7.5914C3.73133 7.5914 2.78377 7.99857 1.98291 8.81258C1.18174 9.62665 0.781462 10.5811 0.781462 11.6753Z" fill="white"/>
<path d="M0.857288 19.9997H0.152344V7.21948H0.857288V9.24496C1.21274 8.59173 1.74748 8.05727 2.44867 7.65486C3.20032 7.22352 3.99272 7.00476 4.8033 7.00476C6.09784 7.00476 7.21494 7.46554 8.12367 8.37453C9.03266 9.28352 9.49344 10.3872 9.49344 11.6557C9.49344 12.9242 9.03266 14.0281 8.12367 14.9372C7.66946 15.3913 7.15982 15.7371 6.60875 15.9644C6.05771 16.1916 5.45025 16.307 4.8033 16.307C4.01842 16.307 3.24263 16.0916 2.49756 15.6669C1.79795 15.2679 1.2469 14.7322 0.857288 14.0733V20V19.9997ZM0.232273 19.9201H0.777985V13.7658L0.852898 13.9031C1.23813 14.6096 1.80485 15.1795 2.53737 15.5973C3.27053 16.0151 4.03284 16.227 4.80361 16.227C6.07652 16.227 7.17455 15.7741 8.06784 14.8808C8.96119 13.9874 9.41409 12.9023 9.41409 11.6557C9.41409 10.4091 8.96119 9.32424 8.06784 8.43095C7.17455 7.53759 6.07621 7.0847 4.80361 7.0847C4.00682 7.0847 3.2279 7.29968 2.48847 7.72411C1.74999 8.14821 1.19989 8.72085 0.853529 9.42645L0.777985 9.58033V7.29935H0.232273V19.9204V19.9201ZM4.83275 15.7597C3.72597 15.7597 2.75679 15.3515 1.95185 14.5467C1.14692 13.7417 0.738806 12.7756 0.738806 11.6754C0.738806 10.5752 1.14692 9.60294 1.95185 8.78483C2.75679 7.96672 3.72283 7.55173 4.82304 7.55173C5.92324 7.55173 6.88269 7.96326 7.67513 8.77512C8.46686 9.58658 8.86842 10.5592 8.86842 11.6654C8.86842 12.7715 8.46999 13.7407 7.68484 14.546C6.8993 15.3513 5.93986 15.7597 4.83307 15.7597H4.83275ZM4.82273 7.63167C3.74478 7.63167 2.79785 8.03851 2.00827 8.84092C1.2187 9.64333 0.818109 10.5972 0.818109 11.6758C0.818109 12.7543 1.21838 13.7009 2.00796 14.4905C2.79722 15.2801 3.7476 15.6804 4.83244 15.6804C5.91729 15.6804 6.85735 15.2801 7.62712 14.4908C8.39761 13.7009 8.78816 12.7506 8.78816 11.6661C8.78816 10.5815 8.39416 9.62737 7.61741 8.83121C6.84073 8.03538 5.90036 7.63167 4.82241 7.63167H4.82273Z" fill="white"/>
<path d="M14.3429 7.59189C13.6523 7.59189 13.0436 7.85267 12.5161 8.37359C11.9885 8.89456 11.725 9.50043 11.725 10.1907V16.0522H11.0996V7.25964H11.725V8.5689C11.9594 8.12596 12.324 7.76147 12.8189 7.47495C13.3138 7.18844 13.8674 7.04492 14.4799 7.04492C15.0923 7.04492 15.6782 7.25333 16.2386 7.66994V8.45163C15.6653 7.87834 15.0334 7.59189 14.3432 7.59189H14.3429Z" fill="white"/>
<path d="M11.7655 16.0919H11.0605V7.21973H11.7655V8.41836C12.0031 8.02904 12.3504 7.70057 12.7999 7.44038C13.2986 7.15139 13.864 7.005 14.4806 7.005C15.0972 7.005 15.698 7.21784 16.2628 7.6379L16.2789 7.64976V8.54781L16.2108 8.47979C15.6478 7.91686 15.0197 7.63158 14.3436 7.63158C13.6675 7.63158 13.0622 7.8908 12.5447 8.40175C12.0275 8.91269 11.7652 9.51452 11.7652 10.1906V16.0919H11.7655ZM11.1402 16.0123H11.6859V10.1906C11.6859 9.49256 11.9561 8.87159 12.489 8.34533C13.0218 7.81908 13.6459 7.55198 14.3436 7.55198C15.0413 7.55198 15.6385 7.82279 16.1992 8.35725V7.68989C15.6529 7.28839 15.0749 7.08461 14.4803 7.08461C13.8856 7.08461 13.3258 7.22755 12.8394 7.50937C12.3532 7.7908 11.9903 8.15347 11.7605 8.58761L11.6856 8.7293V7.29934H11.1398V16.0123H11.1402Z" fill="white"/>
<path d="M18.5586 7.2793V16.0524H17.9336V7.2793H18.5586Z" fill="white"/>
<path d="M18.6011 16.0919H17.8965V7.23914H18.6011V16.0919ZM17.9761 16.0123H18.5215V7.31881H17.9761V16.0123Z" fill="white"/>
<path d="M28.3529 7.25928H28.9192L24.6012 16.3061L20.2637 7.25928H20.9476L24.6598 14.9773L28.3529 7.25928Z" fill="white"/>
<path d="M24.6 16.3983L20.1992 7.2196H20.9715L20.9825 7.24215L24.659 14.8853L28.3269 7.2196H28.9817L28.9545 7.27661L24.6003 16.3983H24.6ZM20.3255 7.29921L24.5997 16.2137L28.8548 7.29921H28.3764L24.6586 15.0693L20.921 7.29921H20.3252H20.3255Z" fill="white"/>
<path d="M34.7594 16.2865H34.5838C33.3463 16.2865 32.2684 15.821 31.35 14.8897C30.4315 13.9585 29.9727 12.874 29.9727 11.6365C29.9727 10.3989 30.4284 9.3276 31.3405 8.42238C32.2521 7.51711 33.3792 7.06421 34.7208 7.06421C36.0624 7.06421 37.2155 7.59828 38.1794 8.66623L32.0443 14.7233C32.8906 15.401 33.7049 15.7395 34.4867 15.7395C35.2684 15.7395 35.9683 15.5605 36.5871 15.2023C37.2055 14.8439 37.717 14.3653 38.1207 13.7657V14.7622C37.1958 15.7783 36.0758 16.2862 34.76 16.2862L34.7594 16.2865ZM34.5544 7.61118C33.5187 7.61118 32.6003 8.01177 31.7992 8.81294C30.9979 9.61411 30.5977 10.5353 30.5977 11.5775C30.5977 12.6197 30.9428 13.5316 31.6333 14.313L37.3193 8.66623C36.5116 7.96317 35.59 7.61118 34.5544 7.61118Z" fill="white"/>
<path d="M34.7604 16.3264H34.5849C33.9636 16.3264 33.374 16.2079 32.8324 15.9741C32.2911 15.7402 31.7832 15.3848 31.3225 14.9177C30.8621 14.4507 30.5116 13.9379 30.2812 13.3934C30.0505 12.849 29.9336 12.2578 29.9336 11.6366C29.9336 10.3941 30.3978 9.30296 31.3131 8.39429C31.7707 7.94009 32.2895 7.59436 32.8553 7.36713C33.4207 7.13983 34.0486 7.02478 34.7215 7.02478C35.3945 7.02478 36.0302 7.16087 36.6091 7.42915C37.1877 7.69716 37.7262 8.10465 38.2096 8.64002L38.235 8.66823L32.1045 14.7206C32.9273 15.3707 33.7288 15.7002 34.4871 15.7002C35.2453 15.7002 35.9581 15.5211 36.5677 15.1682C37.1783 14.8146 37.6899 14.3354 38.0883 13.7439L38.161 13.6357V14.7779L38.1507 14.7892C37.6868 15.2989 37.1664 15.6867 36.6038 15.9418C36.0412 16.197 35.4208 16.3264 34.7604 16.3264ZM34.7212 7.10413C33.3969 7.10413 32.2691 7.55703 31.3692 8.45071C30.4693 9.344 30.0132 10.416 30.0132 11.6366C30.0132 12.8572 30.4727 13.9426 31.3793 14.862C32.2854 15.781 33.364 16.2471 34.5849 16.2471H34.7604C36.0534 16.2471 37.1708 15.7424 38.0814 14.7476V13.8937C37.6874 14.4469 37.1922 14.8987 36.6075 15.2372C35.9856 15.5973 35.2723 15.7798 34.4871 15.7798C33.7019 15.7798 32.8694 15.4349 32.0199 14.7547L31.9851 14.7269L38.1249 8.66511C37.1783 7.62947 36.0333 7.10445 34.7215 7.10445L34.7212 7.10413ZM31.6322 14.3711L31.6043 14.3394C30.9106 13.5542 30.5586 12.6249 30.5586 11.5777C30.5586 10.5304 30.9668 9.59006 31.7716 8.78484C32.5769 7.97957 33.5132 7.57149 34.5551 7.57149C35.597 7.57149 36.5345 7.92973 37.346 8.63625L37.3783 8.66445L37.3479 8.69455L31.6322 14.3711ZM34.5554 7.6511C33.5357 7.6511 32.618 8.05136 31.8284 8.84126C31.0388 9.63084 30.6385 10.5514 30.6385 11.5777C30.6385 12.6039 30.9742 13.4916 31.6363 14.2551L37.2617 8.66856C36.4725 7.99371 35.5622 7.65142 34.5554 7.65142V7.6511Z" fill="white"/>
<path d="M31.2559 15.4915C31.2559 15.4915 34.5239 18.7905 38.2408 15.4147C38.2408 15.4147 37.4779 16.8841 35.9996 17.2179C34.5214 17.5521 32.7836 17.4386 31.2559 15.4912V15.4915Z" fill="white"/>
<path d="M34.778 17.3876C34.3799 17.3876 34.0023 17.3362 33.6393 17.2331C32.7447 16.9792 31.9363 16.3981 31.2363 15.5059L31.2721 15.4743C31.2802 15.4824 32.1008 16.3002 33.3628 16.6964C34.5257 17.0616 36.3133 17.1321 38.2241 15.3969L38.3228 15.3073L38.2613 15.4258C38.2595 15.4295 38.0649 15.8006 37.6915 16.2071C37.3468 16.583 36.774 17.0673 36.0042 17.2412C35.5726 17.3387 35.1655 17.3876 34.778 17.3876ZM31.4655 15.7101C32.6798 17.1228 34.1639 17.6083 35.9939 17.1948C36.7509 17.0237 37.3154 16.5463 37.6555 16.1761C37.8927 15.9178 38.0567 15.6743 38.1445 15.5323C37.3267 16.2473 36.4666 16.6987 35.5854 16.8745C34.8479 17.0218 34.0947 16.977 33.3468 16.7419C32.4638 16.4645 31.7949 15.9821 31.4655 15.7101Z" fill="white"/>
<path d="M32.2812 5.5329H33.153L35.8439 3.29675H34.9722L32.2812 5.5329Z" fill="white"/>
<path d="M33.1615 5.55657H32.2148L34.9635 3.27246H35.9101L33.1615 5.55657ZM32.3472 5.50892H33.1442L35.7778 3.32042H34.9807L32.3472 5.50892Z" fill="white"/>
</g>
<defs>
<clipPath id="clip0_14179_4407">
<rect width="38.3713" height="20" fill="white"/>
</clipPath>
</defs>
</svg>
