<svg width="70" height="46" viewBox="0 0 70 46" fill="none" xmlns="http://www.w3.org/2000/svg">
<path d="M2.14286 5.82857V9.55714H5.92857V10.3857H2.14286V14.1714H6.35714V15H1.14286V5H6.35714V5.82857H2.14286ZM9.32757 14.1857H12.9133V15H8.32757V5.01428H9.32757V14.1857ZM15.3404 5.01428V15H14.3404V5.01428H15.3404ZM25.5192 5.01428L21.7335 15H20.5906L16.8049 5.01428H17.8906L21.1621 13.9143L24.4621 5.01428H25.5192ZM32.8075 12.6286H28.2646L27.3932 15H26.336L29.9789 5.14286H31.1075L34.736 15H33.6789L32.8075 12.6286ZM32.5075 11.8L30.536 6.4L28.5646 11.8H32.5075ZM42.1267 12.6286H37.5838L36.7124 15H35.6552L39.2981 5.14286H40.4267L44.0552 15H42.9981L42.1267 12.6286ZM41.8267 11.8L39.8552 6.4L37.8838 11.8H41.8267ZM48.6887 15.1C48.0316 15.1 47.4506 14.9857 46.9459 14.7571C46.4506 14.5286 46.0602 14.2095 45.7744 13.8C45.4887 13.3905 45.3363 12.9333 45.3173 12.4286H46.3744C46.4221 12.9143 46.6363 13.3429 47.0173 13.7143C47.3983 14.0762 47.9554 14.2571 48.6887 14.2571C49.3649 14.2571 49.8983 14.0857 50.2887 13.7429C50.6887 13.3905 50.8887 12.9476 50.8887 12.4143C50.8887 11.9857 50.7792 11.6429 50.5602 11.3857C50.3411 11.119 50.0697 10.9238 49.7459 10.8C49.4221 10.6667 48.9744 10.5238 48.403 10.3714C47.7363 10.1905 47.2078 10.0143 46.8173 9.84286C46.4268 9.67143 46.0935 9.40476 45.8173 9.04286C45.5411 8.68095 45.403 8.19048 45.403 7.57143C45.403 7.05714 45.5363 6.6 45.803 6.2C46.0697 5.79048 46.4459 5.47143 46.9316 5.24286C47.4173 5.01428 47.9744 4.9 48.603 4.9C49.5268 4.9 50.2697 5.12857 50.8316 5.58571C51.403 6.03333 51.7316 6.61428 51.8173 7.32857H50.7316C50.6649 6.91905 50.4411 6.55714 50.0602 6.24286C49.6792 5.91905 49.1649 5.75714 48.5173 5.75714C47.9173 5.75714 47.4173 5.91905 47.0173 6.24286C46.6173 6.55714 46.4173 6.99048 46.4173 7.54286C46.4173 7.9619 46.5268 8.3 46.7459 8.55714C46.9649 8.81428 47.2363 9.00952 47.5602 9.14286C47.8935 9.27619 48.3411 9.41905 48.903 9.57143C49.5506 9.75238 50.0744 9.93333 50.4744 10.1143C50.8744 10.2857 51.2125 10.5524 51.4887 10.9143C51.7649 11.2762 51.903 11.7619 51.903 12.3714C51.903 12.8381 51.7792 13.281 51.5316 13.7C51.284 14.119 50.9173 14.4571 50.4316 14.7143C49.9459 14.9714 49.3649 15.1 48.6887 15.1Z" fill="black"/>
<path d="M2.16 23.2857H3.25714V27.0571C3.87429 25.8228 4.83429 24.8285 6.13714 24.0742C7.44 23.2971 8.81143 22.9085 10.2514 22.9085C11.7371 22.9085 13.0971 23.2742 14.3314 24.0057C15.5886 24.7371 16.5829 25.7199 17.3143 26.9542C18.0457 28.1885 18.4114 29.5371 18.4114 30.9999C18.4114 32.4628 18.0457 33.8114 17.3143 35.0457C16.5829 36.2799 15.5886 37.2628 14.3314 37.9942C13.0971 38.7257 11.7371 39.0914 10.2514 39.0914C8.85714 39.0914 7.50857 38.7142 6.20572 37.9599C4.92571 37.2057 3.94286 36.2114 3.25714 34.9771V45.5714H2.16V23.2857ZM10.32 38.1314C11.5771 38.1314 12.7429 37.8114 13.8171 37.1714C14.8914 36.5085 15.7371 35.6399 16.3543 34.5657C16.9943 33.4685 17.3143 32.2799 17.3143 30.9999C17.3143 29.7428 16.9943 28.5657 16.3543 27.4685C15.7143 26.3714 14.8571 25.5028 13.7829 24.8628C12.7086 24.1999 11.5429 23.8685 10.2857 23.8685C9.02857 23.8685 7.85143 24.1999 6.75429 24.8628C5.68 25.5257 4.81143 26.4057 4.14857 27.5028C3.50857 28.5999 3.18857 29.7771 3.18857 31.0342C3.18857 32.2914 3.50857 33.4685 4.14857 34.5657C4.81143 35.6399 5.69143 36.5085 6.78857 37.1714C7.88572 37.8114 9.06286 38.1314 10.32 38.1314ZM21.5127 23.2857H22.6098V26.8514C23.067 25.7314 23.7298 24.8514 24.5984 24.2114C25.4898 23.5714 26.4955 23.2514 27.6155 23.2514C28.3241 23.2514 29.0441 23.3999 29.7755 23.6971V24.9657C29.1127 24.4628 28.3698 24.2114 27.547 24.2114C26.7241 24.2114 25.9241 24.4628 25.147 24.9657C24.3927 25.4685 23.7755 26.1428 23.2955 26.9885C22.8384 27.8342 22.6098 28.7371 22.6098 29.6971V38.7142H21.5127V23.2857ZM33.832 19.7542C33.512 19.7542 33.2263 19.6399 32.9748 19.4114C32.7463 19.1828 32.632 18.8971 32.632 18.5542C32.632 18.2342 32.7463 17.9599 32.9748 17.7314C33.2263 17.5028 33.512 17.3885 33.832 17.3885C34.152 17.3885 34.4263 17.5028 34.6548 17.7314C34.9063 17.9599 35.032 18.2342 35.032 18.5542C35.032 18.8971 34.9063 19.1828 34.6548 19.4114C34.4263 19.6399 34.152 19.7542 33.832 19.7542ZM33.2834 23.2857H34.3805V38.7142H33.2834V23.2857ZM52.6926 23.2857L45.1155 39.1599L37.504 23.2857H38.704L45.1155 36.6571L51.4926 23.2857H52.6926ZM61.8672 38.1657C63.0558 38.1657 64.1872 37.8571 65.2615 37.2399C66.3358 36.6228 67.2272 35.7771 67.9358 34.7028V36.4514C67.0901 37.3885 66.1644 38.0742 65.1587 38.5085C64.153 38.9199 63.0101 39.1257 61.7301 39.1257C60.313 39.1257 58.9758 38.7485 57.7187 37.9942C56.4844 37.2399 55.4901 36.2342 54.7358 34.9771C54.0044 33.7199 53.6387 32.3828 53.6387 30.9657C53.6387 29.4342 54.0044 28.0628 54.7358 26.8514C55.4672 25.6171 56.4615 24.6571 57.7187 23.9714C58.9987 23.2857 60.4158 22.9428 61.9701 22.9428C64.3472 22.9428 66.3701 23.8799 68.0387 25.7542L57.273 36.3828C58.0272 36.9999 58.7587 37.4571 59.4672 37.7542C60.1758 38.0285 60.9758 38.1657 61.8672 38.1657ZM54.7358 30.8628C54.7358 32.7599 55.3644 34.3828 56.6215 35.7314L66.6672 25.7542C65.913 25.0914 65.1815 24.6228 64.473 24.3485C63.7644 24.0514 62.9187 23.9028 61.9358 23.9028C60.5415 23.9028 59.2958 24.2114 58.1987 24.8285C57.1244 25.4228 56.2787 26.2457 55.6615 27.2971C55.0444 28.3485 54.7358 29.5371 54.7358 30.8628ZM64.953 16.6342H66.3587L61.593 20.5771H60.153L64.953 16.6342Z" fill="black"/>
</svg>
