<svg width="48" height="48" viewBox="0 0 72 63" fill="none" xmlns="http://www.w3.org/2000/svg">
  <path d="M18.0001 62.8538L0 31.6769L18.0001 0.5H53.9999L72 31.6769L53.9999 62.8538H18.0001Z" fill="#FF8BA8"/>
  <path d="M52.7603 2.64844L69.521 31.6787L52.7603 60.709H19.2388L2.47803 31.6787L19.2388 2.64844H52.7603Z" fill="#560015" stroke="#E7003A" stroke-width="1.5"/>
  <path d="M49.7939 7.78418L63.5889 31.6777L58.998 39.6309L51.9932 51.7617L50.8174 53.7979V53.7988L49.7949 55.5703H22.2051L8.41016 31.6777L22.2061 7.78418H49.7939Z" fill="#FFEEF2" stroke="#E7003A" stroke-width="0.6"/>
  <path d="M47.8579 11.1357L59.7183 31.6768L56.5444 37.1758L49.5396 49.3066L48.3628 51.3438L47.8579 52.2178H24.1421L12.2808 31.6768L24.1421 11.1357H47.8579Z" fill="#E7003A" stroke="#560015" stroke-width="0.6"/>
  <path d="M56.8043 37.3273L49.7994 49.4584L34.0102 33.6692C33.4738 33.1328 33.207 32.4693 33.207 31.6788V20.5045C33.207 20.3481 33.2168 20.1972 33.2392 20.0505L35.5466 17.7431C35.6933 17.7207 35.8441 17.7109 36.0006 17.7109C36.7912 17.7109 37.4546 17.9777 37.991 18.5141L56.8043 37.3273Z" fill="#560015"/>
  <path d="M48.6233 51.494L48.0325 52.5179H41.6855L34.0102 44.8426C33.4738 44.3062 33.207 43.6427 33.207 42.8522C33.207 42.0602 33.4738 41.3967 34.0102 40.8617C34.5452 40.3254 35.2086 40.0586 36.0006 40.0586C36.7912 40.0586 37.4546 40.3254 37.991 40.8617L48.6233 51.494Z" fill="#560015"/>
  <path d="M37.9905 18.5141C37.4541 17.9777 36.7907 17.7109 36.0001 17.7109C35.8436 17.7109 35.6928 17.7207 35.5462 17.7431C34.9511 17.8269 34.4385 18.0839 34.0097 18.5141C33.5795 18.9429 33.3225 19.4555 33.2387 20.0505C33.2163 20.1972 33.2065 20.3481 33.2065 20.5045V31.6788C33.2065 32.4693 33.4733 33.1328 34.0097 33.6692C34.5447 34.2041 35.2081 34.4723 36.0001 34.4723C36.7907 34.4723 37.4541 34.2041 37.9905 33.6692C38.5255 33.1328 38.7937 32.4693 38.7937 31.6788V20.5045C38.7937 19.7125 38.5255 19.0491 37.9905 18.5141ZM37.9905 40.8626C37.4541 40.3262 36.7907 40.0594 36.0001 40.0594C35.2081 40.0594 34.5447 40.3262 34.0097 40.8626C33.4733 41.3976 33.2065 42.061 33.2065 42.853C33.2065 43.6436 33.4733 44.3071 34.0097 44.8434C34.5447 45.3784 35.2081 45.6466 36.0001 45.6466C36.7907 45.6466 37.4541 45.3784 37.9905 44.8434C38.5255 44.3071 38.7937 43.6436 38.7937 42.853C38.7937 42.061 38.5255 41.3976 37.9905 40.8626Z" fill="#FFEEF2"/>
</svg>
