<svg width="14" height="16" viewBox="0 0 14 16" fill="none" xmlns="http://www.w3.org/2000/svg">
<path d="M11.7461 15.4961C11.1211 15.4961 10.5898 15.2773 10.1523 14.8398C9.71484 14.4023 9.49609 13.8711 9.49609 13.2461C9.49609 13.1711 9.51484 12.9961 9.55234 12.7211L4.28359 9.64609C4.08359 9.83359 3.85234 9.98047 3.58984 10.0867C3.32734 10.193 3.04609 10.2461 2.74609 10.2461C2.12109 10.2461 1.58984 10.0273 1.15234 9.58984C0.714844 9.15234 0.496094 8.62109 0.496094 7.99609C0.496094 7.37109 0.714844 6.83984 1.15234 6.40234C1.58984 5.96484 2.12109 5.74609 2.74609 5.74609C3.04609 5.74609 3.32734 5.79922 3.58984 5.90547C3.85234 6.01172 4.08359 6.15859 4.28359 6.34609L9.55234 3.27109C9.52734 3.18359 9.51172 3.09922 9.50547 3.01797C9.49922 2.93672 9.49609 2.84609 9.49609 2.74609C9.49609 2.12109 9.71484 1.58984 10.1523 1.15234C10.5898 0.714844 11.1211 0.496094 11.7461 0.496094C12.3711 0.496094 12.9023 0.714844 13.3398 1.15234C13.7773 1.58984 13.9961 2.12109 13.9961 2.74609C13.9961 3.37109 13.7773 3.90234 13.3398 4.33984C12.9023 4.77734 12.3711 4.99609 11.7461 4.99609C11.4461 4.99609 11.1648 4.94297 10.9023 4.83672C10.6398 4.73047 10.4086 4.58359 10.2086 4.39609L4.93984 7.47109C4.96484 7.55859 4.98047 7.64297 4.98672 7.72422C4.99297 7.80547 4.99609 7.89609 4.99609 7.99609C4.99609 8.09609 4.99297 8.18672 4.98672 8.26797C4.98047 8.34922 4.96484 8.43359 4.93984 8.52109L10.2086 11.5961C10.4086 11.4086 10.6398 11.2617 10.9023 11.1555C11.1648 11.0492 11.4461 10.9961 11.7461 10.9961C12.3711 10.9961 12.9023 11.2148 13.3398 11.6523C13.7773 12.0898 13.9961 12.6211 13.9961 13.2461C13.9961 13.8711 13.7773 14.4023 13.3398 14.8398C12.9023 15.2773 12.3711 15.4961 11.7461 15.4961ZM11.7461 13.9961C11.9586 13.9961 12.1367 13.9242 12.2805 13.7805C12.4242 13.6367 12.4961 13.4586 12.4961 13.2461C12.4961 13.0336 12.4242 12.8555 12.2805 12.7117C12.1367 12.568 11.9586 12.4961 11.7461 12.4961C11.5336 12.4961 11.3555 12.568 11.2117 12.7117C11.068 12.8555 10.9961 13.0336 10.9961 13.2461C10.9961 13.4586 11.068 13.6367 11.2117 13.7805C11.3555 13.9242 11.5336 13.9961 11.7461 13.9961ZM2.74609 8.74609C2.95859 8.74609 3.13672 8.67422 3.28047 8.53047C3.42422 8.38672 3.49609 8.20859 3.49609 7.99609C3.49609 7.78359 3.42422 7.60547 3.28047 7.46172C3.13672 7.31797 2.95859 7.24609 2.74609 7.24609C2.53359 7.24609 2.35547 7.31797 2.21172 7.46172C2.06797 7.60547 1.99609 7.78359 1.99609 7.99609C1.99609 8.20859 2.06797 8.38672 2.21172 8.53047C2.35547 8.67422 2.53359 8.74609 2.74609 8.74609ZM11.7461 3.49609C11.9586 3.49609 12.1367 3.42422 12.2805 3.28047C12.4242 3.13672 12.4961 2.95859 12.4961 2.74609C12.4961 2.53359 12.4242 2.35547 12.2805 2.21172C12.1367 2.06797 11.9586 1.99609 11.7461 1.99609C11.5336 1.99609 11.3555 2.06797 11.2117 2.21172C11.068 2.35547 10.9961 2.53359 10.9961 2.74609C10.9961 2.95859 11.068 3.13672 11.2117 3.28047C11.3555 3.42422 11.5336 3.49609 11.7461 3.49609Z" fill="#800020"/>
</svg>
