<svg width="23" height="22" viewBox="0 0 23 22" fill="none" xmlns="http://www.w3.org/2000/svg">
<path d="M17.0007 0.208496L18.3195 2.68132L20.7923 4.00017L18.3195 5.31901L17.0007 7.79183L15.6818 5.31901L13.209 4.00017L15.6818 2.68132L17.0007 0.208496ZM10.6673 8.3335L15.6673 11.0002L10.6673 13.6668L8.00065 18.6668L5.33398 13.6668L0.333984 11.0002L5.33398 8.3335L8.00065 3.3335L10.6673 8.3335ZM11.4173 11.0002L9.18905 9.81179L8.00065 7.5835L6.81224 9.81179L4.58398 11.0002L6.81224 12.1886L8.00065 14.4168L9.18905 12.1886L11.4173 11.0002ZM19.6673 15.3335L18.0007 12.2085L16.334 15.3335L13.209 17.0002L16.334 18.6668L18.0007 21.7918L19.6673 18.6668L22.7923 17.0002L19.6673 15.3335Z" fill="#800020"/>
</svg>
