<svg width="14" height="14" viewBox="0 0 14 14" fill="none" xmlns="http://www.w3.org/2000/svg">
<path d="M4.76667 12.3333H3C2.63333 12.3333 2.31944 12.2028 2.05833 11.9417C1.79722 11.6806 1.66667 11.3667 1.66667 11V9.23333L0.383333 7.93333C0.261111 7.8 0.166667 7.65278 0.1 7.49167C0.0333333 7.33056 0 7.16667 0 7C0 6.83333 0.0333333 6.66945 0.1 6.50833C0.166667 6.34722 0.261111 6.2 0.383333 6.06667L1.66667 4.76667V3C1.66667 2.63333 1.79722 2.31944 2.05833 2.05833C2.31944 1.79722 2.63333 1.66667 3 1.66667H4.76667L6.06667 0.383333C6.2 0.261111 6.34722 0.166667 6.50833 0.1C6.66945 0.0333333 6.83333 0 7 0C7.16667 0 7.33056 0.0333333 7.49167 0.1C7.65278 0.166667 7.8 0.261111 7.93333 0.383333L9.23333 1.66667H11C11.3667 1.66667 11.6806 1.79722 11.9417 2.05833C12.2028 2.31944 12.3333 2.63333 12.3333 3V4.76667L13.6167 6.06667C13.7389 6.2 13.8333 6.34722 13.9 6.50833C13.9667 6.66945 14 6.83333 14 7C14 7.16667 13.9667 7.33056 13.9 7.49167C13.8333 7.65278 13.7389 7.8 13.6167 7.93333L12.3333 9.23333V11C12.3333 11.3667 12.2028 11.6806 11.9417 11.9417C11.6806 12.2028 11.3667 12.3333 11 12.3333H9.23333L7.93333 13.6167C7.8 13.7389 7.65278 13.8333 7.49167 13.9C7.33056 13.9667 7.16667 14 7 14C6.83333 14 6.66945 13.9667 6.50833 13.9C6.34722 13.8333 6.2 13.7389 6.06667 13.6167L4.76667 12.3333Z" fill="#F0CE54"/>
</svg>
