<svg width="18" height="18" viewBox="0 0 18 18" fill="none" xmlns="http://www.w3.org/2000/svg">
<path d="M4.20591 16.0407C3.5833 15.8143 3.14021 15.5621 2.86381 15.3194C2.58612 15.0756 2.52969 14.8925 2.52969 14.7863C2.52969 14.6801 2.58612 14.4969 2.86381 14.2531C3.14021 14.0105 3.5833 13.7583 4.20591 13.5319C5.44868 13.08 7.17395 12.8148 9.00112 12.8148C10.8283 12.8148 12.5536 13.08 13.7963 13.5319C14.4189 13.7583 14.862 14.0105 15.1384 14.2531C15.4161 14.4969 15.4725 14.6801 15.4725 14.7863C15.4725 14.8925 15.4161 15.0756 15.1384 15.3194C14.862 15.5621 14.4189 15.8143 13.7963 16.0407C12.5536 16.4926 10.8283 16.7577 9.00112 16.7577C7.17395 16.7577 5.44868 16.4926 4.20591 16.0407Z" stroke="#DDDDDE" stroke-width="1"/>
<path d="M14.1902 6.43025C14.1902 8.16629 13.2743 9.73545 12.1565 10.9962C11.0454 12.2494 9.79589 13.128 9.26767 13.4725C9.19866 13.5175 9.11079 13.5445 9.00446 13.5445C8.89813 13.5445 8.81026 13.5175 8.74126 13.4725C8.21304 13.128 6.96355 12.2494 5.85241 10.9962C4.73458 9.73545 3.81875 8.16629 3.81875 6.43025C3.81875 3.56626 6.14047 1.24453 9.00446 1.24453C11.8685 1.24453 14.1902 3.56626 14.1902 6.43025Z" stroke="#DDDDDE" stroke-width="0.5"/>
<path d="M7.83327 7.2761C7.52384 6.96667 7.35 6.54698 7.35 6.10938C7.35 5.67177 7.52384 5.25208 7.83327 4.94265C8.14271 4.63321 8.56239 4.45938 9 4.45938C9.43761 4.45938 9.85729 4.63321 10.1667 4.94265C10.4762 5.25208 10.65 5.67177 10.65 6.10938C10.65 6.54698 10.4762 6.96667 10.1667 7.2761C9.85729 7.58554 9.43761 7.75938 9 7.75938C8.56239 7.75938 8.14271 7.58554 7.83327 7.2761Z" stroke="#DDDDDE" stroke-width="0.5"/>
<path d="M3.2154 13.3086C2.40536 13.727 1.92969 14.237 1.92969 14.7874C1.92969 16.2076 5.09567 17.3589 9.00112 17.3589C12.9066 17.3589 16.0725 16.2076 16.0725 14.7874C16.0725 14.237 15.5968 13.727 14.7868 13.3086" stroke="#DDDDDE" stroke-width="0.5" stroke-linecap="round" stroke-linejoin="round"/>
<path d="M14.7902 6.43025C14.7902 10.3255 10.6959 13.2574 9.59543 13.9751C9.41915 14.09 9.21492 14.1445 9.00446 14.1445C8.79401 14.1445 8.58978 14.09 8.4135 13.9751C7.31306 13.2574 3.21875 10.3255 3.21875 6.43025C3.21875 3.23489 5.8091 0.644531 9.00446 0.644531C12.1998 0.644531 14.7902 3.23489 14.7902 6.43025Z" stroke="#DDDDDE" stroke-width="0.5" stroke-linecap="round" stroke-linejoin="round"/>
<path d="M6.75 6.10938C6.75 6.70611 6.98705 7.27841 7.40901 7.70037C7.83097 8.12232 8.40326 8.35938 9 8.35938C9.59674 8.35938 10.169 8.12232 10.591 7.70037C11.0129 7.27841 11.25 6.70611 11.25 6.10938C11.25 5.51264 11.0129 4.94034 10.591 4.51838C10.169 4.09643 9.59674 3.85938 9 3.85938C8.40326 3.85938 7.83097 4.09643 7.40901 4.51838C6.98705 4.94034 6.75 5.51264 6.75 6.10938Z" stroke="#DDDDDE" stroke-width="0.5" stroke-linecap="round" stroke-linejoin="round"/>
</svg>
