<svg width="27" height="27" viewBox="0 0 27 27" fill="none" xmlns="http://www.w3.org/2000/svg">
<path d="M0.166664 24.8592V9.12085C0.166664 8.62197 0.307775 8.16294 0.589998 7.74377C0.87222 7.32432 1.2443 7.02794 1.70625 6.8546L17.1454 0.909187C17.5585 0.75252 17.9426 0.795574 18.2979 1.03835C18.6535 1.28141 18.8312 1.61544 18.8312 2.04044V14.6667H22.2179C22.2179 14.032 22.4444 13.4886 22.8975 13.0367C23.3508 12.585 23.8956 12.3592 24.5317 12.3592C25.1681 12.3592 25.7107 12.585 26.1596 13.0367C26.6087 13.4886 26.8333 14.032 26.8333 14.6667V24.8592C26.8333 25.267 26.6896 25.6146 26.4021 25.9021C26.1146 26.1896 25.7669 26.3334 25.3592 26.3334H1.64083C1.23305 26.3334 0.885414 26.1896 0.597914 25.9021C0.310414 25.6146 0.166664 25.267 0.166664 24.8592ZM1.57708 24.9229H10.295V17.1025C10.295 16.4436 10.5362 15.8729 11.0187 15.3904C11.5012 14.9079 12.0719 14.6667 12.7308 14.6667H17.4208V2.29502L2.21791 8.15877C2.02569 8.24433 1.87083 8.37252 1.75333 8.54335C1.63583 8.71419 1.57708 8.90655 1.57708 9.12044V24.9229ZM11.705 24.9229H17.4208V22.3592C17.4208 22.0514 17.5331 21.7821 17.7575 21.5513C17.9819 21.3204 18.2525 21.205 18.5692 21.205C18.8856 21.205 19.1579 21.3204 19.3862 21.5513C19.6146 21.7821 19.7287 22.0514 19.7287 22.3592V24.9229H25.4229V16.0771H12.7308C12.4317 16.0771 12.186 16.1732 11.9937 16.3654C11.8012 16.5577 11.705 16.8034 11.705 17.1025V24.9229Z" fill="#654A47"/>
</svg>
