<svg width="312" height="183" viewBox="0 0 312 183" fill="none" xmlns="http://www.w3.org/2000/svg">
<g clip-path="url(#clip0_13719_34859)">
<path d="M156 168.656C201.188 168.656 237.82 162.513 237.82 154.935C237.82 147.357 201.188 141.213 156 141.213C110.812 141.213 74.1803 147.357 74.1803 154.935C74.1803 162.513 110.812 168.656 156 168.656Z" fill="url(#paint0_linear_13719_34859)" fill-opacity="0.6"/>
<path d="M156 181.869C241.604 181.869 311 169.81 311 154.934C311 140.059 241.604 128 156 128C70.3959 128 1 140.059 1 154.934C1 169.81 70.3959 181.869 156 181.869Z" stroke="url(#paint1_linear_13719_34859)" stroke-width="0.609836"/>
<path d="M156 168.656C201.188 168.656 237.82 162.513 237.82 154.935C237.82 147.357 201.188 141.213 156 141.213C110.812 141.213 74.1803 147.357 74.1803 154.935C74.1803 162.513 110.812 168.656 156 168.656Z" stroke="url(#paint2_linear_13719_34859)" stroke-width="0.609836"/>
<path d="M213.718 114.667H99.6161L78.667 0H234.667L213.718 114.667Z" fill="url(#paint3_linear_13719_34859)"/>
<path d="M156 20.6665C156.446 20.6665 156.914 20.6676 157.385 20.6948C160.114 20.7362 162.803 20.951 165.438 21.3276C168.817 21.7983 172.131 22.5245 175.324 23.4946C185.923 26.6597 195.417 32.3694 203.106 39.896C207.792 44.4752 211.805 49.7406 214.984 55.5181C216.787 58.7891 218.336 62.2229 219.576 65.7935L220.02 67.1021C222.174 73.6783 223.333 80.7046 223.333 88.0005C223.333 125.182 193.181 155.333 156 155.333C148.218 155.333 140.742 154.014 133.792 151.576V151.575C130.209 150.335 126.776 148.788 123.505 146.985C117.727 143.806 112.475 139.792 107.897 135.106V135.105C100.356 127.416 94.6594 117.923 91.4944 107.325V107.324C90.525 104.132 89.7975 100.82 89.3265 97.4419L89.1927 96.4487C88.8993 94.1355 88.7303 91.7827 88.6937 89.3989L88.678 89.0425C88.6664 88.6879 88.6663 88.3377 88.6663 88.0005C88.6663 50.8192 118.805 20.6665 156 20.6665Z" fill="url(#paint4_linear_13719_34859)" stroke="url(#paint5_linear_13719_34859)" stroke-width="1.33333" stroke-miterlimit="10"/>
<g opacity="0.5">
<path opacity="0.5" fill-rule="evenodd" clip-rule="evenodd" d="M202.639 40.3734L195.093 47.9203L115.919 127.093L108.373 134.64C100.906 127.027 95.2661 117.627 92.1326 107.134L175.133 24.1338C185.626 27.2673 195.026 32.9202 202.639 40.3734Z" fill="#FFEFCA"/>
<path opacity="0.5" fill-rule="evenodd" clip-rule="evenodd" d="M218.946 66.0137L142.586 142.373L134.013 150.947C130.466 149.72 127.066 148.187 123.826 146.4L131.733 138.493L206.493 63.7468L214.4 55.8398C216.186 59.0801 217.719 62.4798 218.946 66.0137Z" fill="#FFEFCA"/>
<path opacity="0.5" fill-rule="evenodd" clip-rule="evenodd" d="M165.346 21.9873L155.333 32.0003L89.9861 97.3473C89.6128 94.734 89.3996 92.0674 89.3592 89.3604L100.933 77.7868L145.786 32.9339L157.359 21.3604C160.066 21.4007 162.733 21.6136 165.346 21.9873Z" fill="#FFEFCA"/>
</g>
<path d="M155.996 144C186.924 144 211.996 118.928 211.996 88C211.996 57.0721 186.924 32 155.996 32C125.068 32 99.9959 57.0721 99.9959 88C99.9959 118.928 125.068 144 155.996 144Z" fill="url(#paint6_linear_13719_34859)"/>
<path fill-rule="evenodd" clip-rule="evenodd" d="M187.28 83.6937L177.813 95.3871C177.546 95.7067 177.32 96.027 177.146 96.4001V96.4138C176.626 97.3871 176.387 98.4802 176.439 99.6L176.68 104.187L177.226 114.6C177.373 117.4 174.6 119.414 171.986 118.414L165.106 115.774L159.799 113.733L157.946 113.027C156.519 112.48 154.946 112.48 153.519 113.027L152.853 113.28L145.639 116.054L139.48 118.414C136.879 119.414 134.093 117.4 134.239 114.6L134.746 105.054L134.799 104.12L135.026 99.6C135.106 98.0668 134.613 96.5602 133.653 95.3871L124.2 83.6937C123.599 82.9736 123.333 82.1201 123.333 81.2803C123.333 79.6266 124.4 78.0133 126.2 77.5335L127.4 77.2132L140.72 73.6403C142.2 73.2536 143.48 72.32 144.306 71.04L152.493 58.4268C154.013 56.0804 157.453 56.0804 158.972 58.4268L167.159 71.04C167.253 71.1872 167.359 71.3336 167.466 71.4671C167.586 71.6266 167.72 71.7868 167.866 71.9333C168.653 72.7471 169.639 73.3467 170.746 73.6403L184.387 77.307L185.266 77.5335C186.12 77.7601 186.799 78.2405 187.28 78.8538C188.359 80.2002 188.48 82.2002 187.28 83.6937Z" fill="url(#paint7_linear_13719_34859)" stroke="url(#paint8_linear_13719_34859)" stroke-width="1.33333" stroke-miterlimit="10"/>
<path fill-rule="evenodd" clip-rule="evenodd" d="M187.28 83.6937L177.813 95.3871C177.546 95.7067 177.32 96.027 177.146 96.4001V96.4138C176.626 97.3871 176.387 98.4802 176.439 99.6L176.68 104.187L177.226 114.6C177.373 117.4 174.6 119.414 171.986 118.414L165.106 115.774L159.799 113.733L157.946 113.027C156.519 112.48 154.946 112.48 153.519 113.027L152.853 113.28L145.639 116.054L139.48 118.414C136.879 119.414 134.093 117.4 134.239 114.6L134.746 105.054L134.799 104.12L135.026 99.6C135.106 98.0668 134.613 96.5602 133.653 95.3871L124.2 83.6937C123.599 82.9736 123.333 82.1201 123.333 81.2803C123.333 79.6266 124.4 78.0133 126.2 77.5335L127.4 77.2132L140.72 73.6403C142.2 73.2536 143.48 72.32 144.306 71.04L152.493 58.4268C154.013 56.0804 157.453 56.0804 158.972 58.4268L167.159 71.04C167.253 71.1872 167.359 71.3336 167.466 71.4671C167.586 71.6266 167.72 71.7868 167.866 71.9333C168.653 72.7471 169.639 73.3467 170.746 73.6403L184.387 77.307L185.266 77.5335C186.12 77.7601 186.799 78.2405 187.28 78.8538C188.359 80.2002 188.48 82.2002 187.28 83.6937Z" fill="url(#paint9_linear_13719_34859)" stroke="url(#paint10_linear_13719_34859)" stroke-width="1.33333" stroke-miterlimit="10"/>
<path d="M118.098 126.497L123.329 126.665L118.098 126.832C115.591 126.913 113.577 128.926 113.497 131.433L113.329 136.664L113.161 131.433C113.081 128.926 111.067 126.913 108.561 126.832L103.329 126.665L108.561 126.497C111.067 126.416 113.081 124.402 113.161 121.896L113.329 116.665L113.497 121.896C113.577 124.402 115.591 126.416 118.098 126.497Z" fill="#FEFEFF"/>
<path d="M198.959 45.729L207.329 45.9975L198.959 46.2661C194.948 46.3947 191.727 49.6163 191.597 53.6274L191.329 61.9975L191.061 53.6274C190.932 49.6163 187.711 46.3947 183.7 46.2661L175.329 45.9975L183.7 45.729C187.711 45.6004 190.932 42.3788 191.061 38.3677L191.329 29.9976L191.597 38.3677C191.727 42.3788 194.948 45.6004 198.959 45.729Z" fill="#FEFEFF"/>
<g opacity="0.5">
<g opacity="0.6">
<path fill-rule="evenodd" clip-rule="evenodd" d="M177.813 95.3871L187.28 83.6937C187.647 83.2373 187.89 82.7336 188.02 82.2156L157.389 112.843C157.577 112.895 157.763 112.957 157.946 113.027L159.799 113.733L168.056 116.904L171.986 118.414C174.599 119.414 177.373 117.4 177.226 114.6L176.884 108.076L176.439 99.6C176.387 98.4802 176.626 97.3871 177.146 96.4138V96.4001C177.32 96.027 177.546 95.7067 177.813 95.3871ZM134.566 108.447L134.746 105.054L134.799 104.12L135.026 99.5999C135.106 98.0667 134.613 96.5602 133.653 95.3871L124.2 83.6937C123.599 82.9736 123.333 82.1201 123.333 81.2803C123.333 79.6266 124.4 78.0133 126.2 77.5335L127.4 77.2132L140.72 73.6403C142.2 73.2536 143.48 72.32 144.306 71.04L152.493 58.4268C154.013 56.0804 157.453 56.0804 158.972 58.4268L167.159 71.04C167.253 71.1872 167.359 71.3336 167.466 71.4671C167.586 71.6266 167.72 71.7868 167.866 71.9333C168.405 72.4907 169.038 72.9477 169.738 73.2746L134.566 108.447Z" fill="#FF9310"/>
<path fill-rule="evenodd" clip-rule="evenodd" d="M134.746 105.054L134.566 108.447L169.738 73.2746C169.038 72.9477 168.405 72.4907 167.866 71.9333C167.72 71.7868 167.586 71.6266 167.466 71.4671C167.359 71.3336 167.253 71.1872 167.159 71.04L158.972 58.4268C157.453 56.0804 154.013 56.0804 152.493 58.4268L144.306 71.04C143.48 72.32 142.2 73.2536 140.72 73.6403L127.4 77.2132L126.2 77.5335C124.4 78.0133 123.333 79.6266 123.333 81.2803C123.333 82.1201 123.599 82.9736 124.2 83.6937L133.653 95.3871C134.613 96.5602 135.106 98.0667 135.026 99.5999L134.799 104.12L134.746 105.054Z" fill="#FF9310"/>
<path fill-rule="evenodd" clip-rule="evenodd" d="M157.389 112.843L188.02 82.2156C187.89 82.7336 187.647 83.2373 187.28 83.6937L177.813 95.3871C177.546 95.7067 177.32 96.027 177.146 96.4001V96.4138C176.626 97.3871 176.387 98.4802 176.439 99.6L176.884 108.076L168.056 116.904L159.799 113.733L157.946 113.027C157.763 112.957 157.577 112.895 157.389 112.843Z" fill="#FF9310"/>
</g>
</g>
</g>
<defs>
<linearGradient id="paint0_linear_13719_34859" x1="98.1445" y1="164.637" x2="104.475" y2="126.889" gradientUnits="userSpaceOnUse">
<stop stop-color="#C3671B"/>
<stop offset="0.5" stop-color="#F3B344"/>
<stop offset="1" stop-color="#BF570D"/>
</linearGradient>
<linearGradient id="paint1_linear_13719_34859" x1="35.4444" y1="177.725" x2="183.525" y2="36.6889" gradientUnits="userSpaceOnUse">
<stop stop-color="white" stop-opacity="0.2"/>
<stop offset="0.533514" stop-color="white"/>
<stop offset="1" stop-color="white" stop-opacity="0.2"/>
</linearGradient>
<linearGradient id="paint2_linear_13719_34859" x1="155.993" y1="166.702" x2="155.908" y2="145.741" gradientUnits="userSpaceOnUse">
<stop stop-color="white"/>
<stop offset="1" stop-color="white" stop-opacity="0.2"/>
</linearGradient>
<linearGradient id="paint3_linear_13719_34859" x1="151.999" y1="187.643" x2="156.108" y2="-0.101037" gradientUnits="userSpaceOnUse">
<stop stop-color="#FEEA69"/>
<stop offset="1" stop-color="#FEE241" stop-opacity="0"/>
</linearGradient>
<linearGradient id="paint4_linear_13719_34859" x1="89.3333" y1="88.0002" x2="222.667" y2="88.0002" gradientUnits="userSpaceOnUse">
<stop stop-color="#FEEA69"/>
<stop offset="0.38827" stop-color="#FBBB3C"/>
<stop offset="1" stop-color="#FEE241"/>
</linearGradient>
<linearGradient id="paint5_linear_13719_34859" x1="88.3128" y1="88.0002" x2="223.686" y2="88.0002" gradientUnits="userSpaceOnUse">
<stop stop-color="white"/>
<stop offset="1" stop-color="white" stop-opacity="0.2"/>
</linearGradient>
<linearGradient id="paint6_linear_13719_34859" x1="116.398" y1="127.598" x2="195.594" y2="48.4021" gradientUnits="userSpaceOnUse">
<stop stop-color="#C3671B"/>
<stop offset="0.5" stop-color="#F3B344"/>
<stop offset="1" stop-color="#BF570D"/>
</linearGradient>
<linearGradient id="paint7_linear_13719_34859" x1="123.333" y1="87.6704" x2="188.135" y2="87.6704" gradientUnits="userSpaceOnUse">
<stop stop-color="#FEEA69"/>
<stop offset="0.38827" stop-color="#FBBB3C"/>
<stop offset="1" stop-color="#FEE241"/>
</linearGradient>
<linearGradient id="paint8_linear_13719_34859" x1="122.837" y1="87.6704" x2="188.631" y2="87.6704" gradientUnits="userSpaceOnUse">
<stop stop-color="white"/>
<stop offset="1" stop-color="white" stop-opacity="0.2"/>
</linearGradient>
<linearGradient id="paint9_linear_13719_34859" x1="184" y1="82.0003" x2="191.333" y2="116" gradientUnits="userSpaceOnUse">
<stop stop-color="#FBBB3C"/>
<stop offset="1" stop-color="#FEE241" stop-opacity="0"/>
</linearGradient>
<linearGradient id="paint10_linear_13719_34859" x1="122.837" y1="87.6704" x2="188.631" y2="87.6704" gradientUnits="userSpaceOnUse">
<stop stop-color="white"/>
<stop offset="1" stop-color="white" stop-opacity="0.2"/>
</linearGradient>
<clipPath id="clip0_13719_34859">
<rect width="312" height="183" fill="white"/>
</clipPath>
</defs>
</svg>
