<svg viewBox="0 0 20 20" fill="none" xmlns="http://www.w3.org/2000/svg">
<mask id="mask0_3240_33639" style="mask-type:alpha" maskUnits="userSpaceOnUse" x="0" y="0" width="20" height="20">
<rect width="20" height="20" fill="#D9D9D9"/>
</mask>
<g mask="url(#mask0_3240_33639)">
<path d="M14.4167 15.6263L13.5625 14.7721C13.4792 14.6888 13.375 14.6471 13.25 14.6471C13.125 14.6471 13.0208 14.6888 12.9375 14.7721C12.8542 14.8555 12.8125 14.9596 12.8125 15.0846C12.8125 15.2096 12.8542 15.3138 12.9375 15.3971L13.8333 16.293C14 16.4596 14.1944 16.543 14.4167 16.543C14.6389 16.543 14.8333 16.4596 15 16.293L17.0625 14.2305C17.1458 14.1471 17.1875 14.043 17.1875 13.918C17.1875 13.793 17.1458 13.6888 17.0625 13.6055C16.9792 13.5221 16.875 13.4805 16.75 13.4805C16.625 13.4805 16.5208 13.5221 16.4375 13.6055L14.4167 15.6263ZM7.5 15.8346V7.5013H6.66667V15.8346H7.5ZM6.66667 17.5013C6.20833 17.5013 5.81597 17.3381 5.48958 17.0117C5.16319 16.6853 5 16.293 5 15.8346V7.5013C5 7.04297 5.16319 6.65061 5.48958 6.32422C5.81597 5.99783 6.20833 5.83464 6.66667 5.83464H11.6667V3.33464H10.8333C10.5972 3.33464 10.3993 3.25477 10.2396 3.09505C10.0799 2.93533 10 2.73741 10 2.5013C10 2.26519 10.0799 2.06727 10.2396 1.90755C10.3993 1.74783 10.5972 1.66797 10.8333 1.66797H12.5C12.7361 1.66797 12.934 1.74783 13.0938 1.90755C13.2535 2.06727 13.3333 2.26519 13.3333 2.5013V8.89714C13.3333 9.17491 13.2465 9.38325 13.0729 9.52214C12.8993 9.66102 12.7083 9.73047 12.5 9.73047C12.2917 9.73047 12.1007 9.66102 11.9271 9.52214C11.7535 9.38325 11.6667 9.17491 11.6667 8.89714V7.5013H9.16667V15.8346H9.1875C9.42361 15.8346 9.62153 15.9145 9.78125 16.0742C9.94097 16.2339 10.0208 16.4319 10.0208 16.668C10.0208 16.9041 9.94097 17.102 9.78125 17.2617C9.62153 17.4214 9.42361 17.5013 9.1875 17.5013H6.66667ZM15 10.8346C16.1528 10.8346 17.1354 11.2409 17.9479 12.0534C18.7604 12.8659 19.1667 13.8485 19.1667 15.0013C19.1667 16.1541 18.7604 17.1367 17.9479 17.9492C17.1354 18.7617 16.1528 19.168 15 19.168C13.8472 19.168 12.8646 18.7617 12.0521 17.9492C11.2396 17.1367 10.8333 16.1541 10.8333 15.0013C10.8333 13.8485 11.2396 12.8659 12.0521 12.0534C12.8646 11.2409 13.8472 10.8346 15 10.8346Z" fill="#654A47"/>
</g>
</svg>
