<svg viewBox="0 0 21 20" fill="none" xmlns="http://www.w3.org/2000/svg">
<mask id="mask0_3247_34295" style="mask-type:alpha" maskUnits="userSpaceOnUse" x="0" y="0" width="21" height="20">
<rect x="0.5" width="20" height="20" fill="#D9D9D9"/>
</mask>
<g mask="url(#mask0_3247_34295)">
<path d="M16.3335 18.3346H13.8335C13.5974 18.3346 13.3995 18.2548 13.2397 18.0951C13.08 17.9353 13.0002 17.7374 13.0002 17.5013C13.0002 17.2652 13.08 17.0673 13.2397 16.9076C13.3995 16.7478 13.5974 16.668 13.8335 16.668H16.3335V8.33464H4.66683V10.8346C4.66683 11.0707 4.58697 11.2687 4.42725 11.4284C4.26752 11.5881 4.06961 11.668 3.8335 11.668C3.59738 11.668 3.39947 11.5881 3.23975 11.4284C3.08002 11.2687 3.00016 11.0707 3.00016 10.8346V5.0013C3.00016 4.54297 3.16336 4.15061 3.48975 3.82422C3.81613 3.49783 4.2085 3.33464 4.66683 3.33464H5.50016V2.5013C5.50016 2.26519 5.58002 2.06727 5.73975 1.90755C5.89947 1.74783 6.09738 1.66797 6.3335 1.66797C6.56961 1.66797 6.76752 1.74783 6.92725 1.90755C7.08697 2.06727 7.16683 2.26519 7.16683 2.5013V3.33464H13.8335V2.5013C13.8335 2.26519 13.9134 2.06727 14.0731 1.90755C14.2328 1.74783 14.4307 1.66797 14.6668 1.66797C14.9029 1.66797 15.1009 1.74783 15.2606 1.90755C15.4203 2.06727 15.5002 2.26519 15.5002 2.5013V3.33464H16.3335C16.7918 3.33464 17.1842 3.49783 17.5106 3.82422C17.837 4.15061 18.0002 4.54297 18.0002 5.0013V16.668C18.0002 17.1263 17.837 17.5187 17.5106 17.8451C17.1842 18.1714 16.7918 18.3346 16.3335 18.3346ZM8.146 16.668H2.16683C1.93072 16.668 1.7328 16.5881 1.57308 16.4284C1.41336 16.2687 1.3335 16.0707 1.3335 15.8346C1.3335 15.5985 1.41336 15.4006 1.57308 15.2409C1.7328 15.0812 1.93072 15.0013 2.16683 15.0013H8.146L6.5835 13.418C6.43072 13.2652 6.35086 13.0742 6.34391 12.8451C6.33697 12.6159 6.41683 12.418 6.5835 12.2513C6.73627 12.0985 6.93072 12.0221 7.16683 12.0221C7.40294 12.0221 7.59738 12.0985 7.75016 12.2513L10.7502 15.2513C10.9168 15.418 11.0002 15.6124 11.0002 15.8346C11.0002 16.0569 10.9168 16.2513 10.7502 16.418L7.75016 19.418C7.59738 19.5707 7.40641 19.6506 7.17725 19.6576C6.94808 19.6645 6.75016 19.5846 6.5835 19.418C6.43072 19.2652 6.35433 19.0707 6.35433 18.8346C6.35433 18.5985 6.43072 18.4041 6.5835 18.2513L8.146 16.668ZM4.66683 6.66797H16.3335V5.0013H4.66683V6.66797Z" fill="#2C1F1E"/>
</g>
</svg>
