<svg viewBox="0 0 20 20" fill="none" xmlns="http://www.w3.org/2000/svg">
<mask id="mask0_3240_33884" style="mask-type:alpha" maskUnits="userSpaceOnUse" x="0" y="0" width="20" height="20">
<rect width="20" height="20" fill="#D9D9D9"/>
</mask>
<g mask="url(#mask0_3240_33884)">
<path d="M14.4167 15.6263L13.5625 14.7721C13.4792 14.6888 13.375 14.6471 13.25 14.6471C13.125 14.6471 13.0208 14.6888 12.9375 14.7721C12.8542 14.8555 12.8125 14.9596 12.8125 15.0846C12.8125 15.2096 12.8542 15.3138 12.9375 15.3971L13.8333 16.293C14 16.4596 14.1944 16.543 14.4167 16.543C14.6389 16.543 14.8333 16.4596 15 16.293L17.0625 14.2305C17.1458 14.1471 17.1875 14.043 17.1875 13.918C17.1875 13.793 17.1458 13.6888 17.0625 13.6055C16.9792 13.5221 16.875 13.4805 16.75 13.4805C16.625 13.4805 16.5208 13.5221 16.4375 13.6055L14.4167 15.6263ZM15 19.168C13.8472 19.168 12.8646 18.7617 12.0521 17.9492C11.2396 17.1367 10.8333 16.1541 10.8333 15.0013C10.8333 13.8485 11.2396 12.8659 12.0521 12.0534C12.8646 11.2409 13.8472 10.8346 15 10.8346C16.1528 10.8346 17.1354 11.2409 17.9479 12.0534C18.7604 12.8659 19.1667 13.8485 19.1667 15.0013C19.1667 16.1541 18.7604 17.1367 17.9479 17.9492C17.1354 18.7617 16.1528 19.168 15 19.168ZM8.75 17.5013V5.83464H11.6667V3.33464H10.8333C10.5972 3.33464 10.3993 3.25477 10.2396 3.09505C10.0799 2.93533 10 2.73741 10 2.5013C10 2.26519 10.0799 2.06727 10.2396 1.90755C10.3993 1.74783 10.5972 1.66797 10.8333 1.66797H12.5C12.7361 1.66797 12.934 1.74783 13.0938 1.90755C13.2535 2.06727 13.3333 2.26519 13.3333 2.5013V8.5638C13.3333 8.82769 13.2569 9.0638 13.1042 9.27214C12.9514 9.48047 12.7569 9.64019 12.5208 9.7513C12.0764 9.95963 11.6701 10.2166 11.3021 10.5221C10.934 10.8277 10.6111 11.168 10.3333 11.543C9.97222 12.0291 9.6875 12.5638 9.47917 13.1471C9.27083 13.7305 9.16667 14.3485 9.16667 15.0013C9.16667 15.2791 9.1875 15.5464 9.22917 15.8034C9.27083 16.0603 9.32639 16.3138 9.39583 16.5638C9.46528 16.7999 9.43403 17.0152 9.30208 17.2096C9.17014 17.4041 8.98611 17.5013 8.75 17.5013ZM6.66667 17.5013C6.20833 17.5013 5.81597 17.3381 5.48958 17.0117C5.16319 16.6853 5 16.293 5 15.8346V7.5013C5 7.04297 5.16319 6.65061 5.48958 6.32422C5.81597 5.99783 6.20833 5.83464 6.66667 5.83464H7.5V17.5013H6.66667Z" fill="white"/>
</g>
</svg>
