<svg viewBox="0 0 20 20" fill="none" xmlns="http://www.w3.org/2000/svg">
<mask id="mask0_3240_33651" style="mask-type:alpha" maskUnits="userSpaceOnUse" x="0" y="0" width="20" height="20">
<rect width="20" height="20" fill="#D9D9D9"/>
</mask>
<g mask="url(#mask0_3240_33651)">
<path d="M15.8335 18.3346H13.3335C13.0974 18.3346 12.8995 18.2548 12.7397 18.0951C12.58 17.9353 12.5002 17.7374 12.5002 17.5013C12.5002 17.2652 12.58 17.0673 12.7397 16.9076C12.8995 16.7478 13.0974 16.668 13.3335 16.668H15.8335V8.33464H4.16683V10.8346C4.16683 11.0707 4.08697 11.2687 3.92725 11.4284C3.76752 11.5881 3.56961 11.668 3.3335 11.668C3.09738 11.668 2.89947 11.5881 2.73975 11.4284C2.58002 11.2687 2.50016 11.0707 2.50016 10.8346V5.0013C2.50016 4.54297 2.66336 4.15061 2.98975 3.82422C3.31613 3.49783 3.7085 3.33464 4.16683 3.33464H5.00016V2.5013C5.00016 2.26519 5.08002 2.06727 5.23975 1.90755C5.39947 1.74783 5.59738 1.66797 5.8335 1.66797C6.06961 1.66797 6.26752 1.74783 6.42725 1.90755C6.58697 2.06727 6.66683 2.26519 6.66683 2.5013V3.33464H13.3335V2.5013C13.3335 2.26519 13.4134 2.06727 13.5731 1.90755C13.7328 1.74783 13.9307 1.66797 14.1668 1.66797C14.4029 1.66797 14.6009 1.74783 14.7606 1.90755C14.9203 2.06727 15.0002 2.26519 15.0002 2.5013V3.33464H15.8335C16.2918 3.33464 16.6842 3.49783 17.0106 3.82422C17.337 4.15061 17.5002 4.54297 17.5002 5.0013V16.668C17.5002 17.1263 17.337 17.5187 17.0106 17.8451C16.6842 18.1714 16.2918 18.3346 15.8335 18.3346ZM7.646 16.668H1.66683C1.43072 16.668 1.2328 16.5881 1.07308 16.4284C0.913357 16.2687 0.833496 16.0707 0.833496 15.8346C0.833496 15.5985 0.913357 15.4006 1.07308 15.2409C1.2328 15.0812 1.43072 15.0013 1.66683 15.0013H7.646L6.0835 13.418C5.93072 13.2652 5.85086 13.0742 5.84391 12.8451C5.83697 12.6159 5.91683 12.418 6.0835 12.2513C6.23627 12.0985 6.43072 12.0221 6.66683 12.0221C6.90294 12.0221 7.09738 12.0985 7.25016 12.2513L10.2502 15.2513C10.4168 15.418 10.5002 15.6124 10.5002 15.8346C10.5002 16.0569 10.4168 16.2513 10.2502 16.418L7.25016 19.418C7.09738 19.5707 6.90641 19.6506 6.67725 19.6576C6.44808 19.6645 6.25016 19.5846 6.0835 19.418C5.93072 19.2652 5.85433 19.0707 5.85433 18.8346C5.85433 18.5985 5.93072 18.4041 6.0835 18.2513L7.646 16.668Z" fill="white"/>
</g>
</svg>
